<?xml version="1.0" encoding="utf-8" ?>
<svg xmlns="http://www.w3.org/2000/svg" xmlns:xlink="http://www.w3.org/1999/xlink" width="683" height="683">
	<path fill="#789694" transform="scale(1.33333 1.33333)" d="M265.306 122.159C268.143 100.517 283.982 83.3604 306.237 81.3498C328.618 78.3722 349.335 94.9478 353.88 116.757C368.648 116.213 381.312 118.641 392.409 129.43C409.43 145.977 410.28 173.691 394.577 191.427C392.249 194.057 389.467 196.34 386.996 198.848C389.259 199.132 391.295 199.622 393.439 200.398C450.464 221.031 454.088 300.949 400.175 325.689C401.434 347.027 403.66 359.219 384.503 375.34C378.791 418.428 335.024 442.185 295.494 424.007C282.108 417.851 269.555 406.581 264.414 392.5C263.156 389.055 260.013 373.202 261.952 370.019C263.893 366.834 269.093 367.041 270.303 370.791C270.973 372.869 270.655 375.268 270.813 377.429C274.906 433.455 372.97 436.729 374.985 372.057C375.096 368.47 373.405 361.209 375.076 358.336C378.288 352.812 382.877 358.067 383.593 363.581C392.274 354.292 392.578 341.64 391.122 329.676C383.474 331.631 376.227 332.451 368.325 332.241C361.725 331.476 345.921 328.217 341.718 322.839C339.33 319.783 341.509 314.675 345.726 315.576C348.247 316.114 350.656 317.946 352.993 319.037C368.019 326.054 386.362 323.448 400.39 315.305C452.365 285.135 428.87 205.187 371.583 206.223C368.095 206.287 352.001 210.729 355.131 201.392C356.456 197.437 361.499 197.79 364.866 197.385C402.697 192.833 408.225 138.7 371.7 127.493C354.498 122.215 334.551 130.862 328.34 148.153C327.188 151.36 327.236 156.692 323.719 158.381C321.407 159.492 318.852 157.808 317.982 155.619C313.386 144.058 333.7 123.513 344.552 119.504C338.531 82.1082 281.981 77.8945 274.578 124.561C284.42 129.17 291.869 136.476 294.389 147.486C295.127 150.712 294.065 154.239 290.321 154.692C284.433 155.403 284.977 148.179 283.327 144.51C275.652 127.442 247.1 127.552 240.38 145.375C239.218 148.455 237.766 159.037 231.179 153.372C228.66 151.207 229.808 147.874 230.641 145.194C235.535 129.442 249.225 122.221 265.306 122.159Z"/>
	<path fill="#789694" transform="scale(1.33333 1.33333)" d="M182.661 169.256C165.977 161.968 167.021 139.615 186.088 136.833C201.797 135.261 213.577 157.777 192.269 169.256C191.802 172.808 192.304 179.356 192.288 183.18C192.254 191.576 190.665 200.277 201.177 202.536C208.967 187.754 224.898 192.734 239.525 192.382C239.502 187.853 238.959 179.262 239.696 175.132C240.342 171.514 244.229 168.488 247.403 171.816C250.051 174.593 248.77 187.708 248.765 192.382C256.295 192.502 263.846 192.385 271.378 192.382C271.374 190.348 269.776 162.517 279.514 171.626C282.02 173.97 280.787 188.156 280.79 192.382L292.655 192.334C316.268 192.189 315.177 202.512 315.71 222.262C319.92 222.243 329.558 221.732 333.245 222.416C339.187 223.519 342.136 231.836 327.506 231.703L315.71 231.65C315.617 237.944 315.709 244.253 315.71 250.549L327.125 250.5C330.902 250.481 342.954 251.611 336.756 258.256C334.467 260.709 330.095 259.92 327.129 259.892L315.71 259.841L315.71 278.667C322.031 278.679 328.787 278.06 335.053 278.667C336.505 279.85 337.767 281.445 337.743 283.415C337.659 290.595 321.829 287.942 315.71 287.944C315.817 308.767 314.445 314.715 292.086 314.725L280.79 314.714L280.819 326.953C280.826 331.104 281.86 337.531 275.811 337.602C270.436 337.666 271.306 330.325 271.326 326.857L271.378 314.714L248.765 314.714L248.765 342.486C271.558 351.528 257.382 381.96 237.347 372.978C223.229 366.649 225.228 347.76 239.525 342.486L239.525 314.714C224.851 314.741 213.299 318.386 202.64 308.124C191.633 308.447 192.259 318.392 192.261 326.832L192.269 342.486C207.557 347.313 207.663 368.943 192.285 374.087C170.698 381.308 161.362 348.199 182.661 342.486L182.634 325.953C182.623 316.571 182.467 308.834 190.752 302.447C193.575 300.609 196.343 299.342 199.639 298.607L199.639 287.944L156.397 287.944C149.318 293.23 138.382 304.9 132.029 311.299C142.586 331.278 113.98 346.374 103.698 327.957C95.8986 313.988 108.447 299.753 125.023 304.923L129.134 300.756C132.988 296.909 148.445 281.074 152.188 279.172C154.351 278.073 193.825 278.663 199.639 278.667L199.639 259.841L105.328 259.841C96.4537 281.846 66.942 268.998 74.585 249.354C80.0121 235.405 98.8805 235.319 105.328 250.549L199.639 250.549L199.639 231.65L170.159 231.656C152.674 231.7 155.593 234.845 143.24 222.751L125.023 205.133C103.127 213.7 91.8742 183.257 111.466 175.486C126.033 169.709 138.8 184.242 132.029 198.848C139.897 206.878 148.288 214.468 156.397 222.262L199.639 222.262L199.639 211.614C183.736 208.795 182.637 197.092 182.644 183.458L182.661 169.256ZM186.106 146.325Q185.882 146.365 185.661 146.419Q185.44 146.474 185.223 146.543Q185.006 146.613 184.795 146.696Q184.583 146.78 184.377 146.877Q184.172 146.974 183.973 147.085Q183.774 147.196 183.583 147.32Q183.392 147.444 183.21 147.58Q183.028 147.717 182.855 147.865Q182.682 148.013 182.52 148.172Q182.357 148.332 182.205 148.501Q182.054 148.671 181.914 148.851Q181.774 149.03 181.646 149.219Q181.519 149.407 181.404 149.604Q181.289 149.8 181.188 150.004Q181.086 150.208 180.998 150.418Q180.911 150.628 180.837 150.843Q180.763 151.058 180.704 151.278Q180.645 151.498 180.601 151.721Q180.557 151.944 180.527 152.17Q180.498 152.396 180.484 152.623Q180.47 152.85 180.471 153.078Q180.471 153.305 180.487 153.532Q180.504 153.759 180.535 153.985Q180.566 154.21 180.612 154.433Q180.658 154.656 180.719 154.875Q180.78 155.095 180.855 155.31Q180.93 155.524 181.02 155.734Q181.109 155.943 181.212 156.146Q181.315 156.349 181.432 156.544Q181.548 156.74 181.677 156.927Q181.806 157.115 181.948 157.293Q182.089 157.471 182.242 157.64Q182.395 157.809 182.559 157.967Q182.722 158.125 182.896 158.271Q183.07 158.418 183.254 158.553Q183.437 158.688 183.629 158.81Q183.821 158.933 184.02 159.042Q184.22 159.151 184.426 159.247Q184.633 159.343 184.845 159.425Q185.058 159.507 185.275 159.574Q185.492 159.642 185.714 159.694Q185.935 159.747 186.159 159.785Q186.384 159.823 186.61 159.846Q186.837 159.869 187.064 159.877Q187.292 159.885 187.519 159.878Q187.746 159.871 187.973 159.848Q188.199 159.826 188.424 159.789Q188.648 159.751 188.87 159.699Q189.03 159.661 189.189 159.616Q189.347 159.57 189.503 159.517Q189.659 159.464 189.812 159.404Q189.965 159.343 190.115 159.275Q190.265 159.207 190.412 159.132Q190.559 159.057 190.701 158.975Q190.844 158.893 190.983 158.805Q191.122 158.716 191.256 158.62Q191.39 158.525 191.52 158.423Q191.65 158.322 191.774 158.214Q191.899 158.106 192.018 157.992Q192.137 157.878 192.25 157.759Q192.364 157.64 192.472 157.515Q192.579 157.39 192.681 157.261Q192.782 157.131 192.877 156.997Q192.973 156.862 193.061 156.723Q193.15 156.584 193.231 156.441Q193.313 156.298 193.388 156.152Q193.463 156.005 193.53 155.855Q193.598 155.705 193.658 155.551Q193.719 155.398 193.771 155.242Q193.824 155.086 193.87 154.928Q193.915 154.769 193.952 154.609Q193.99 154.448 194.02 154.286Q194.05 154.124 194.071 153.961Q194.093 153.798 194.107 153.634Q194.122 153.47 194.128 153.305Q194.134 153.141 194.132 152.976Q194.13 152.811 194.12 152.647Q194.111 152.482 194.093 152.319Q194.075 152.155 194.05 151.992Q194.024 151.829 193.991 151.668Q193.958 151.507 193.917 151.347Q193.876 151.188 193.827 151.03Q193.778 150.873 193.722 150.718Q193.666 150.563 193.602 150.411Q193.538 150.259 193.467 150.111Q193.397 149.962 193.319 149.817Q193.241 149.672 193.156 149.531Q193.071 149.39 192.979 149.253Q192.888 149.116 192.79 148.983Q192.692 148.851 192.587 148.724Q192.483 148.596 192.373 148.474Q192.262 148.352 192.146 148.235Q192.03 148.118 191.908 148.007Q191.787 147.896 191.66 147.791Q191.533 147.686 191.401 147.587Q191.27 147.488 191.133 147.396Q190.997 147.303 190.856 147.217Q190.716 147.132 190.571 147.053Q190.426 146.974 190.278 146.902Q190.13 146.83 189.978 146.766Q189.827 146.701 189.672 146.644Q189.518 146.587 189.361 146.537Q189.204 146.488 189.045 146.446Q188.885 146.404 188.724 146.369Q188.563 146.335 188.401 146.309Q188.238 146.282 188.074 146.263Q187.911 146.245 187.746 146.234Q187.582 146.223 187.417 146.221Q187.253 146.218 187.088 146.223Q186.923 146.228 186.759 146.241Q186.595 146.254 186.432 146.275Q186.268 146.296 186.106 146.325ZM116.285 183.84Q116.12 183.876 115.957 183.921Q115.793 183.965 115.633 184.017Q115.472 184.069 115.314 184.129Q115.156 184.189 115.001 184.257Q114.846 184.324 114.694 184.4Q114.543 184.475 114.395 184.557Q114.247 184.639 114.104 184.729Q113.961 184.818 113.822 184.915Q113.683 185.011 113.549 185.114Q113.415 185.217 113.286 185.327Q113.157 185.436 113.034 185.552Q112.91 185.668 112.793 185.789Q112.675 185.911 112.564 186.038Q112.452 186.165 112.347 186.298Q112.242 186.43 112.144 186.567Q112.045 186.705 111.953 186.847Q111.862 186.989 111.777 187.135Q111.692 187.282 111.615 187.432Q111.537 187.582 111.467 187.736Q111.397 187.89 111.335 188.047Q111.272 188.204 111.218 188.364Q111.163 188.524 111.116 188.687Q111.07 188.849 111.031 189.014Q110.992 189.178 110.961 189.345Q110.931 189.511 110.908 189.678Q110.885 189.846 110.871 190.014Q110.857 190.183 110.85 190.352Q110.844 190.521 110.846 190.69Q110.849 190.859 110.859 191.028Q110.869 191.197 110.888 191.365Q110.907 191.533 110.933 191.7Q110.96 191.867 110.995 192.032Q111.03 192.197 111.073 192.361Q111.116 192.525 111.167 192.686Q111.218 192.847 111.276 193.006Q111.335 193.164 111.401 193.32Q111.468 193.475 111.541 193.627Q111.615 193.78 111.697 193.928Q111.778 194.076 111.866 194.22Q111.954 194.365 112.05 194.504Q112.145 194.644 112.247 194.779Q112.349 194.914 112.457 195.043Q112.566 195.173 112.681 195.297Q112.795 195.422 112.916 195.54Q113.036 195.659 113.163 195.771Q113.289 195.884 113.42 195.99Q113.552 196.096 113.689 196.196Q113.825 196.296 113.966 196.389Q114.108 196.481 114.253 196.567Q114.399 196.653 114.549 196.732Q114.698 196.81 114.852 196.882Q115.005 196.953 115.162 197.017Q115.318 197.08 115.478 197.136Q115.637 197.192 115.8 197.24Q115.962 197.289 116.126 197.329Q116.29 197.369 116.456 197.401Q116.622 197.433 116.79 197.457Q116.957 197.481 117.125 197.497Q117.294 197.512 117.463 197.52Q117.632 197.527 117.801 197.527Q117.97 197.526 118.139 197.517Q118.308 197.508 118.476 197.491Q118.644 197.473 118.811 197.448Q118.978 197.423 119.144 197.389Q119.311 197.355 119.477 197.313Q119.643 197.271 119.806 197.221Q119.969 197.17 120.13 197.112Q120.291 197.054 120.448 196.988Q120.606 196.922 120.76 196.848Q120.914 196.774 121.064 196.693Q121.214 196.612 121.361 196.523Q121.507 196.434 121.648 196.339Q121.79 196.243 121.926 196.14Q122.063 196.038 122.195 195.929Q122.326 195.82 122.452 195.704Q122.578 195.588 122.698 195.467Q122.818 195.345 122.932 195.218Q123.046 195.09 123.153 194.958Q123.261 194.825 123.361 194.687Q123.462 194.549 123.556 194.406Q123.65 194.263 123.737 194.116Q123.823 193.969 123.903 193.818Q123.982 193.666 124.054 193.511Q124.125 193.356 124.19 193.198Q124.254 193.039 124.31 192.878Q124.366 192.716 124.414 192.553Q124.462 192.389 124.502 192.222Q124.542 192.056 124.574 191.888Q124.605 191.721 124.629 191.551Q124.652 191.382 124.667 191.212Q124.682 191.042 124.689 190.871Q124.696 190.7 124.694 190.529Q124.692 190.358 124.682 190.188Q124.672 190.017 124.653 189.847Q124.634 189.678 124.607 189.509Q124.58 189.34 124.545 189.173Q124.51 189.006 124.466 188.841Q124.423 188.675 124.371 188.512Q124.32 188.35 124.26 188.189Q124.2 188.029 124.133 187.872Q124.066 187.715 123.991 187.562Q123.916 187.408 123.833 187.259Q123.751 187.109 123.661 186.964Q123.571 186.818 123.474 186.678Q123.377 186.537 123.274 186.401Q123.17 186.265 123.06 186.135Q122.949 186.004 122.833 185.879Q122.716 185.754 122.594 185.635Q122.471 185.516 122.343 185.403Q122.214 185.291 122.081 185.184Q121.947 185.078 121.808 184.978Q121.669 184.879 121.526 184.786Q121.382 184.693 121.234 184.608Q121.086 184.522 120.934 184.444Q120.783 184.366 120.627 184.296Q120.471 184.225 120.312 184.162Q120.153 184.1 119.992 184.045Q119.83 183.99 119.665 183.943Q119.501 183.896 119.335 183.858Q119.168 183.819 119 183.789Q118.832 183.759 118.662 183.737Q118.493 183.715 118.323 183.701Q118.152 183.687 117.982 183.682Q117.811 183.677 117.64 183.68Q117.469 183.683 117.299 183.695Q117.128 183.707 116.959 183.727Q116.789 183.747 116.62 183.775Q116.452 183.803 116.285 183.84ZM216.48 201.753C206.63 203.627 209.015 214.772 208.933 222.262C213.204 222.236 223.845 220.631 227.131 223.912C230.201 226.978 227.238 231.025 223.731 231.627C220.595 232.166 212.662 231.664 208.933 231.65C208.923 237.901 208.6 244.317 208.933 250.549C212.553 250.536 221.119 250.038 224.026 250.523C227.644 251.127 230.395 255.54 227.084 258.412C224.083 261.016 213.223 259.698 208.933 259.841C208.768 266.108 208.952 272.396 208.933 278.667C214.156 278.656 220.103 278.18 225.217 278.667C229.75 282.014 229.461 287.281 223.009 287.849C218.401 288.255 213.564 287.967 208.933 287.944C208.909 305.035 208.771 305.475 224.787 305.469L240.626 305.448L280.584 305.461C286.383 305.461 294.83 305.956 300.4 305.247C308.609 304.202 306.24 293.274 306.239 286.814L306.243 228.91C306.241 222.574 306.478 216.142 306.144 209.821C305.627 200.04 296.392 201.738 289.483 201.74L271.252 201.75C253 201.762 234.729 201.551 216.48 201.753ZM89.4243 248.339Q89.2556 248.347 89.0874 248.363Q88.9193 248.379 88.7521 248.403Q88.5849 248.427 88.4192 248.46Q88.2534 248.492 88.0894 248.533Q87.9255 248.573 87.7637 248.622Q87.6019 248.67 87.4428 248.727Q87.2836 248.784 87.1274 248.848Q86.9712 248.912 86.8183 248.984Q86.6655 249.056 86.5164 249.135Q86.3672 249.215 86.2222 249.301Q86.0772 249.388 85.9366 249.481Q85.796 249.575 85.6602 249.675Q85.5244 249.776 85.3937 249.883Q85.263 249.99 85.1377 250.103Q85.0124 250.216 84.8929 250.336Q84.7733 250.455 84.6598 250.58Q84.5463 250.705 84.4391 250.836Q84.3318 250.966 84.2312 251.102Q84.1305 251.238 84.0367 251.378Q83.9428 251.518 83.856 251.663Q83.7691 251.808 83.6895 251.957Q83.6099 252.106 83.5378 252.259Q83.4656 252.412 83.4011 252.568Q83.3365 252.724 83.2797 252.883Q83.2229 253.042 83.1741 253.204Q83.1252 253.365 83.0843 253.529Q83.0435 253.693 83.0107 253.859Q82.978 254.025 82.9534 254.192Q82.9289 254.359 82.9126 254.527Q82.8963 254.695 82.8884 254.864Q82.8804 255.032 82.8807 255.201Q82.881 255.37 82.8897 255.539Q82.8984 255.708 82.9153 255.876Q82.9323 256.044 82.9575 256.211Q82.9827 256.378 83.0161 256.544Q83.0496 256.709 83.0911 256.873Q83.1326 257.037 83.1821 257.198Q83.2317 257.36 83.2891 257.518Q83.3466 257.677 83.4117 257.833Q83.4769 257.989 83.5497 258.141Q83.6225 258.294 83.7027 258.442Q83.7829 258.591 83.8703 258.736Q83.9577 258.88 84.0522 259.02Q84.1466 259.16 84.2478 259.296Q84.3491 259.431 84.4568 259.561Q84.5646 259.691 84.6786 259.816Q84.7927 259.94 84.9127 260.059Q85.0327 260.178 85.1585 260.291Q85.2842 260.404 85.4153 260.51Q85.5465 260.616 85.6827 260.716Q85.8189 260.816 85.9599 260.909Q86.1009 261.002 86.2463 261.088Q86.3917 261.174 86.5411 261.253Q86.6906 261.332 86.8437 261.403Q86.9969 261.474 87.1534 261.538Q87.3098 261.602 87.4692 261.657Q87.6287 261.713 87.7906 261.761Q87.9526 261.809 88.1167 261.849Q88.2809 261.889 88.4468 261.921Q88.6127 261.953 88.78 261.976Q88.9472 262 89.1154 262.015Q89.2837 262.03 89.4524 262.037Q89.6212 262.044 89.7901 262.043Q89.9591 262.042 90.1277 262.032Q90.2951 262.022 90.4618 262.005Q90.6286 261.987 90.7942 261.961Q90.9599 261.935 91.1241 261.901Q91.2883 261.867 91.4507 261.825Q91.613 261.783 91.7731 261.734Q91.9332 261.684 92.0907 261.626Q92.2482 261.569 92.4027 261.503Q92.5572 261.438 92.7083 261.366Q92.8594 261.293 93.0068 261.213Q93.1541 261.133 93.2974 261.046Q93.4407 260.959 93.5796 260.865Q93.7184 260.771 93.8525 260.67Q93.9866 260.569 94.1156 260.462Q94.2446 260.355 94.3682 260.242Q94.4919 260.129 94.6098 260.01Q94.7278 259.89 94.8397 259.766Q94.9517 259.641 95.0574 259.511Q95.1632 259.38 95.2624 259.245Q95.3617 259.11 95.4542 258.97Q95.5467 258.83 95.6323 258.686Q95.7178 258.542 95.7963 258.394Q95.8747 258.246 95.9458 258.094Q96.0169 257.942 96.0804 257.787Q96.144 257.632 96.1999 257.474Q96.2558 257.315 96.304 257.155Q96.3521 256.994 96.3923 256.831Q96.4325 256.669 96.4647 256.504Q96.4969 256.339 96.521 256.174Q96.5451 256.008 96.5611 255.841Q96.5771 255.674 96.5849 255.506Q96.5927 255.339 96.5923 255.171Q96.5919 255.003 96.5833 254.836Q96.5747 254.669 96.5579 254.502Q96.5411 254.335 96.5162 254.169Q96.4913 254.003 96.4583 253.839Q96.4253 253.674 96.3843 253.512Q96.3433 253.349 96.2944 253.189Q96.2455 253.028 96.1889 252.871Q96.1322 252.713 96.0679 252.558Q96.0036 252.403 95.9317 252.252Q95.8599 252.1 95.7808 251.952Q95.7017 251.804 95.6154 251.661Q95.5291 251.517 95.4359 251.377Q95.3427 251.238 95.2428 251.103Q95.1429 250.969 95.0366 250.839Q94.9302 250.709 94.8176 250.585Q94.7051 250.461 94.5866 250.342Q94.468 250.224 94.3439 250.111Q94.2197 249.998 94.0902 249.892Q93.9606 249.785 93.826 249.685Q93.6915 249.585 93.5522 249.492Q93.4128 249.398 93.2691 249.312Q93.1254 249.226 92.9777 249.146Q92.8299 249.067 92.6785 248.995Q92.527 248.923 92.3722 248.859Q92.2174 248.794 92.0596 248.737Q91.9019 248.681 91.7415 248.632Q91.5812 248.583 91.4186 248.541Q91.2561 248.5 91.0917 248.467Q90.9273 248.434 90.7615 248.409Q90.5957 248.384 90.4289 248.367Q90.2621 248.35 90.0946 248.341Q89.9272 248.332 89.7595 248.332Q89.5918 248.331 89.4243 248.339ZM117.518 312.878Q117.29 312.889 117.063 312.915Q116.836 312.941 116.612 312.981Q116.387 313.022 116.166 313.078Q115.944 313.133 115.727 313.203Q115.51 313.273 115.297 313.357Q115.085 313.441 114.879 313.539Q114.673 313.637 114.474 313.749Q114.274 313.86 114.083 313.985Q113.891 314.109 113.709 314.246Q113.526 314.382 113.352 314.531Q113.179 314.679 113.016 314.839Q112.852 314.998 112.7 315.168Q112.548 315.338 112.407 315.518Q112.266 315.698 112.137 315.886Q112.009 316.075 111.893 316.271Q111.777 316.468 111.674 316.672Q111.571 316.876 111.482 317.086Q111.393 317.296 111.318 317.512Q111.243 317.728 111.183 317.948Q111.122 318.168 111.076 318.391Q111.031 318.615 110.999 318.841Q110.968 319.067 110.952 319.295Q110.936 319.523 110.935 319.751Q110.934 319.979 110.949 320.207Q110.963 320.435 110.992 320.661Q111.021 320.888 111.065 321.112Q111.109 321.336 111.167 321.556Q111.226 321.777 111.299 321.993Q111.372 322.21 111.459 322.421Q111.547 322.632 111.648 322.836Q111.749 323.041 111.863 323.239Q111.977 323.436 112.104 323.626Q112.231 323.816 112.37 323.997Q112.51 324.177 112.661 324.349Q112.811 324.52 112.973 324.681Q113.135 324.842 113.307 324.992Q113.48 325.142 113.661 325.28Q113.843 325.418 114.033 325.544Q114.224 325.67 114.422 325.783Q114.62 325.896 114.826 325.996Q115.031 326.096 115.242 326.182Q115.454 326.268 115.671 326.34Q115.887 326.412 116.108 326.469Q116.329 326.526 116.554 326.569Q116.778 326.612 117.004 326.64Q117.231 326.667 117.459 326.68Q117.687 326.693 117.915 326.691Q118.143 326.688 118.371 326.671Q118.539 326.658 118.705 326.637Q118.872 326.616 119.038 326.587Q119.203 326.558 119.367 326.521Q119.531 326.484 119.693 326.439Q119.855 326.395 120.015 326.342Q120.174 326.289 120.331 326.228Q120.488 326.168 120.642 326.1Q120.796 326.032 120.946 325.957Q121.096 325.881 121.242 325.799Q121.389 325.716 121.531 325.626Q121.673 325.537 121.811 325.44Q121.949 325.344 122.081 325.241Q122.214 325.138 122.342 325.028Q122.469 324.919 122.592 324.804Q122.714 324.688 122.83 324.567Q122.947 324.446 123.057 324.319Q123.167 324.192 123.272 324.06Q123.376 323.928 123.473 323.791Q123.571 323.654 123.662 323.513Q123.752 323.371 123.836 323.226Q123.92 323.08 123.997 322.93Q124.073 322.781 124.142 322.628Q124.212 322.474 124.273 322.318Q124.335 322.162 124.389 322.003Q124.443 321.843 124.489 321.682Q124.536 321.52 124.574 321.356Q124.612 321.193 124.643 321.027Q124.673 320.862 124.695 320.696Q124.718 320.529 124.732 320.361Q124.746 320.194 124.752 320.026Q124.758 319.858 124.756 319.69Q124.753 319.522 124.743 319.354Q124.733 319.186 124.714 319.019Q124.696 318.852 124.669 318.686Q124.642 318.52 124.608 318.356Q124.573 318.191 124.53 318.029Q124.488 317.866 124.437 317.706Q124.387 317.545 124.329 317.388Q124.27 317.23 124.205 317.075Q124.139 316.921 124.065 316.769Q123.992 316.618 123.912 316.47Q123.831 316.323 123.744 316.179Q123.656 316.036 123.562 315.897Q123.467 315.758 123.366 315.624Q123.265 315.489 123.157 315.36Q123.05 315.231 122.936 315.107Q122.822 314.983 122.703 314.865Q122.583 314.747 122.458 314.635Q122.333 314.523 122.202 314.417Q122.072 314.311 121.937 314.211Q121.801 314.112 121.661 314.019Q121.521 313.926 121.376 313.84Q121.232 313.754 121.083 313.676Q120.935 313.597 120.783 313.525Q120.63 313.454 120.475 313.39Q120.32 313.326 120.161 313.27Q120.003 313.213 119.842 313.165Q119.681 313.116 119.518 313.076Q119.355 313.035 119.19 313.002Q119.025 312.97 118.859 312.945Q118.692 312.92 118.525 312.904Q118.358 312.887 118.19 312.879Q118.022 312.87 117.854 312.87Q117.686 312.87 117.518 312.878ZM185.675 351.333Q185.508 351.377 185.343 351.429Q185.178 351.482 185.016 351.542Q184.853 351.602 184.694 351.67Q184.535 351.738 184.38 351.814Q184.224 351.89 184.072 351.973Q183.921 352.056 183.773 352.147Q183.626 352.238 183.483 352.335Q183.34 352.433 183.202 352.537Q183.064 352.642 182.931 352.753Q182.799 352.864 182.671 352.981Q182.544 353.099 182.423 353.222Q182.302 353.346 182.187 353.475Q182.072 353.604 181.963 353.739Q181.854 353.873 181.752 354.013Q181.65 354.153 181.555 354.298Q181.46 354.442 181.372 354.591Q181.284 354.741 181.204 354.894Q181.123 355.047 181.05 355.204Q180.978 355.361 180.912 355.521Q180.847 355.681 180.79 355.845Q180.732 356.008 180.683 356.174Q180.634 356.34 180.593 356.508Q180.552 356.676 180.519 356.846Q180.486 357.016 180.461 357.187Q180.436 357.358 180.42 357.531Q180.404 357.703 180.396 357.876Q180.388 358.049 180.389 358.222Q180.39 358.395 180.399 358.567Q180.408 358.74 180.425 358.912Q180.443 359.085 180.469 359.256Q180.494 359.427 180.528 359.596Q180.563 359.766 180.605 359.934Q180.647 360.102 180.698 360.267Q180.748 360.433 180.807 360.596Q180.865 360.759 180.932 360.918Q180.998 361.078 181.072 361.235Q181.146 361.391 181.228 361.544Q181.309 361.696 181.398 361.845Q181.487 361.993 181.583 362.137Q181.68 362.281 181.783 362.42Q181.885 362.559 181.995 362.693Q182.105 362.827 182.221 362.955Q182.337 363.084 182.459 363.206Q182.581 363.329 182.709 363.446Q182.837 363.562 182.971 363.672Q183.104 363.782 183.243 363.886Q183.382 363.989 183.525 364.086Q183.669 364.182 183.817 364.272Q183.965 364.361 184.117 364.444Q184.27 364.526 184.426 364.6Q184.582 364.675 184.741 364.742Q184.901 364.809 185.064 364.868Q185.226 364.927 185.392 364.978Q185.557 365.029 185.725 365.072Q185.892 365.115 186.062 365.15Q186.231 365.185 186.402 365.211Q186.573 365.238 186.746 365.256Q186.918 365.274 187.09 365.284Q187.263 365.293 187.436 365.294Q187.609 365.296 187.782 365.289Q187.955 365.281 188.128 365.266Q188.3 365.25 188.471 365.226Q188.643 365.202 188.813 365.17Q188.983 365.138 189.151 365.097Q189.378 365.042 189.602 364.972Q189.825 364.903 190.043 364.819Q190.262 364.734 190.474 364.636Q190.686 364.537 190.892 364.425Q191.097 364.313 191.294 364.187Q191.492 364.062 191.681 363.924Q191.869 363.786 192.049 363.635Q192.228 363.485 192.397 363.323Q192.566 363.161 192.724 362.989Q192.882 362.816 193.028 362.633Q193.175 362.451 193.308 362.259Q193.442 362.067 193.563 361.867Q193.684 361.667 193.792 361.459Q193.899 361.251 193.993 361.037Q194.087 360.822 194.166 360.602Q194.245 360.382 194.31 360.157Q194.375 359.932 194.424 359.703Q194.474 359.475 194.509 359.243Q194.543 359.012 194.562 358.779Q194.581 358.545 194.585 358.311Q194.589 358.077 194.578 357.844Q194.566 357.61 194.539 357.378Q194.512 357.145 194.47 356.915Q194.427 356.685 194.37 356.458Q194.313 356.231 194.241 356.008Q194.169 355.786 194.082 355.568Q193.995 355.351 193.895 355.14Q193.794 354.929 193.68 354.725Q193.565 354.52 193.437 354.324Q193.31 354.128 193.17 353.941Q193.029 353.754 192.877 353.576Q192.725 353.398 192.561 353.231Q192.397 353.064 192.223 352.908Q192.049 352.752 191.864 352.607Q191.68 352.463 191.487 352.331Q191.294 352.199 191.092 352.081Q190.89 351.962 190.681 351.857Q190.473 351.751 190.257 351.66Q190.042 351.569 189.821 351.492Q189.6 351.415 189.374 351.353Q189.149 351.291 188.919 351.243Q188.69 351.196 188.458 351.164Q188.227 351.132 187.993 351.116Q187.76 351.099 187.526 351.098Q187.292 351.096 187.058 351.111Q186.825 351.125 186.593 351.154Q186.361 351.184 186.131 351.228Q185.901 351.273 185.675 351.333ZM242.877 351.287Q242.707 351.319 242.539 351.359Q242.37 351.399 242.204 351.447Q242.038 351.496 241.874 351.552Q241.711 351.608 241.55 351.673Q241.39 351.737 241.232 351.809Q241.075 351.881 240.921 351.96Q240.768 352.04 240.618 352.127Q240.469 352.214 240.324 352.308Q240.178 352.402 240.038 352.504Q239.898 352.605 239.763 352.713Q239.627 352.821 239.497 352.935Q239.368 353.049 239.244 353.17Q239.12 353.291 239.002 353.417Q238.883 353.544 238.772 353.676Q238.66 353.808 238.555 353.945Q238.45 354.083 238.351 354.225Q238.253 354.367 238.162 354.514Q238.071 354.661 237.987 354.813Q237.903 354.964 237.826 355.119Q237.75 355.274 237.681 355.433Q237.612 355.592 237.551 355.754Q237.49 355.916 237.437 356.08Q237.384 356.245 237.34 356.412Q237.295 356.579 237.258 356.748Q237.221 356.917 237.193 357.088Q237.165 357.259 237.145 357.431Q237.125 357.603 237.113 357.775Q237.101 357.948 237.098 358.121Q237.095 358.294 237.1 358.467Q237.106 358.64 237.119 358.812Q237.133 358.984 237.155 359.156Q237.177 359.328 237.208 359.498Q237.238 359.668 237.277 359.837Q237.316 360.005 237.363 360.172Q237.41 360.339 237.465 360.503Q237.52 360.667 237.583 360.828Q237.646 360.989 237.717 361.147Q237.787 361.305 237.866 361.459Q237.944 361.613 238.03 361.763Q238.116 361.914 238.209 362.06Q238.302 362.205 238.402 362.346Q238.502 362.488 238.609 362.624Q238.716 362.76 238.829 362.891Q238.943 363.021 239.062 363.146Q239.182 363.271 239.307 363.39Q239.433 363.509 239.564 363.622Q239.695 363.735 239.832 363.841Q239.968 363.947 240.11 364.047Q240.252 364.146 240.398 364.239Q240.544 364.331 240.695 364.416Q240.845 364.501 241 364.579Q241.155 364.657 241.313 364.727Q241.471 364.797 241.632 364.859Q241.794 364.921 241.958 364.976Q242.122 365.03 242.289 365.076Q242.456 365.122 242.625 365.16Q242.794 365.198 242.964 365.228Q243.134 365.258 243.306 365.279Q243.478 365.3 243.65 365.313Q243.823 365.326 243.996 365.331Q244.169 365.335 244.342 365.331Q244.515 365.327 244.687 365.315Q244.86 365.303 245.032 365.282Q245.203 365.261 245.374 365.232Q245.546 365.203 245.717 365.165Q245.887 365.127 246.056 365.08Q246.225 365.034 246.391 364.98Q246.557 364.925 246.72 364.862Q246.883 364.8 247.043 364.729Q247.203 364.659 247.359 364.58Q247.515 364.502 247.667 364.416Q247.819 364.33 247.967 364.236Q248.115 364.143 248.258 364.042Q248.401 363.942 248.538 363.834Q248.676 363.727 248.808 363.612Q248.941 363.498 249.067 363.378Q249.194 363.257 249.314 363.13Q249.435 363.004 249.549 362.871Q249.663 362.739 249.77 362.601Q249.877 362.463 249.978 362.32Q250.078 362.177 250.171 362.029Q250.265 361.881 250.35 361.729Q250.436 361.577 250.515 361.421Q250.593 361.264 250.663 361.104Q250.734 360.945 250.796 360.781Q250.859 360.618 250.913 360.452Q250.967 360.286 251.013 360.117Q251.059 359.949 251.097 359.778Q251.135 359.607 251.164 359.435Q251.193 359.263 251.214 359.089Q251.235 358.916 251.247 358.741Q251.259 358.567 251.262 358.392Q251.266 358.218 251.261 358.043Q251.256 357.868 251.242 357.694Q251.228 357.52 251.206 357.346Q251.184 357.173 251.153 357.001Q251.122 356.829 251.083 356.659Q251.044 356.488 250.996 356.32Q250.949 356.152 250.893 355.987Q250.837 355.821 250.773 355.658Q250.709 355.496 250.637 355.336Q250.565 355.177 250.486 355.021Q250.406 354.866 250.319 354.714Q250.231 354.563 250.137 354.416Q250.042 354.269 249.941 354.127Q249.839 353.985 249.73 353.848Q249.622 353.711 249.506 353.58Q249.391 353.448 249.27 353.323Q249.148 353.197 249.021 353.078Q248.893 352.958 248.76 352.845Q248.626 352.732 248.488 352.626Q248.349 352.52 248.205 352.42Q248.061 352.321 247.913 352.229Q247.764 352.137 247.611 352.052Q247.458 351.968 247.301 351.891Q247.145 351.814 246.984 351.745Q246.824 351.675 246.66 351.614Q246.496 351.553 246.33 351.5Q246.163 351.447 245.994 351.402Q245.825 351.357 245.654 351.321Q245.483 351.285 245.311 351.257Q245.138 351.229 244.965 351.21Q244.791 351.19 244.617 351.18Q244.442 351.169 244.267 351.167Q244.093 351.164 243.918 351.171Q243.743 351.177 243.569 351.192Q243.395 351.208 243.222 351.231Q243.049 351.255 242.877 351.287Z"/>
	<path fill="#789694" transform="scale(1.33333 1.33333)" d="M402.827 267.417C404.024 266.191 405.001 265.697 406.66 265.28C415.32 266.101 411.085 282.572 404.752 284.131C396.094 283.314 401.558 273.521 402.827 267.417Z"/>
	<path fill="#789694" transform="scale(1.33333 1.33333)" d="M370.878 305.448C365.444 305.807 364.43 299.039 369.119 296.916C371.346 295.908 376.512 296.158 379.697 295.258C383.687 294.131 387.169 291.427 391.122 290.549C395.492 291.078 397.003 296.151 393.509 299.077C387.601 304.026 378.494 306.064 370.878 305.448Z"/>
	<path fill="#789694" transform="scale(1.33333 1.33333)" d="M291.635 386.601C289.838 381.786 288.783 370.343 296.45 373.843C301.391 376.099 295.974 385.353 309.893 391.217C317.73 394.519 326.969 394 334.73 390.761C350.539 384.163 343.098 375.051 349.251 372.646L349.539 372.537C356.753 371.959 355.444 380.035 353.83 384.601C346.227 406.116 302.795 410.002 291.635 386.601Z"/>
</svg>
