<?xml version="1.0" encoding="utf-8" ?>
<svg xmlns="http://www.w3.org/2000/svg" xmlns:xlink="http://www.w3.org/1999/xlink" width="683" height="683">
	<path fill="#789694" transform="scale(1.33333 1.33333)" d="M202.454 119.009C184.027 112.198 184.358 87.4981 204.443 84.3316C225.04 81.9893 233.218 109.921 211.291 119.009C211.672 123.662 211.304 128.592 211.301 133.284L211.291 163.056L301.015 163.056L301.015 119.009C285.088 114.272 282.275 92.2453 298.077 85.6028C319.431 76.6269 334.221 109.714 309.801 119.009L309.801 163.056L315.315 163.04C337.524 163.012 339.533 171.199 339.528 191.247L339.517 212.292L374.242 212.292C377.78 208.243 388.216 199.471 392.459 196.611C396.956 179.891 412.886 172.935 423.833 186.925C437.47 204.354 410.869 227.726 394.754 205.909C388.81 210.731 383.134 216.028 377.551 221.264L339.517 221.264L339.517 250.719L372.68 250.719C381.655 225.716 416.536 244.433 404.209 264.443C396.315 277.258 376.11 275.243 372.68 259.694C361.631 259.697 350.564 259.538 339.517 259.694L339.517 291.48L377.551 291.48C383.171 295.914 388.373 300.986 393.915 305.56C411.663 282.205 438.066 308.248 422.804 325.354C414.866 334.25 399.741 332.443 394.282 321.692C393.269 319.697 393.047 317.643 391.478 315.957C387.114 311.266 379.282 305.123 374.242 300.521L339.517 300.521L339.618 327.767C339.724 346.96 324.915 348.822 309.801 348.823C309.571 363.385 309.798 377.992 309.801 392.558C314.607 394.317 317.731 396.724 320.813 400.799C328.51 417.72 314.271 432.755 298.662 426.102C283.773 419.756 283.819 398.816 301.015 392.558L301.015 348.823L211.291 348.823L211.291 392.558C236.313 401.494 220.069 436.417 198.274 425.066C183.484 417.364 187.667 396.956 202.454 392.558L202.454 348.823L190.858 348.844C166.809 348.856 165.259 339.203 165.264 317.797L165.271 293.714L147.207 293.714C138.355 301.961 131.036 313.191 119.542 316.456L119.309 317.409C115.235 333.502 94.5172 336.323 86.7081 322.584C75.5766 302.999 105.618 283.902 118.429 307.306C124.302 303.629 125.32 302.351 130.275 297.372C146.791 280.777 141.317 284.491 165.271 284.542L165.271 260.99L142.567 260.996C139.32 260.998 129.211 261.863 126.577 260.123C123.307 257.962 124.764 252.598 128.516 252.08C132.24 251.566 136.508 251.976 140.283 251.979L165.271 251.994L165.271 227.675C158.015 227.665 150.684 227.95 143.44 227.675C135.154 220.877 127.122 211.307 118.429 205.249C99.9243 229.957 75.8295 203.962 88.0473 187.34C97.1269 174.987 117.281 179.732 119.542 196.611C125.896 197.817 141.507 213.634 147.207 218.548L165.271 218.548L165.275 194.002C165.248 172.508 166.345 162.987 190.591 163.032L202.454 163.056L202.454 119.009ZM205.189 93.4083Q204.984 93.4451 204.782 93.4919Q204.58 93.5387 204.38 93.5953Q204.18 93.652 203.983 93.7184Q203.786 93.7847 203.593 93.8607Q203.399 93.9367 203.21 94.022Q203.02 94.1074 202.835 94.2019Q202.65 94.2965 202.47 94.4Q202.29 94.5035 202.115 94.6157Q201.94 94.7279 201.771 94.8486Q201.602 94.9692 201.439 95.0981Q201.276 95.2269 201.119 95.3635Q200.963 95.5002 200.813 95.6443Q200.663 95.7885 200.521 95.9398Q200.378 96.0912 200.244 96.2493Q200.109 96.4074 199.982 96.572Q199.855 96.7365 199.736 96.9071Q199.618 97.0776 199.508 97.2538Q199.397 97.43 199.296 97.6114Q199.195 97.7928 199.102 97.9789Q199.01 98.165 198.927 98.3555Q198.844 98.5459 198.77 98.7402Q198.696 98.9345 198.632 99.1321Q198.568 99.3298 198.514 99.5304Q198.46 99.7309 198.415 99.9339Q198.371 100.137 198.336 100.342Q198.302 100.547 198.278 100.753Q198.253 100.96 198.239 101.167Q198.225 101.374 198.221 101.582Q198.217 101.79 198.223 101.997Q198.23 102.205 198.246 102.412Q198.262 102.619 198.289 102.825Q198.315 103.031 198.352 103.236Q198.389 103.441 198.435 103.643Q198.482 103.846 198.538 104.045Q198.595 104.245 198.661 104.442Q198.727 104.639 198.803 104.833Q198.879 105.026 198.964 105.216Q199.049 105.405 199.143 105.59Q199.238 105.776 199.341 105.956Q199.444 106.136 199.557 106.311Q199.669 106.486 199.789 106.655Q199.91 106.825 200.038 106.988Q200.167 107.151 200.303 107.308Q200.44 107.464 200.584 107.614Q200.728 107.764 200.879 107.906Q201.03 108.049 201.188 108.184Q201.346 108.319 201.511 108.446Q201.675 108.573 201.846 108.692Q202.016 108.81 202.192 108.921Q202.368 109.031 202.549 109.133Q202.731 109.234 202.917 109.327Q203.103 109.419 203.293 109.503Q203.484 109.586 203.678 109.66Q203.872 109.734 204.07 109.798Q204.267 109.862 204.468 109.917Q204.668 109.971 204.871 110.016Q205.074 110.06 205.279 110.095Q205.484 110.13 205.69 110.154Q205.896 110.178 206.104 110.193Q206.311 110.207 206.519 110.211Q206.727 110.216 206.934 110.21Q207.142 110.203 207.349 110.187Q207.556 110.171 207.762 110.145Q207.968 110.118 208.173 110.082Q208.378 110.046 208.581 109.999Q208.783 109.953 208.984 109.896Q209.184 109.84 209.381 109.774Q209.578 109.708 209.772 109.632Q209.966 109.556 210.156 109.471Q210.346 109.386 210.531 109.292Q210.717 109.197 210.897 109.094Q211.078 108.99 211.253 108.878Q211.428 108.766 211.598 108.646Q211.767 108.525 211.931 108.396Q212.094 108.268 212.251 108.131Q212.408 107.994 212.558 107.85Q212.708 107.706 212.851 107.555Q212.993 107.403 213.129 107.245Q213.264 107.087 213.391 106.922Q213.518 106.758 213.637 106.587Q213.756 106.416 213.867 106.24Q213.977 106.064 214.079 105.882Q214.18 105.701 214.273 105.514Q214.366 105.328 214.449 105.137Q214.532 104.947 214.606 104.752Q214.68 104.558 214.744 104.36Q214.809 104.162 214.863 103.961Q214.918 103.76 214.962 103.557Q215.007 103.354 215.041 103.149Q215.076 102.944 215.1 102.737Q215.125 102.53 215.139 102.323Q215.153 102.115 215.157 101.907Q215.161 101.699 215.155 101.491Q215.149 101.283 215.132 101.076Q215.116 100.868 215.089 100.662Q215.063 100.456 215.026 100.251Q214.989 100.046 214.943 99.8435Q214.896 99.6408 214.839 99.4406Q214.783 99.2404 214.717 99.0432Q214.65 98.846 214.574 98.6524Q214.498 98.4587 214.413 98.269Q214.328 98.0792 214.233 97.8939Q214.139 97.7086 214.035 97.5282Q213.931 97.3478 213.819 97.1726Q213.707 96.9975 213.586 96.8281Q213.465 96.6587 213.337 96.4954Q213.208 96.3321 213.071 96.1754Q212.934 96.0186 212.79 95.8688Q212.645 95.7189 212.494 95.5764Q212.342 95.4338 212.184 95.2988Q212.026 95.1638 211.861 95.0368Q211.696 94.9098 211.526 94.791Q211.355 94.6722 211.178 94.5619Q211.002 94.4517 210.82 94.3502Q210.639 94.2487 210.452 94.1563Q210.266 94.0638 210.075 93.9807Q209.885 93.8975 209.69 93.8238Q209.496 93.7501 209.298 93.686Q209.1 93.6219 208.899 93.5677Q208.698 93.5134 208.495 93.469Q208.292 93.4247 208.086 93.3904Q207.881 93.3561 207.675 93.3319Q207.468 93.3077 207.26 93.2936Q207.053 93.2796 206.845 93.2758Q206.637 93.2719 206.429 93.2783Q206.221 93.2847 206.014 93.3013Q205.806 93.3179 205.6 93.3447Q205.394 93.3715 205.189 93.4083ZM303.872 93.4015Q303.663 93.4291 303.456 93.467Q303.249 93.5048 303.044 93.5528Q302.839 93.6008 302.636 93.6588Q302.434 93.7168 302.235 93.7846Q302.035 93.8525 301.839 93.93Q301.644 94.0076 301.452 94.0947Q301.26 94.1817 301.073 94.2781Q300.886 94.3745 300.703 94.48Q300.521 94.5855 300.344 94.6998Q300.167 94.8141 299.996 94.9369Q299.825 95.0597 299.66 95.1908Q299.496 95.3219 299.337 95.461Q299.179 95.6 299.028 95.7466Q298.877 95.8932 298.733 96.0471Q298.589 96.201 298.453 96.3617Q298.317 96.5224 298.189 96.6897Q298.061 96.8569 297.941 97.0302Q297.822 97.2035 297.711 97.3825Q297.6 97.5615 297.498 97.7457Q297.396 97.9299 297.303 98.1189Q297.21 98.3079 297.126 98.5012Q297.043 98.6945 296.969 98.8917Q296.895 99.0889 296.831 99.2895Q296.767 99.4901 296.713 99.6936Q296.658 99.8971 296.614 100.103Q296.57 100.309 296.536 100.517Q296.502 100.725 296.478 100.934Q296.455 101.143 296.441 101.353Q296.428 101.563 296.425 101.774Q296.422 101.985 296.429 102.195Q296.436 102.406 296.454 102.615Q296.471 102.825 296.499 103.034Q296.527 103.243 296.565 103.45Q296.603 103.657 296.651 103.862Q296.699 104.067 296.758 104.269Q296.816 104.472 296.884 104.671Q296.952 104.871 297.03 105.066Q297.107 105.262 297.195 105.454Q297.282 105.645 297.379 105.832Q297.475 106.02 297.581 106.202Q297.687 106.384 297.801 106.561Q297.915 106.738 298.039 106.908Q298.162 107.079 298.293 107.244Q298.424 107.409 298.563 107.567Q298.703 107.725 298.849 107.876Q298.996 108.027 299.15 108.171Q299.304 108.314 299.465 108.45Q299.626 108.586 299.793 108.714Q299.961 108.842 300.134 108.961Q300.308 109.081 300.487 109.191Q300.666 109.302 300.85 109.404Q301.035 109.506 301.224 109.599Q301.413 109.691 301.606 109.775Q301.8 109.858 301.997 109.932Q302.194 110.005 302.395 110.069Q302.596 110.133 302.799 110.187Q303.003 110.241 303.209 110.285Q303.415 110.329 303.623 110.363Q303.83 110.396 304.04 110.42Q304.249 110.443 304.459 110.457Q304.669 110.47 304.88 110.473Q305.091 110.476 305.301 110.468Q305.512 110.461 305.721 110.443Q305.931 110.425 306.14 110.397Q306.348 110.369 306.555 110.331Q306.762 110.293 306.967 110.244Q307.172 110.196 307.374 110.138Q307.576 110.079 307.775 110.011Q307.974 109.943 308.169 109.865Q308.365 109.787 308.556 109.7Q308.747 109.613 308.934 109.516Q309.121 109.42 309.303 109.314Q309.485 109.208 309.661 109.094Q309.838 108.98 310.008 108.857Q310.179 108.734 310.343 108.602Q310.508 108.471 310.666 108.332Q310.823 108.193 310.974 108.047Q311.125 107.9 311.268 107.746Q311.412 107.592 311.547 107.432Q311.683 107.271 311.811 107.104Q311.938 106.937 312.058 106.763Q312.177 106.59 312.288 106.411Q312.398 106.232 312.5 106.048Q312.602 105.864 312.694 105.675Q312.787 105.487 312.87 105.293Q312.954 105.1 313.027 104.903Q313.101 104.706 313.165 104.506Q313.229 104.306 313.283 104.102Q313.337 103.899 313.381 103.693Q313.425 103.488 313.459 103.28Q313.492 103.072 313.516 102.863Q313.54 102.654 313.553 102.445Q313.566 102.235 313.569 102.024Q313.573 101.814 313.565 101.604Q313.558 101.394 313.54 101.184Q313.523 100.974 313.495 100.766Q313.467 100.558 313.429 100.351Q313.391 100.144 313.343 99.9391Q313.295 99.7344 313.237 99.5322Q313.179 99.3301 313.111 99.1311Q313.043 98.932 312.965 98.7366Q312.888 98.5411 312.801 98.3497Q312.713 98.1582 312.617 97.9713Q312.521 97.7844 312.415 97.6024Q312.31 97.4205 312.195 97.2439Q312.081 97.0673 311.959 96.8965Q311.836 96.7258 311.705 96.5612Q311.574 96.3967 311.435 96.2387Q311.296 96.0808 311.15 95.9299Q311.003 95.779 310.849 95.6354Q310.696 95.4918 310.535 95.356Q310.375 95.2201 310.208 95.0923Q310.041 94.9645 309.867 94.845Q309.694 94.7255 309.516 94.6147Q309.337 94.5039 309.153 94.4019Q308.969 94.3 308.78 94.2072Q308.592 94.1143 308.398 94.0309Q308.205 93.9475 308.009 93.8736Q307.812 93.7997 307.611 93.7356Q307.411 93.6715 307.208 93.6172Q307.005 93.563 306.799 93.5188Q306.593 93.4746 306.386 93.4406Q306.178 93.4065 305.969 93.3826Q305.76 93.3588 305.551 93.3452Q305.341 93.3316 305.13 93.3284Q304.92 93.3251 304.71 93.3322Q304.5 93.3392 304.29 93.3566Q304.081 93.3739 303.872 93.4015ZM185.436 172.009C172.829 172.787 174.35 182.195 174.393 191.503L174.398 323.391C174.397 328.582 173.644 333.741 178.232 337.395C183.568 341.644 199.026 339.869 205.664 339.867L296.153 339.859C304.135 339.861 312.951 340.269 320.813 339.857C332.45 337.854 330.691 326.242 330.664 317.482L330.673 196.716C330.688 173.028 333.524 171.976 306.909 171.991L218.1 172.017C207.219 172.017 196.315 172.165 185.436 172.009ZM408.529 189.122Q408.258 189.174 407.991 189.243Q407.723 189.312 407.461 189.399Q407.199 189.486 406.944 189.59Q406.688 189.694 406.44 189.815Q406.191 189.936 405.951 190.073Q405.712 190.21 405.481 190.362Q405.251 190.514 405.032 190.682Q404.812 190.849 404.604 191.03Q404.396 191.212 404.2 191.407Q404.005 191.601 403.822 191.809Q403.64 192.016 403.472 192.235Q403.303 192.454 403.15 192.683Q402.997 192.913 402.859 193.152Q402.721 193.391 402.599 193.639Q402.477 193.887 402.372 194.142Q402.267 194.397 402.179 194.659Q402.091 194.921 402.02 195.188Q401.95 195.454 401.897 195.725Q401.844 195.996 401.81 196.27Q401.775 196.544 401.758 196.82Q401.742 197.095 401.743 197.371Q401.745 197.647 401.765 197.923Q401.785 198.198 401.823 198.471Q401.861 198.745 401.917 199.015Q401.973 199.286 402.047 199.552Q402.121 199.818 402.212 200.078Q402.303 200.339 402.412 200.593Q402.52 200.847 402.645 201.093Q402.769 201.339 402.91 201.577Q403.051 201.814 403.207 202.042Q403.363 202.269 403.534 202.486Q403.705 202.703 403.89 202.908Q404.075 203.113 404.273 203.305Q404.471 203.498 404.681 203.677Q404.892 203.856 405.113 204.02Q405.335 204.185 405.567 204.334Q405.799 204.484 406.04 204.618Q406.282 204.752 406.532 204.869Q406.781 204.987 407.038 205.088Q407.295 205.189 407.559 205.273Q407.822 205.356 408.09 205.422Q408.358 205.489 408.63 205.537Q408.901 205.585 409.176 205.615Q409.45 205.645 409.726 205.657Q410.002 205.669 410.278 205.663Q410.554 205.657 410.829 205.632Q411.104 205.608 411.377 205.565Q411.65 205.523 411.919 205.462Q412.117 205.418 412.312 205.364Q412.508 205.31 412.7 205.246Q412.893 205.183 413.082 205.11Q413.271 205.037 413.456 204.955Q413.642 204.874 413.823 204.783Q414.004 204.692 414.181 204.593Q414.358 204.493 414.529 204.386Q414.701 204.278 414.867 204.162Q415.033 204.046 415.194 203.922Q415.354 203.798 415.508 203.666Q415.662 203.534 415.81 203.395Q415.957 203.256 416.098 203.11Q416.239 202.964 416.372 202.812Q416.505 202.659 416.631 202.5Q416.757 202.341 416.875 202.177Q416.993 202.012 417.103 201.841Q417.213 201.671 417.314 201.495Q417.416 201.32 417.508 201.14Q417.601 200.96 417.685 200.775Q417.769 200.591 417.844 200.402Q417.919 200.214 417.984 200.022Q418.05 199.83 418.106 199.635Q418.162 199.441 418.209 199.244Q418.256 199.046 418.293 198.847Q418.33 198.648 418.357 198.447Q418.385 198.246 418.402 198.044Q418.42 197.842 418.428 197.64Q418.436 197.437 418.433 197.234Q418.431 197.032 418.419 196.829Q418.408 196.627 418.386 196.425Q418.364 196.224 418.333 196.024Q418.301 195.823 418.26 195.625Q418.219 195.427 418.168 195.23Q418.117 195.034 418.057 194.84Q417.997 194.647 417.927 194.457Q417.858 194.266 417.779 194.079Q417.7 193.893 417.613 193.71Q417.525 193.527 417.428 193.349Q417.332 193.171 417.227 192.997Q417.122 192.824 417.009 192.656Q416.895 192.488 416.774 192.325Q416.653 192.163 416.524 192.007Q416.395 191.85 416.258 191.7Q416.122 191.551 415.978 191.407Q415.834 191.264 415.684 191.129Q415.533 190.993 415.377 190.864Q415.22 190.736 415.057 190.615Q414.894 190.494 414.726 190.382Q414.557 190.269 414.383 190.165Q414.209 190.06 414.031 189.965Q413.852 189.869 413.669 189.782Q413.486 189.695 413.299 189.617Q413.112 189.539 412.921 189.47Q412.73 189.402 412.537 189.342Q412.343 189.283 412.146 189.233Q411.95 189.183 411.751 189.142Q411.553 189.102 411.352 189.071Q411.152 189.04 410.95 189.02Q410.749 188.999 410.546 188.988Q410.344 188.976 410.141 188.975Q409.938 188.974 409.736 188.982Q409.533 188.991 409.331 189.009Q409.13 189.028 408.929 189.056Q408.728 189.084 408.529 189.122ZM100.759 189.582Q100.561 189.613 100.364 189.654Q100.168 189.695 99.9732 189.746Q99.7789 189.796 99.5872 189.856Q99.3956 189.916 99.2071 189.985Q99.0186 190.055 98.8337 190.133Q98.6487 190.211 98.4679 190.298Q98.287 190.385 98.1105 190.481Q97.9341 190.577 97.7626 190.681Q97.591 190.786 97.4248 190.898Q97.2585 191.011 97.0979 191.131Q96.9373 191.252 96.7828 191.38Q96.6282 191.508 96.4801 191.644Q96.332 191.78 96.1907 191.922Q96.0493 192.065 95.9151 192.214Q95.7809 192.363 95.6541 192.519Q95.5273 192.675 95.4082 192.837Q95.2892 192.998 95.1781 193.165Q95.067 193.333 94.9643 193.505Q94.8615 193.678 94.7672 193.855Q94.673 194.032 94.5874 194.214Q94.5019 194.396 94.4253 194.581Q94.3488 194.767 94.2813 194.956Q94.2139 195.145 94.1557 195.337Q94.0975 195.53 94.0488 195.724Q94.0001 195.919 93.9609 196.116Q93.9217 196.313 93.8921 196.512Q93.8625 196.71 93.8427 196.91Q93.8228 197.11 93.8127 197.31Q93.8026 197.511 93.8022 197.712Q93.8019 197.912 93.8113 198.113Q93.8207 198.314 93.8399 198.513Q93.8591 198.713 93.888 198.912Q93.9169 199.111 93.9554 199.308Q93.994 199.505 94.042 199.7Q94.0901 199.895 94.1476 200.087Q94.2051 200.279 94.2719 200.469Q94.3387 200.658 94.4147 200.844Q94.4906 201.03 94.5755 201.212Q94.6604 201.394 94.7541 201.571Q94.8477 201.749 94.9499 201.922Q95.0521 202.095 95.1626 202.262Q95.273 202.43 95.3915 202.592Q95.5101 202.754 95.6363 202.91Q95.7626 203.066 95.8963 203.216Q96.03 203.366 96.1708 203.509Q96.3117 203.652 96.4593 203.788Q96.6069 203.924 96.761 204.053Q96.9151 204.182 97.0753 204.303Q97.2354 204.424 97.4013 204.537Q97.5672 204.65 97.7384 204.755Q97.9096 204.86 98.0857 204.957Q98.2617 205.053 98.4423 205.141Q98.6229 205.229 98.8075 205.307Q98.9922 205.386 99.1804 205.456Q99.3687 205.526 99.5601 205.587Q99.7515 205.647 99.9457 205.698Q100.14 205.749 100.336 205.791Q100.533 205.833 100.731 205.865Q100.929 205.897 101.129 205.919Q101.328 205.942 101.529 205.954Q101.729 205.967 101.93 205.97Q102.13 205.973 102.331 205.966Q102.532 205.959 102.732 205.942Q102.932 205.925 103.131 205.899Q103.401 205.863 103.667 205.81Q103.934 205.756 104.197 205.685Q104.459 205.614 104.717 205.526Q104.974 205.438 105.225 205.333Q105.476 205.228 105.72 205.107Q105.963 204.986 106.198 204.849Q106.433 204.712 106.659 204.56Q106.884 204.408 107.099 204.241Q107.314 204.074 107.518 203.894Q107.721 203.713 107.913 203.52Q108.104 203.326 108.282 203.12Q108.46 202.915 108.624 202.698Q108.788 202.481 108.937 202.253Q109.087 202.026 109.221 201.789Q109.355 201.552 109.473 201.307Q109.591 201.062 109.693 200.81Q109.795 200.558 109.88 200.299Q109.965 200.041 110.032 199.777Q110.1 199.514 110.15 199.246Q110.2 198.979 110.233 198.709Q110.265 198.439 110.28 198.167Q110.295 197.895 110.291 197.623Q110.288 197.351 110.267 197.08Q110.245 196.809 110.206 196.54Q110.167 196.27 110.11 196.004Q110.053 195.738 109.979 195.477Q109.905 195.215 109.814 194.959Q109.723 194.702 109.615 194.453Q109.507 194.203 109.382 193.961Q109.258 193.719 109.118 193.485Q108.978 193.252 108.823 193.029Q108.668 192.805 108.499 192.592Q108.33 192.379 108.147 192.178Q107.963 191.977 107.768 191.788Q107.572 191.599 107.364 191.424Q107.156 191.248 106.937 191.087Q106.718 190.926 106.488 190.779Q106.259 190.632 106.021 190.501Q105.782 190.37 105.536 190.255Q105.289 190.14 105.036 190.041Q104.782 189.943 104.523 189.861Q104.263 189.779 103.999 189.715Q103.734 189.651 103.466 189.604Q103.198 189.557 102.928 189.528Q102.657 189.499 102.385 189.488Q102.114 189.477 101.842 189.483Q101.57 189.49 101.299 189.515Q101.028 189.539 100.759 189.582ZM387.982 247.86Q387.783 247.891 387.586 247.933Q387.389 247.974 387.194 248.024Q386.999 248.075 386.807 248.136Q386.615 248.196 386.426 248.266Q386.238 248.335 386.052 248.414Q385.867 248.493 385.686 248.581Q385.505 248.669 385.328 248.766Q385.152 248.863 384.98 248.968Q384.809 249.073 384.643 249.187Q384.476 249.301 384.316 249.422Q384.156 249.544 384.001 249.673Q383.847 249.803 383.7 249.94Q383.552 250.077 383.411 250.221Q383.271 250.365 383.137 250.515Q383.004 250.666 382.878 250.823Q382.752 250.98 382.634 251.144Q382.516 251.307 382.406 251.475Q382.297 251.644 382.195 251.818Q382.094 251.992 382.001 252.171Q381.909 252.35 381.825 252.533Q381.741 252.716 381.667 252.903Q381.592 253.09 381.527 253.28Q381.461 253.471 381.405 253.664Q381.35 253.857 381.303 254.053Q381.257 254.249 381.22 254.447Q381.184 254.645 381.157 254.845Q381.13 255.044 381.114 255.245Q381.097 255.445 381.09 255.647Q381.083 255.848 381.086 256.049Q381.088 256.25 381.101 256.451Q381.114 256.652 381.137 256.852Q381.159 257.052 381.192 257.251Q381.225 257.45 381.267 257.647Q381.309 257.843 381.361 258.038Q381.413 258.232 381.474 258.424Q381.536 258.616 381.607 258.804Q381.677 258.993 381.757 259.177Q381.837 259.362 381.926 259.543Q382.015 259.723 382.113 259.899Q382.211 260.075 382.317 260.246Q382.423 260.417 382.538 260.583Q382.653 260.748 382.775 260.908Q382.898 261.067 383.028 261.221Q383.158 261.374 383.296 261.521Q383.434 261.668 383.579 261.808Q383.723 261.948 383.875 262.08Q384.026 262.213 384.184 262.338Q384.342 262.463 384.506 262.58Q384.67 262.697 384.839 262.805Q385.008 262.914 385.183 263.015Q385.357 263.115 385.537 263.207Q385.716 263.298 385.9 263.381Q386.083 263.464 386.27 263.537Q386.458 263.611 386.649 263.675Q386.839 263.739 387.033 263.794Q387.227 263.849 387.423 263.894Q387.619 263.939 387.817 263.974Q388.016 264.01 388.215 264.035Q388.415 264.061 388.616 264.077Q388.816 264.093 389.017 264.098Q389.219 264.104 389.42 264.1Q389.621 264.096 389.822 264.082Q390.023 264.068 390.223 264.044Q390.423 264.021 390.621 263.987Q390.818 263.954 391.013 263.911Q391.208 263.868 391.401 263.815Q391.594 263.763 391.784 263.701Q391.974 263.639 392.161 263.568Q392.348 263.497 392.531 263.417Q392.714 263.337 392.893 263.248Q393.072 263.159 393.246 263.061Q393.421 262.964 393.59 262.858Q393.76 262.752 393.924 262.637Q394.088 262.523 394.246 262.401Q394.404 262.279 394.556 262.15Q394.708 262.02 394.854 261.883Q395 261.746 395.138 261.602Q395.277 261.458 395.409 261.308Q395.54 261.157 395.664 261.001Q395.788 260.844 395.904 260.681Q396.021 260.519 396.129 260.351Q396.237 260.183 396.336 260.009Q396.436 259.836 396.527 259.658Q396.619 259.48 396.701 259.298Q396.783 259.116 396.857 258.93Q396.93 258.744 396.994 258.555Q397.058 258.366 397.113 258.174Q397.168 257.982 397.214 257.787Q397.259 257.592 397.295 257.396Q397.331 257.199 397.357 257.001Q397.383 256.803 397.399 256.604Q397.416 256.404 397.423 256.205Q397.429 256.005 397.426 255.805Q397.423 255.605 397.41 255.406Q397.397 255.206 397.375 255.008Q397.352 254.809 397.32 254.612Q397.288 254.415 397.246 254.219Q397.204 254.024 397.153 253.831Q397.101 253.638 397.041 253.447Q396.98 253.257 396.91 253.07Q396.84 252.882 396.761 252.699Q396.682 252.515 396.594 252.336Q396.506 252.156 396.409 251.981Q396.312 251.806 396.207 251.636Q396.102 251.466 395.989 251.301Q395.876 251.137 395.755 250.978Q395.634 250.819 395.505 250.666Q395.376 250.513 395.24 250.367Q395.104 250.22 394.961 250.081Q394.818 249.941 394.668 249.809Q394.518 249.677 394.362 249.552Q394.206 249.427 394.044 249.31Q393.882 249.193 393.714 249.083Q393.547 248.974 393.374 248.874Q393.202 248.773 393.024 248.681Q392.847 248.589 392.665 248.505Q392.484 248.422 392.298 248.347Q392.113 248.273 391.924 248.208Q391.735 248.143 391.543 248.087Q391.351 248.031 391.157 247.984Q390.962 247.938 390.766 247.901Q390.569 247.864 390.371 247.837Q390.173 247.809 389.974 247.792Q389.775 247.774 389.575 247.766Q389.376 247.758 389.176 247.76Q388.976 247.762 388.776 247.774Q388.577 247.786 388.378 247.807Q388.179 247.829 387.982 247.86ZM409.09 305.425Q408.885 305.442 408.681 305.468Q408.477 305.495 408.274 305.531Q408.072 305.568 407.871 305.614Q407.671 305.66 407.473 305.716Q407.275 305.773 407.08 305.838Q406.885 305.904 406.694 305.979Q406.502 306.054 406.315 306.139Q406.127 306.223 405.944 306.317Q405.76 306.411 405.582 306.513Q405.404 306.615 405.23 306.726Q405.057 306.837 404.89 306.957Q404.722 307.076 404.56 307.204Q404.399 307.331 404.244 307.466Q404.089 307.602 403.94 307.744Q403.792 307.887 403.651 308.036Q403.51 308.186 403.376 308.343Q403.243 308.499 403.117 308.662Q402.991 308.825 402.873 308.993Q402.756 309.162 402.646 309.336Q402.537 309.511 402.436 309.69Q402.336 309.87 402.244 310.054Q402.152 310.238 402.07 310.426Q401.987 310.615 401.914 310.807Q401.84 310.999 401.777 311.195Q401.713 311.391 401.659 311.589Q401.605 311.788 401.56 311.988Q401.516 312.189 401.481 312.392Q401.447 312.595 401.422 312.799Q401.398 313.004 401.383 313.209Q401.369 313.414 401.364 313.62Q401.36 313.826 401.366 314.031Q401.371 314.237 401.387 314.442Q401.403 314.647 401.428 314.851Q401.454 315.055 401.49 315.258Q401.526 315.461 401.571 315.661Q401.617 315.862 401.672 316.06Q401.727 316.258 401.792 316.453Q401.857 316.648 401.932 316.84Q402.006 317.032 402.09 317.22Q402.174 317.408 402.266 317.591Q402.359 317.775 402.461 317.954Q402.563 318.133 402.673 318.306Q402.783 318.48 402.902 318.648Q403.021 318.816 403.147 318.978Q403.274 319.14 403.409 319.296Q403.543 319.451 403.685 319.6Q403.827 319.749 403.976 319.891Q404.126 320.033 404.281 320.167Q404.437 320.301 404.6 320.428Q404.762 320.554 404.93 320.672Q405.098 320.791 405.272 320.901Q405.446 321.011 405.625 321.112Q405.804 321.214 405.988 321.306Q406.172 321.399 406.36 321.482Q406.548 321.565 406.74 321.639Q406.932 321.713 407.127 321.778Q407.322 321.843 407.521 321.898Q407.719 321.953 407.919 321.998Q408.12 322.043 408.323 322.078Q408.526 322.114 408.73 322.139Q408.934 322.164 409.139 322.18Q409.344 322.195 409.55 322.2Q409.755 322.205 409.961 322.201Q410.167 322.196 410.372 322.181Q410.578 322.166 410.784 322.141Q410.989 322.116 411.193 322.081Q411.396 322.046 411.598 322.001Q411.8 321.955 411.999 321.9Q412.199 321.845 412.395 321.781Q412.592 321.716 412.785 321.642Q412.978 321.567 413.167 321.484Q413.356 321.4 413.541 321.307Q413.725 321.214 413.905 321.112Q414.085 321.01 414.26 320.899Q414.435 320.789 414.604 320.67Q414.773 320.551 414.936 320.423Q415.099 320.296 415.255 320.161Q415.412 320.026 415.562 319.883Q415.711 319.741 415.854 319.591Q415.996 319.441 416.131 319.284Q416.266 319.127 416.393 318.964Q416.521 318.801 416.639 318.632Q416.758 318.463 416.869 318.288Q416.979 318.113 417.081 317.933Q417.183 317.753 417.275 317.568Q417.368 317.383 417.452 317.194Q417.535 317.005 417.609 316.812Q417.684 316.619 417.748 316.422Q417.813 316.226 417.867 316.026Q417.922 315.827 417.967 315.625Q418.012 315.423 418.047 315.219Q418.082 315.015 418.107 314.81Q418.132 314.605 418.146 314.398Q418.161 314.192 418.165 313.985Q418.17 313.779 418.164 313.572Q418.159 313.365 418.143 313.159Q418.127 312.953 418.101 312.748Q418.075 312.542 418.039 312.339Q418.003 312.135 417.958 311.934Q417.912 311.732 417.856 311.533Q417.8 311.334 417.734 311.138Q417.669 310.941 417.594 310.749Q417.519 310.556 417.434 310.367Q417.35 310.179 417.256 309.994Q417.162 309.81 417.06 309.63Q416.957 309.451 416.846 309.276Q416.734 309.102 416.615 308.934Q416.495 308.765 416.367 308.603Q416.239 308.44 416.103 308.284Q415.967 308.128 415.824 307.979Q415.681 307.83 415.53 307.688Q415.38 307.546 415.223 307.412Q415.066 307.277 414.902 307.151Q414.738 307.025 414.569 306.906Q414.399 306.788 414.224 306.678Q414.048 306.569 413.868 306.468Q413.687 306.367 413.502 306.275Q413.317 306.183 413.127 306.1Q412.938 306.017 412.745 305.944Q412.551 305.871 412.354 305.807Q412.158 305.743 411.958 305.689Q411.758 305.635 411.556 305.591Q411.354 305.547 411.15 305.513Q410.947 305.479 410.741 305.455Q410.536 305.431 410.329 305.417Q410.123 305.403 409.916 305.399Q409.71 305.396 409.503 305.402Q409.296 305.408 409.09 305.425ZM100.41 305.886Q100.214 305.925 100.02 305.973Q99.8262 306.021 99.6349 306.079Q99.4435 306.137 99.2552 306.204Q99.067 306.271 98.8821 306.347Q98.6973 306.423 98.5164 306.507Q98.3355 306.592 98.159 306.686Q97.9824 306.779 97.8106 306.882Q97.6388 306.984 97.4722 307.094Q97.3055 307.204 97.1445 307.322Q96.9834 307.441 96.8283 307.567Q96.6731 307.693 96.5243 307.826Q96.3755 307.959 96.2333 308.1Q96.0911 308.24 95.956 308.387Q95.8208 308.534 95.693 308.688Q95.5651 308.842 95.4449 309.001Q95.3246 309.161 95.2123 309.326Q95.1 309.491 94.9958 309.662Q94.8917 309.832 94.7959 310.008Q94.7002 310.183 94.6131 310.363Q94.526 310.543 94.4477 310.727Q94.3695 310.911 94.3003 311.098Q94.231 311.286 94.171 311.476Q94.111 311.667 94.0603 311.86Q94.0096 312.053 93.9684 312.249Q93.9272 312.444 93.8955 312.642Q93.8639 312.839 93.8418 313.038Q93.8198 313.236 93.8074 313.436Q93.7951 313.635 93.7924 313.835Q93.7898 314.035 93.7969 314.234Q93.804 314.434 93.8208 314.633Q93.8376 314.832 93.864 315.03Q93.8905 315.228 93.9265 315.425Q93.9625 315.622 94.0081 315.816Q94.0536 316.011 94.1086 316.203Q94.1635 316.395 94.2278 316.584Q94.292 316.773 94.3653 316.959Q94.4387 317.145 94.521 317.327Q94.6033 317.509 94.6944 317.687Q94.7854 317.865 94.885 318.038Q94.9846 318.211 95.0925 318.379Q95.2004 318.548 95.3164 318.71Q95.4323 318.873 95.5561 319.03Q95.6798 319.187 95.811 319.338Q95.9422 319.488 96.0806 319.632Q96.219 319.776 96.3642 319.914Q96.5095 320.051 96.6612 320.181Q96.8129 320.311 96.9708 320.433Q97.1287 320.556 97.2923 320.671Q97.456 320.785 97.625 320.892Q97.794 320.998 97.968 321.097Q98.142 321.195 98.3206 321.284Q98.4992 321.374 98.6819 321.455Q98.8646 321.536 99.0511 321.608Q99.2375 321.68 99.4272 321.742Q99.6169 321.805 99.8095 321.858Q100.002 321.912 100.197 321.956Q100.392 322 100.589 322.034Q100.785 322.069 100.984 322.094Q101.182 322.118 101.381 322.134Q101.58 322.149 101.78 322.154Q101.98 322.16 102.18 322.156Q102.379 322.151 102.579 322.137Q102.778 322.123 102.977 322.1Q103.175 322.076 103.372 322.043Q103.64 321.998 103.904 321.935Q104.168 321.872 104.427 321.793Q104.686 321.713 104.94 321.616Q105.193 321.519 105.439 321.405Q105.686 321.292 105.924 321.162Q106.163 321.033 106.392 320.888Q106.622 320.743 106.841 320.583Q107.06 320.424 107.269 320.25Q107.477 320.076 107.673 319.889Q107.87 319.702 108.053 319.502Q108.237 319.302 108.407 319.091Q108.577 318.879 108.733 318.657Q108.888 318.435 109.029 318.203Q109.17 317.971 109.295 317.73Q109.42 317.489 109.529 317.241Q109.638 316.992 109.73 316.737Q109.822 316.482 109.897 316.221Q109.973 315.96 110.031 315.695Q110.088 315.43 110.129 315.162Q110.169 314.894 110.191 314.623Q110.214 314.353 110.218 314.082Q110.223 313.81 110.209 313.539Q110.196 313.268 110.165 312.999Q110.133 312.729 110.085 312.462Q110.036 312.196 109.969 311.932Q109.903 311.669 109.819 311.411Q109.735 311.153 109.635 310.901Q109.534 310.649 109.417 310.404Q109.3 310.16 109.168 309.923Q109.035 309.686 108.887 309.459Q108.738 309.232 108.576 309.015Q108.413 308.798 108.236 308.592Q108.059 308.386 107.869 308.192Q107.679 307.999 107.477 307.818Q107.275 307.637 107.061 307.47Q106.847 307.303 106.623 307.151Q106.398 306.998 106.164 306.861Q105.93 306.723 105.688 306.602Q105.445 306.48 105.195 306.375Q104.945 306.269 104.689 306.181Q104.433 306.092 104.171 306.02Q103.909 305.949 103.643 305.895Q103.377 305.841 103.109 305.804Q102.84 305.768 102.569 305.749Q102.298 305.73 102.027 305.73Q101.756 305.729 101.485 305.746Q101.214 305.763 100.945 305.798Q100.676 305.833 100.41 305.886ZM205.396 400.812Q205.186 400.836 204.976 400.87Q204.767 400.904 204.56 400.949Q204.353 400.993 204.148 401.047Q203.943 401.102 203.742 401.166Q203.54 401.23 203.341 401.304Q203.143 401.378 202.948 401.462Q202.753 401.545 202.563 401.638Q202.372 401.731 202.187 401.833Q202.001 401.935 201.821 402.046Q201.64 402.157 201.465 402.277Q201.29 402.396 201.122 402.524Q200.953 402.652 200.79 402.788Q200.628 402.924 200.472 403.068Q200.317 403.212 200.168 403.363Q200.02 403.514 199.879 403.673Q199.738 403.831 199.605 403.996Q199.472 404.161 199.347 404.332Q199.223 404.503 199.106 404.68Q198.99 404.857 198.882 405.039Q198.775 405.222 198.676 405.409Q198.577 405.597 198.488 405.789Q198.399 405.981 198.319 406.177Q198.239 406.374 198.169 406.573Q198.098 406.773 198.038 406.976Q197.977 407.179 197.927 407.385Q197.876 407.591 197.836 407.799Q197.795 408.007 197.765 408.217Q197.735 408.426 197.715 408.637Q197.695 408.848 197.685 409.06Q197.675 409.271 197.676 409.483Q197.676 409.695 197.687 409.907Q197.698 410.118 197.719 410.329Q197.74 410.54 197.771 410.749Q197.803 410.959 197.844 411.167Q197.886 411.374 197.937 411.58Q197.989 411.785 198.05 411.988Q198.112 412.191 198.183 412.39Q198.255 412.59 198.335 412.786Q198.416 412.981 198.507 413.173Q198.597 413.365 198.697 413.552Q198.796 413.739 198.905 413.921Q199.013 414.103 199.13 414.279Q199.248 414.456 199.373 414.626Q199.499 414.797 199.633 414.961Q199.767 415.125 199.908 415.283Q200.05 415.44 200.199 415.59Q200.348 415.741 200.505 415.884Q200.661 416.027 200.824 416.162Q200.987 416.297 201.157 416.424Q201.326 416.552 201.501 416.67Q201.677 416.789 201.858 416.899Q202.039 417.009 202.225 417.11Q202.411 417.212 202.602 417.304Q202.793 417.396 202.988 417.478Q203.183 417.561 203.382 417.634Q203.581 417.707 203.783 417.77Q203.985 417.833 204.19 417.886Q204.395 417.94 204.603 417.983Q204.81 418.026 205.019 418.059Q205.229 418.092 205.439 418.115Q205.65 418.138 205.861 418.151Q206.073 418.164 206.285 418.166Q206.497 418.168 206.708 418.16Q206.92 418.152 207.131 418.134Q207.417 418.109 207.701 418.066Q207.986 418.022 208.266 417.96Q208.547 417.898 208.823 417.817Q209.099 417.736 209.369 417.638Q209.639 417.539 209.901 417.423Q210.164 417.307 210.419 417.173Q210.674 417.04 210.919 416.89Q211.164 416.74 211.399 416.575Q211.634 416.409 211.857 416.228Q212.081 416.047 212.292 415.852Q212.503 415.657 212.701 415.448Q212.898 415.24 213.082 415.018Q213.265 414.797 213.434 414.564Q213.602 414.331 213.755 414.088Q213.908 413.845 214.044 413.591Q214.181 413.339 214.3 413.077Q214.419 412.815 214.521 412.547Q214.623 412.278 214.707 412.003Q214.791 411.728 214.857 411.448Q214.922 411.168 214.969 410.885Q215.016 410.601 215.044 410.315Q215.072 410.029 215.082 409.742Q215.091 409.454 215.081 409.167Q215.071 408.88 215.043 408.594Q215.014 408.308 214.967 408.024Q214.919 407.741 214.853 407.461Q214.787 407.181 214.703 406.906Q214.618 406.632 214.516 406.363Q214.414 406.094 214.294 405.833Q214.174 405.572 214.037 405.319Q213.9 405.066 213.747 404.823Q213.594 404.58 213.425 404.347Q213.256 404.114 213.072 403.893Q212.888 403.673 212.69 403.464Q212.492 403.256 212.281 403.061Q212.07 402.866 211.846 402.686Q211.622 402.505 211.387 402.34Q211.152 402.175 210.907 402.025Q210.661 401.876 210.406 401.743Q210.151 401.61 209.888 401.494Q209.625 401.378 209.355 401.28Q209.085 401.182 208.809 401.102Q208.533 401.022 208.252 400.96Q207.972 400.898 207.687 400.855Q207.403 400.812 207.117 400.787Q206.831 400.763 206.543 400.758Q206.256 400.752 205.969 400.766Q205.682 400.78 205.396 400.812ZM304.122 401.015Q303.903 401.049 303.686 401.094Q303.469 401.138 303.254 401.193Q303.04 401.249 302.828 401.314Q302.617 401.38 302.408 401.456Q302.2 401.532 301.996 401.618Q301.792 401.704 301.592 401.8Q301.393 401.896 301.198 402.002Q301.003 402.107 300.814 402.222Q300.624 402.338 300.441 402.462Q300.258 402.586 300.08 402.719Q299.903 402.852 299.733 402.994Q299.562 403.135 299.399 403.285Q299.236 403.435 299.08 403.593Q298.925 403.75 298.777 403.916Q298.629 404.081 298.49 404.253Q298.35 404.425 298.219 404.604Q298.088 404.783 297.966 404.968Q297.845 405.153 297.732 405.343Q297.619 405.534 297.516 405.73Q297.413 405.926 297.319 406.127Q297.226 406.328 297.142 406.533Q297.059 406.738 296.985 406.947Q296.912 407.156 296.849 407.369Q296.786 407.581 296.733 407.797Q296.681 408.012 296.639 408.229Q296.597 408.447 296.566 408.666Q296.535 408.886 296.514 409.106Q296.494 409.327 296.484 409.548Q296.475 409.77 296.476 409.991Q296.478 410.213 296.49 410.434Q296.502 410.655 296.525 410.876Q296.548 411.096 296.582 411.315Q296.616 411.534 296.66 411.751Q296.705 411.968 296.76 412.183Q296.815 412.397 296.881 412.609Q296.946 412.82 297.022 413.029Q297.098 413.237 297.184 413.441Q297.27 413.645 297.366 413.845Q297.462 414.044 297.568 414.239Q297.673 414.434 297.788 414.623Q297.903 414.813 298.028 414.996Q298.152 415.18 298.285 415.357Q298.418 415.534 298.559 415.704Q298.701 415.875 298.851 416.038Q299.001 416.201 299.158 416.357Q299.316 416.513 299.481 416.661Q299.646 416.808 299.818 416.948Q299.99 417.088 300.169 417.218Q300.348 417.349 300.532 417.471Q300.717 417.593 300.908 417.706Q301.099 417.819 301.295 417.922Q301.491 418.026 301.692 418.119Q301.892 418.213 302.098 418.296Q302.303 418.38 302.512 418.453Q302.721 418.527 302.933 418.59Q303.146 418.653 303.361 418.705Q303.576 418.758 303.794 418.8Q304.011 418.842 304.23 418.873Q304.45 418.904 304.67 418.925Q304.891 418.945 305.112 418.955Q305.334 418.965 305.555 418.963Q305.777 418.962 305.998 418.95Q306.219 418.938 306.44 418.915Q306.66 418.892 306.879 418.858Q307.098 418.824 307.315 418.78Q307.532 418.735 307.747 418.68Q307.962 418.625 308.173 418.559Q308.385 418.494 308.593 418.418Q308.802 418.342 309.006 418.256Q309.21 418.17 309.41 418.074Q309.61 417.978 309.805 417.873Q310 417.767 310.189 417.652Q310.378 417.537 310.562 417.413Q310.746 417.289 310.923 417.156Q311.1 417.023 311.271 416.881Q311.441 416.739 311.605 416.589Q311.768 416.44 311.924 416.282Q312.08 416.124 312.227 415.959Q312.375 415.794 312.515 415.622Q312.655 415.45 312.786 415.271Q312.917 415.092 313.039 414.907Q313.161 414.722 313.273 414.531Q313.386 414.341 313.49 414.145Q313.593 413.949 313.687 413.748Q313.78 413.547 313.864 413.341Q313.947 413.136 314.021 412.927Q314.094 412.718 314.157 412.505Q314.22 412.293 314.273 412.078Q314.326 411.862 314.368 411.645Q314.409 411.427 314.441 411.208Q314.472 410.988 314.492 410.767Q314.513 410.547 314.522 410.325Q314.532 410.104 314.531 409.882Q314.529 409.661 314.517 409.439Q314.505 409.218 314.482 408.998Q314.459 408.777 314.425 408.558Q314.391 408.339 314.347 408.122Q314.302 407.905 314.247 407.69Q314.192 407.475 314.126 407.264Q314.061 407.052 313.985 406.844Q313.909 406.635 313.823 406.431Q313.737 406.227 313.64 406.027Q313.544 405.827 313.439 405.632Q313.333 405.438 313.218 405.248Q313.103 405.059 312.979 404.875Q312.854 404.692 312.721 404.514Q312.588 404.337 312.446 404.167Q312.305 403.996 312.155 403.833Q312.005 403.669 311.847 403.514Q311.69 403.358 311.524 403.21Q311.359 403.062 311.187 402.923Q311.015 402.783 310.836 402.652Q310.657 402.521 310.472 402.399Q310.287 402.277 310.096 402.164Q309.905 402.052 309.709 401.948Q309.513 401.845 309.312 401.752Q309.111 401.658 308.906 401.575Q308.701 401.491 308.491 401.418Q308.282 401.344 308.07 401.281Q307.857 401.218 307.642 401.166Q307.427 401.113 307.209 401.071Q306.991 401.029 306.772 400.998Q306.552 400.967 306.332 400.947Q306.111 400.926 305.889 400.917Q305.668 400.907 305.446 400.909Q305.225 400.91 305.003 400.923Q304.782 400.935 304.562 400.958Q304.341 400.981 304.122 401.015Z"/>
	<path fill="#789694" transform="scale(1.33333 1.33333)" d="M229.712 244.478L229.679 232.71C229.646 216.093 234.429 203.583 252.826 201.087C272.115 198.417 281.997 214.487 282.041 231.937L282.035 244.478C288.877 244.466 292.168 243.954 292.233 251.731L292.241 282.405C292.228 302.139 293.582 313.134 269.963 313.027L259.972 312.988L238.047 313.004C217.519 312.859 219.447 298.647 219.461 283C219.47 272.501 219.344 261.995 219.448 251.498C219.528 243.419 222.628 244.394 229.712 244.478ZM255.533 209.846C240.985 211.254 238.705 220.752 238.729 233.298L238.75 244.478L256.625 244.478L273.067 244.478L273.08 233.518C273.075 221.062 270.098 210.377 255.533 209.846ZM228.47 253.247L228.461 283.156C228.462 290.032 225.723 302.413 235.225 303.944C239.965 304.708 247.524 304.128 252.556 304.116C258.97 304.101 275.652 305.904 280.7 301.979C285.102 297.093 283.353 289.26 283.343 283.216L283.325 253.247L228.47 253.247Z"/>
	<path fill="#789694" transform="scale(1.33333 1.33333)" d="M251.788 283.181C244.888 278.125 246.209 269.403 254.137 266.788C264.46 265.584 268.397 276.327 259.972 283.181C259.899 286.788 261.121 292.046 257.894 294.618C250.527 296.982 251.723 287.613 251.788 283.181Z"/>
</svg>
