<?xml version="1.0" encoding="utf-8" ?>
<svg xmlns="http://www.w3.org/2000/svg" xmlns:xlink="http://www.w3.org/1999/xlink" width="683" height="683">
	<path fill="#14115A" transform="scale(0.666667 0.666667)" d="M442.863 31.6405C444.601 31.5345 446.295 31.4749 448.027 31.7123C451.884 32.2411 455.288 33.7546 457.562 37.0189C459.56 39.8863 459.413 46.0514 459.493 49.4818C460.039 72.7883 459.488 96.1923 459.466 119.508L459.42 250.077L459.387 311.497C459.407 322.564 460.615 334.513 458.804 345.422C472.029 353.099 533.345 380.592 538.426 389.513C540.171 392.576 539.901 397.776 538.903 401.029C538.258 403.13 537.357 404.35 535.542 405.599C530.351 409.175 524.39 411.921 518.81 414.837L490.598 429.472Q446.139 452.158 401.91 475.294C423.349 486.673 444.504 498.725 465.716 510.525L553.678 559.24L613.471 592.003C624.278 597.91 635.362 603.611 645.893 609.994C648.524 611.588 651.27 613.468 653.023 616.04C654.527 618.247 654.814 620.26 654.372 622.844C652.65 625.205 650.387 626.959 647.941 628.52C636.841 635.605 622.884 642.013 611.145 648.292Q572.984 669.014 534.377 688.894C551.295 697.68 568.186 706.89 584.623 716.547C601.599 707.116 618.849 697.798 636.036 688.765C654.614 679.002 665.059 680.664 683.008 690.783C691.115 695.354 699.038 700.269 707.027 705.043C712.59 708.368 718.274 711.832 724.517 713.723C728.444 714.912 732.452 715.302 736.506 714.521C746.767 712.545 760.17 703.046 769.599 697.958C769.061 696.726 768.446 695.448 768.38 694.086C768.287 692.17 768.866 690.005 770.226 688.607C772.43 686.34 776.403 685.971 779.376 685.938C783.238 685.895 787.179 686.733 789.949 689.613C791.113 690.822 792.062 692.578 791.79 694.312C791.518 696.042 790.155 697.437 788.819 698.444C784.686 701.556 779.141 700.615 774.34 700.044C762.963 705.124 752.998 713.792 741.137 717.752C716.556 725.959 687.758 692.842 663.925 687.087C659.961 686.129 655.802 686.012 651.836 687.012C640.325 689.915 628.631 697.931 618.217 703.574C608.573 708.8 598.653 713.756 589.263 719.421C604.02 726.325 618.293 734.919 632.594 742.729C645.26 749.647 658.588 756.04 670.792 763.707C673.42 765.358 677.118 767.552 678.809 770.198C681.378 774.218 681.314 802.447 680.055 807.732C679.509 810.026 678.482 811.926 676.712 813.495C671.369 818.232 663.848 821.055 657.521 824.224C649.924 828.029 642.231 831.933 634.923 836.263C644.936 842.082 655.334 847.376 665.521 852.892Q699.984 871.224 733.847 890.644C736.305 892.069 738.801 893.606 741.575 894.339C747.552 895.918 755.053 894.02 759.727 899.163C760.737 900.273 761.191 901.511 760.988 903.003C760.694 905.158 758.673 907.028 756.906 908.073C752.686 910.57 746.19 910.967 741.534 909.653C739.712 909.138 737.96 908.059 737.039 906.356C735.574 903.649 736.018 901.142 736.946 898.357L737.159 897.737C728.464 891.458 718.253 886.683 708.683 881.917C693.036 891.737 675.99 899.384 659.598 907.861C647.676 914.026 635.094 922.517 622.197 926.43C619.618 927.213 616.421 928.032 613.746 927.404C604.705 925.284 585.002 912.618 575.582 907.285Q557.631 897.064 539.394 887.364C533.041 890.158 526.89 893.818 520.753 897.071L491.081 912.7C522.18 928.758 552.668 945.976 583.78 961.991C588.081 961.455 592.746 961.041 596.997 962.155C599.031 962.688 601.254 964.12 602.175 966.074C602.829 967.459 602.838 969.297 602.275 970.714C601.516 972.625 599.864 973.866 598.034 974.671C593.648 976.601 587.248 976.694 582.843 974.786C581.044 974.008 579.297 972.736 578.634 970.813C577.99 968.945 578.563 967.439 579.318 965.731C579.388 965.572 579.462 965.414 579.534 965.256C578.961 964.388 578.555 964.049 577.659 963.532C571.127 959.759 563.923 956.662 557.253 953.025Q522.327 933.796 487.101 915.121C478.865 919.705 452.136 935.41 445.003 937.054Q443.794 937.342 442.56 937.487Q441.326 937.633 440.083 937.634Q438.84 937.635 437.606 937.492Q436.371 937.349 435.162 937.063C425.586 934.834 406.667 922.912 397.933 917.401C391.658 921.087 384.875 924.154 378.402 927.502Q361.046 936.511 343.798 945.723C340.298 947.579 333.351 950.241 330.656 952.738C327.554 955.613 330.388 960.953 327.027 963.741C324.554 965.791 320.026 965.686 316.961 965.537C313.603 965.373 309.734 964.471 307.46 961.788C306.391 960.527 305.791 958.929 306.028 957.263C306.293 955.395 307.552 953.862 309.107 952.877C313.145 950.32 318.284 951.125 322.716 951.922C345.948 939.75 368.883 926.134 392.766 915.345C381.847 908.948 370.487 903.136 359.311 897.204C355.664 895.268 350.635 891.791 346.716 890.768C345.228 890.379 344.575 890.992 343.304 891.639C323.18 901.279 303.713 912.755 283.923 923.113C284.578 924.907 285.251 927.326 284.84 929.236C284.38 931.369 282.822 933.257 280.946 934.315C277.513 936.25 272.834 936.04 269.143 935.057C266.485 934.35 263.994 933.011 262.67 930.487C261.925 929.068 261.843 927.597 262.351 926.071C264.53 919.526 277.886 920.887 283.465 918.351C291.76 914.58 299.749 909.821 307.757 905.473Q324.576 896.354 341.624 887.671C328.912 880.59 316.511 873.431 303.531 866.803C289.553 874.885 274.892 881.866 260.534 889.242C254.381 892.403 246.837 895.443 241.474 899.755C241.351 900.55 241.316 901.239 241.379 902.042C241.447 902.909 241.559 903.8 241.534 904.671C241.493 906.09 240.76 907.437 239.703 908.36C236.967 910.749 231.626 911.482 228.137 911.175C225.206 910.916 222.156 909.796 220.254 907.452C219.077 906.002 218.441 904.097 218.754 902.228C219.025 900.613 220.009 899.216 221.352 898.309C225.362 895.6 231.172 896.739 235.612 897.624C256.788 886.568 278.028 875.533 299.03 864.15C285.778 855.716 271.286 848.976 257.537 841.381C247.555 846.458 237.721 852.003 227.8 857.223C217.608 862.584 207.06 867.717 197.26 873.765C197.557 874.956 197.907 876.197 197.977 877.426C198.09 879.424 197.324 880.989 195.99 882.432C193.639 884.974 190.211 886.023 186.815 886.044C183.006 886.066 179.552 884.607 176.892 881.872C175.692 880.638 174.542 878.906 174.765 877.104C174.954 875.576 176.13 874.239 177.343 873.379C181.679 870.303 186.279 870.884 191.161 871.717C199.37 867.909 207.256 863.373 215.231 859.102Q234.029 849.133 252.723 838.969C240.627 831.079 225.304 823.669 212.441 816.697C205.855 821.569 197.449 825.103 190.145 828.821C176.961 835.531 163.784 842.148 150.955 849.526C151.208 851.017 151.494 852.563 151.389 854.082C151.254 856.053 150.1 857.949 148.617 859.218C145.95 861.5 141.89 861.674 138.567 861.401C135.154 861.12 131.403 859.984 129.211 857.174C128.243 855.933 127.704 854.393 128.082 852.814C128.465 851.218 129.665 849.946 130.979 849.039C134.959 846.29 140.75 846.92 145.29 847.626L208.482 814.379Q199.64 809.294 190.628 804.517C190.321 795.186 188.475 772.837 191.183 764.766C192.024 762.26 193.5 760.206 195.522 758.514C202.35 752.797 222.187 743.921 231.246 739.38C219.847 732.642 207.898 726.517 196.225 720.247L133.674 686.982C122.179 692.881 110.843 699.09 99.3664 705.025C92.6267 708.511 85.3702 711.514 78.9834 715.582C79.3769 718.153 79.7422 721.52 78.1087 723.758C76.3533 726.163 72.5327 726.704 69.8016 726.939C65.6241 727.299 59.9557 727.188 56.698 724.229C55.5873 723.22 54.892 721.872 54.9505 720.347C55.0332 718.19 56.5594 716.294 58.2484 715.092C62.8239 711.834 68.1167 712.5 73.3084 713.254C94.0393 704.283 112.952 690.836 133.845 682.292C148.12 688.476 161.779 696.735 175.479 704.128C195.63 715.002 215.914 725.56 235.864 736.811C250.486 729.051 264.826 720.667 279.623 713.252C270.02 708.727 260.804 702.919 251.425 697.893Q219.525 681.027 187.815 663.806L115.369 624.91C107.489 620.651 99.3865 616.887 91.6395 612.372C89.005 610.836 86.2354 609.146 84.5442 606.53C82.9808 604.111 82.9439 601.811 83.5596 599.089C85.4432 596.768 87.8229 595.03 90.3463 593.46C103.915 585.02 118.83 578.419 132.974 570.972C158.143 557.72 183.094 544.066 208.656 531.579C194.247 523.253 179.032 516.303 164.621 507.927Q135.111 522.985 105.966 538.739C95.8988 544.091 84.9766 548.902 75.4749 555.15C74.6734 556.894 75.2836 557.865 75.1825 559.695C75.1 561.187 74.0283 562.77 72.9751 563.78C70.8658 565.804 67.931 566.26 65.1132 566.229C60.9046 566.183 56.4447 565.109 53.4488 561.965C52.2098 560.665 51.1585 558.95 51.4107 557.076C51.6085 555.607 52.835 554.514 54.0559 553.815C58.7332 551.134 64.5413 551.107 69.6 552.455L70.2688 552.639C77.9182 548.628 158.869 506.832 161.478 503.961C157.865 499.092 150.898 498.91 148.902 492.134C146.704 484.674 148.053 454.011 148.048 444.161L148.002 336.48L148.014 250.489C147.948 234.087 147.144 217.542 148.017 201.165C148.269 196.444 149.127 192.454 151.525 188.3C154.51 183.13 159.47 180.03 164.506 177.095C187.026 163.973 210.988 152.767 234.1 140.676L363.878 72.5345Q384.54 61.8199 404.929 50.5924C416.16 44.4278 430.618 34.8095 442.863 31.6405ZM454.5 341.607C455.549 325.207 454.868 308.46 454.88 292.005L454.915 200.982L454.906 96.7733C454.905 80.1227 455.712 63.1105 454.964 46.4963C454.842 43.7754 454.488 40.7692 452.698 38.5853C451.25 36.8183 448.961 36.1374 446.755 35.9908C445.972 35.9387 445.189 35.9973 444.408 36.0426C430.887 40.06 417.913 48.8897 405.515 55.6008L349.606 85.3487L230.16 147.929C209.439 158.718 186.798 169.231 166.827 180.921C162.193 183.633 157.306 186.984 154.675 191.809C152.829 195.192 152.519 199.706 152.4 203.506C151.947 218.068 152.412 232.749 152.505 247.319L152.707 317.443L152.611 434.317C152.604 444.378 151.378 484.112 153.484 490.271C154.317 492.707 155.843 494.863 158.265 495.909C159.892 496.612 161.463 496.714 163.209 496.672C177.596 490.132 191.203 481.99 205.204 474.678L297.997 425.885L397.467 373.179C414.207 364.423 431.528 356.463 447.961 347.16C450.626 345.652 452.486 343.888 454.5 341.607ZM427.399 638.482C414.105 643.654 401.841 651.646 389.301 658.412Q352.766 677.713 316.691 697.862L241.371 738.683C228.469 745.551 215.272 752.033 202.565 759.241C200.272 760.542 195.712 762.944 194.591 765.36C194.118 766.377 194.262 767.216 194.897 768.15C195.146 768.516 195.646 768.975 196.014 769.273C203.076 774.98 212.219 778.943 220.247 783.132Q237.388 792.027 254.374 801.217L385.808 873.287C392.496 876.998 437.711 902.582 441.253 902.424C441.835 902.398 442.309 902.257 442.863 902.121C453.662 897.542 463.842 891.704 474.158 886.151L510.996 866.526Q576.625 830.836 643.165 796.871C648.931 793.985 673.501 782.78 675.608 778.645C676.343 777.203 676.348 775.512 675.77 774.019C674.744 771.368 672.159 769.51 669.809 768.094C656.044 759.8 641.163 752.79 627.072 744.994Q571.881 714.169 516.281 684.087Q492.807 671.547 469.641 658.447C458.537 652.165 447.038 644.499 435.189 639.844C432.599 638.827 430.186 638.338 427.399 638.482ZM212.577 533.985C185.504 549.05 157.754 563.092 130.311 577.489C120.607 582.58 94.1756 594.371 87.5316 601.115C87.3606 602.722 87.4902 603.574 88.5799 604.826C92.5663 609.406 109.463 616.581 115.844 620.076L219.253 675.689L258.682 696.786C266.998 701.286 275.515 705.672 283.493 710.751C299.931 702.01 317.155 693.653 332.825 683.614C318.903 676.259 305.174 668.554 291.291 661.127C272.975 651.33 254.585 641.771 236.578 631.409C231.81 633.465 226.873 634.386 221.867 632.482C219.394 631.542 216.949 629.814 215.904 627.297C215.377 626.025 215.264 624.58 215.795 623.283C216.501 621.556 218.222 620.286 219.947 619.702C221.955 619.022 224.123 618.708 226.226 618.491C229.961 618.6 234.822 618.272 237.688 621.095C239.377 622.758 239.652 624.49 240.012 626.735L240.287 628.373C247.221 632.941 254.676 636.677 261.999 640.573L295.027 658.065L323.429 673.345C328.105 675.887 332.85 678.914 337.712 681.045Q365.614 666.146 393.362 650.964C403.567 645.407 414.067 638.063 425.202 634.754C428.823 633.679 431.628 634.021 435.196 635.13C445.415 638.304 461.764 648.961 471.775 654.502L529.623 686.065C539.498 681.612 549.028 676.224 558.603 671.16L604.824 646.537Q618.102 639.408 631.464 632.436C636.369 629.858 641.604 627.434 646.254 624.43C647.745 623.466 649.28 622.432 649.932 620.708C650.214 619.964 650.168 620.098 649.772 619.402C648.107 616.47 643.211 613.736 640.389 612.045C617.979 598.622 594.413 586.857 571.472 574.357L472.248 519.511C447.526 505.812 422.601 492.438 398.34 477.936L397.544 477.922L305.003 525.944L277.635 540.484C271.007 544.006 264.346 547.988 257.187 550.315C252.093 551.971 248.193 551.754 243.11 550.145C232.358 546.742 222.865 538.743 212.577 533.985ZM589.61 861.068Q616.233 875.473 642.698 890.169C645.987 892.028 659.508 900.712 661.67 901.293C661.736 901.311 662.84 901.344 662.886 901.338C662.991 901.326 663.079 901.254 663.176 901.212C676.958 893.863 690.689 886.168 704.809 879.495C680.553 865.084 655.048 852.604 630.582 838.501C617.473 846.82 602.388 852.182 589.61 861.068ZM226.387 901.041C225.118 901.687 223.968 902.143 223.164 903.38C223.232 904.498 222.997 904.225 223.67 904.867C225.331 906.449 229.22 906.925 231.432 906.707Q232.665 906.576 233.888 906.377C235.252 905.774 236.036 905.417 237.045 904.267C236.985 903.401 237.169 903.443 236.559 902.913C234.026 900.712 229.527 900.848 226.387 901.041ZM185.444 875.034C183.671 875.398 182.095 875.581 180.656 876.738L180.128 877.908C180.879 879.516 182.08 880.378 183.791 880.954C185.321 881.469 187.037 881.417 188.635 881.448C190.479 880.908 191.95 880.6 193.303 879.18C193.44 878.488 193.725 878.11 193.269 877.489C192.026 875.797 189.455 875.273 187.491 875.077C186.804 875.008 186.133 875.021 185.444 875.034ZM167.39 504.444Q191.626 517.22 215.688 530.322C225.206 535.552 235.171 543.044 245.562 546.25C249.155 547.359 252.662 546.984 256.235 545.917C267.534 542.544 278.43 535.246 288.809 529.654L334.335 505.634C397.264 472.977 460.772 441.251 523.144 407.54C526.751 405.591 531.568 403.526 534.235 400.393C534.55 398.754 534.585 397.407 534.467 395.745L533.996 395.088L344.691 493.181Q318.362 506.807 292.175 520.701C281.83 526.244 271.549 532.936 260.598 537.19C255.189 539.291 250.878 539.631 245.324 537.88C233.557 534.169 222.338 526.275 211.5 520.409C198.048 513.127 183.763 506.682 171.235 497.858C168.978 499.147 166.454 500.107 165.672 502.76C166.209 503.832 166.326 503.864 167.39 504.444ZM775.674 690.524C774.47 691.646 773.943 691.958 773.46 693.565C774.132 694.737 774.629 695.17 775.948 695.592C778.273 696.336 781.335 696.501 783.731 696.029C784.991 695.326 786.03 694.81 786.888 693.6C786.957 692.756 787.15 692.797 786.637 692.252C784.418 689.892 778.67 690.406 775.674 690.524ZM63.4988 717.061C62.1097 717.799 60.9652 718.267 60.1892 719.717C60.341 720.697 60.3162 720.926 61.2166 721.509C63.9269 723.266 68.2228 723.023 71.2348 722.472C72.6035 721.889 73.8683 721.529 74.6837 720.2C74.4089 719.174 74.342 719.007 73.3435 718.465C70.517 716.929 66.6412 716.838 63.4988 717.061ZM270.52 925.057C269.131 925.879 267.876 926.438 267.167 927.971C267.277 928.689 267.161 929.048 267.773 929.548C270.222 931.543 274.284 931.308 277.201 930.878C278.665 930.177 279.923 929.717 280.834 928.293C280.706 927.458 280.855 927.27 280.163 926.69C277.744 924.664 273.483 924.833 270.52 925.057ZM254.735 534.46C267.246 531.521 280.332 522.043 291.71 515.877Q312.707 504.601 333.877 493.654L475.304 420.269Q494.174 410.496 513.155 400.942C520.092 397.455 527.275 394.198 534.054 390.426C522.983 382.956 510.801 377.308 499.008 371.09C484.219 363.292 469.728 355.24 454.473 348.375C440.414 356.811 425.398 363.838 410.868 371.435L343.359 407.258Q283.392 439.206 223.06 470.459C207.07 478.802 191.298 487.704 175.143 495.711C190.391 503.41 205.287 511.878 220.237 520.14C227.979 524.418 235.785 529.46 244.027 532.66C247.548 534.026 250.926 534.919 254.735 534.46ZM321.46 960.72C322.756 959.914 323.739 959.341 324.568 958.005C324.505 957.315 324.675 956.989 324.045 956.546C321.638 954.852 316.765 955.318 313.923 955.559C312.695 956.282 311.642 956.735 311.084 958.131C311.375 959.116 311.392 959.358 312.356 959.885C314.902 961.277 318.679 961.214 321.46 960.72ZM223.867 623.069C222.483 623.703 221.312 624.096 220.485 625.457C220.636 626.501 220.593 626.747 221.518 627.398C224.318 629.371 228.531 629.3 231.72 628.663C233.152 628.01 234.379 627.626 235.163 626.165C234.863 625.171 234.822 624.938 233.851 624.402C230.982 622.819 227.05 622.773 223.867 623.069ZM142.826 856.689C144.399 856.077 145.807 855.664 146.934 854.335C147.019 853.417 147.248 853.461 146.664 852.916C144.659 851.044 140.152 850.932 137.511 851.109C135.981 851.616 134.63 851.997 133.371 853.056L133.031 854.168C133.801 855.541 135.487 856.097 136.946 856.473C138.862 856.967 140.873 856.943 142.826 856.689ZM657.622 903.919C649.979 899.288 586.727 863.505 584.091 863.375C571.062 870.732 557.544 878.88 543.724 884.618Q565.266 896.374 586.671 908.377C595.102 913.111 603.559 918.503 612.417 922.375C614.097 923.109 615.73 923.703 617.596 923.58C630.151 919.396 645.925 910.64 657.622 903.919ZM67.0822 561.148C68.6749 560.428 69.4556 560.249 70.5062 558.818C70.1665 557.765 70.0915 557.602 69.0528 557.051C66.7409 555.825 63.6311 555.628 61.0578 555.613C59.591 556.087 58.3629 556.463 57.124 557.428L56.7847 558.305C57.752 559.872 59.4938 560.521 61.259 560.955C63.0861 561.404 65.2065 561.258 67.0822 561.148ZM744.588 899.53C743.029 900.187 741.708 900.597 740.707 902.05C740.787 902.918 740.613 903.055 741.31 903.682C743.28 905.457 747.823 906.039 750.351 905.705C750.759 905.651 751.163 905.573 751.568 905.503L752.129 905.412C753.607 904.785 754.981 904.393 755.874 902.968C755.663 901.978 755.649 901.75 754.728 901.172C751.777 899.318 747.922 899.416 744.588 899.53ZM587.502 965.591C585.754 966.263 584.312 966.723 583.023 968.124C582.924 968.763 582.674 969.127 583.131 969.675C584.791 971.667 588.745 971.992 591.136 971.982Q591.881 971.977 592.625 971.953C594.504 971.592 595.909 971.345 597.48 970.217L597.969 969.172C597.261 967.522 596.015 966.868 594.378 966.215C592.087 965.301 589.919 965.448 587.502 965.591Z"/>
	<path fill="#14115A" transform="scale(0.666667 0.666667)" d="M431.274 63.4621C432.421 63.7065 433.336 63.6746 434.018 64.7663C435.029 66.3854 435.107 69.0625 435.111 70.9411L434.942 254.67L435.014 305.143C435.031 314.145 435.976 324.337 434.319 333.142C427.868 339.046 402.213 351.411 392.785 356.305L323.823 392.391L218.745 448.293Q206.997 454.456 195.328 460.767C190.155 463.538 184.909 466.636 179.403 468.687C178.859 468.314 178.107 467.865 177.647 467.367C176.122 465.716 176.213 462.051 176.115 459.857C175.831 453.546 176.302 447.16 176.292 440.837L176.173 391.905C175.979 326.988 176.92 261.983 175.993 197.08C188.835 189.425 202.618 182.99 215.904 176.114L284.975 140.062L388.023 85.8783C402.426 78.389 416.653 70.5181 431.274 63.4621ZM180.49 199.897L180.445 394.732L180.521 436.895C180.499 445.26 179.504 454.63 181.166 462.824L350.67 372.973C377.08 359.012 404.22 346.044 430.203 331.335L430.08 124.322C430.068 118.006 430.756 72.8689 430.035 70.4813C430.028 70.4594 429.479 69.551 429.472 69.5401C429.449 69.5074 429.411 69.489 429.381 69.4634L274.141 150.626C242.926 166.986 211.282 182.769 180.49 199.897Z"/>
	<defs>
		<linearGradient id="gradient_0" gradientUnits="userSpaceOnUse" x1="349.76923" y1="336.51196" x2="258.47565" y2="201.81651">
			<stop offset="0" stop-color="#171560"/>
			<stop offset="1" stop-color="#303068"/>
		</linearGradient>
	</defs>
	<path fill="url(#gradient_0)" transform="scale(0.666667 0.666667)" d="M324.898 163.074Q325.51 163.041 326.122 163.028C330.994 162.939 335.57 164.609 339.064 168.046C342.093 171.026 343.988 174.954 345.064 179.026C348.376 191.556 346.642 212.331 346.494 225.855C350.381 223.917 356.417 219.577 360.683 219.45C361.663 219.421 361.277 219.353 362.071 220.138C363.972 226.889 363.33 272.701 362.803 282.194C362.564 286.503 362.068 291.573 360.527 295.634C354.116 312.534 320.869 355.055 306.814 367.676C304.694 367.113 302.53 366.69 300.386 366.223C286.974 363.636 264.873 359.303 254.833 350.109C251.979 341.167 253.689 322.887 253.768 313.154C253.876 299.819 254.014 286.368 253.476 273.045C258.284 270.653 263.135 268.323 267.844 265.741C267.201 256.787 267.632 247.564 267.6 238.565C267.568 229.48 266.792 220.014 268.067 211.003Q268.295 209.291 268.665 207.604Q269.035 205.917 269.544 204.267Q270.054 202.617 270.699 201.015Q271.345 199.413 272.122 197.871Q272.987 196.17 274.011 194.56Q275.034 192.949 276.206 191.443Q277.379 189.938 278.689 188.55Q279.999 187.163 281.436 185.907C290.265 178.219 313.495 166.768 324.898 163.074ZM280.131 259.137C282.582 258.136 284.945 257.086 287.305 255.88C302.818 248.365 318.056 240.291 333.532 232.694C332.782 222.674 333.232 212.463 333.37 202.417C333.439 197.473 333.849 192.247 333.076 187.357C332.614 184.427 331.524 181.035 329.28 178.973C327.984 177.781 326.615 177.286 324.889 177.002C311.43 181.517 289.391 190.489 282.879 203.746Q281.874 205.825 281.225 208.04Q280.576 210.255 280.299 212.547C279.416 219.489 279.918 226.879 279.944 233.885C279.976 242.264 279.72 250.773 280.131 259.137Z"/>
	<path fill="#8595DE" transform="scale(0.666667 0.666667)" d="M357.779 225.492C358.242 226.147 358.401 226.877 358.455 227.673C358.953 234.908 358.256 242.287 358.265 249.547C358.28 261.371 360.422 281.089 357.476 291.8C352.222 310.902 319.53 347.616 305.914 362.943C293.302 360.669 281.636 357.399 269.501 353.253C265.545 351.6 261.792 349.678 258.006 347.678L257.936 276.359C267.602 272.13 276.602 266.337 286.011 261.553L357.779 225.492Z"/>
	<path fill="#14115A" transform="scale(0.666667 0.666667)" d="M310.385 280.519C311.677 280.555 312.875 280.682 314.114 281.082C316.035 281.702 317.536 283.11 318.408 284.914C320.723 289.698 318.913 295.868 317.34 300.638C316.012 304.665 311.421 318.115 308.024 319.831L306.859 319.227C303.037 315.092 298.662 310.285 296.685 304.923C295.008 300.376 295.513 295.344 297.551 290.99C300.117 285.509 304.856 282.401 310.385 280.519Z"/>
	<path fill="#14115A" transform="scale(0.666667 0.666667)" d="M430.214 656.025C437.313 657.68 449.948 665.851 456.698 669.552L527.479 709.131L599.972 748.802C612.99 755.858 626.178 762.612 639.027 769.974C641.824 771.576 644.454 773.183 646.842 775.362C639.426 780.267 630.802 784.061 622.884 788.177Q601.72 799.16 580.669 810.358L518.626 843.186C495.93 855.449 473.402 868.122 450.489 879.968C446.362 882.217 442.385 883.149 437.734 881.956C428.506 879.59 420.232 873.52 411.959 869.036L349.632 834.63L274.727 793.385C263.866 787.362 252.541 781.727 241.974 775.23C240.01 774.023 237.961 772.725 236.827 770.652C235.698 768.59 235.25 763.979 236.316 761.885C237.53 759.499 241.44 757.27 243.732 755.923C253.043 750.451 262.927 745.731 272.467 740.641L332.897 708.209L390.078 676.98C403.324 669.768 416.529 662.381 430.214 656.025ZM447.511 876.55C464.508 866.614 482.18 857.865 499.527 848.56L588.755 800.647L622.255 783.274C627.535 780.558 633.335 778.114 638.355 774.985C613.661 760.063 587.372 747.364 562.089 733.432L480.467 688.362C466.406 680.526 452.521 672.321 438.342 664.705C436.033 663.465 432.054 660.725 429.469 660.953C391.95 680.668 354.967 701.383 317.6 721.379L274.268 744.612C264.853 749.57 255.037 754.179 245.93 759.659C243.801 760.939 240.201 763.071 239.53 765.562C239.263 766.553 239.951 767.919 240.533 768.694C241.442 769.908 243.389 770.946 244.704 771.708C252.846 776.435 261.308 780.682 269.56 785.223L330.345 818.726L384.45 848.552C399.758 857.081 414.967 865.876 430.533 873.928C433.727 875.58 437.949 878.09 441.58 878.318C443.624 878.446 445.741 877.486 447.511 876.55Z"/>
	<path fill="#14115A" transform="scale(0.666667 0.666667)" d="M429.993 682.105C430.394 682.215 430.8 682.315 431.192 682.455C438.313 685.008 445.176 689.841 451.776 693.585L482.418 710.669L542.21 743.773C556.282 751.434 570.851 758.676 584.46 767.122C587.337 768.908 591.297 771.142 592.724 774.317C592.513 775.998 591.452 777.16 590.266 778.296C584.574 783.745 565.542 792.389 557.317 796.731L507.637 823.206L471.931 842.417C464.258 846.603 456.638 851.076 448.757 854.851C445.529 856.397 442.092 858.081 438.444 858.02C430.117 854.806 422.503 849.871 414.735 845.528L382.484 827.723L324.476 795.506C309.259 787.212 293.749 779.282 278.716 770.67C277.782 770.135 276.759 769.469 276.043 768.651C275.23 767.722 275.122 767.204 275.223 766.013C276.722 764.233 278.646 763.114 280.655 761.992C291.646 755.855 302.936 750.219 314.074 744.352Q341.085 730.055 367.944 715.474L407.483 693.941C414.844 689.934 422.29 685.364 429.993 682.105Z"/>
	<path fill="#8595DE" transform="scale(0.666667 0.666667)" d="M430.032 686.9C439.345 690.123 448.431 696.827 457.125 701.606Q493.8 721.504 530.007 742.242Q547.9 752.215 565.907 761.982C573.439 766.103 581.537 770.008 588.432 775.141C579.562 781.262 569.209 785.621 559.681 790.655L504.554 819.986C492.077 826.611 479.586 833.241 467.213 840.057C458.429 844.895 450.012 850.299 440.648 853.988C433.803 852.056 427.078 847.545 420.887 844.078L395.443 829.879L281.604 767.015C331.331 740.846 380.639 713.697 430.032 686.9Z"/>
	<path fill="#14115A" transform="scale(0.666667 0.666667)" d="M434.648 740.103C436.127 740 437.698 739.842 439.153 740.202C445.864 741.86 483.933 763.209 486.976 768.48C488.174 770.555 488.102 773.278 487.555 775.525C482.618 782.455 448.862 798.982 439.963 802.538C438.24 802.582 436.515 802.598 434.82 802.237C429.495 801.104 389.966 780.117 387.454 775.845C386.269 773.831 385.606 771.027 386.402 768.766C388.414 763.053 427.222 743.132 434.648 740.103Z"/>
	<path fill="#FBFBFA" transform="scale(0.666667 0.666667)" d="M436.893 744.025C446.472 745.873 477.042 765.173 484.964 771.979C475.837 780.359 449.02 793.678 437.134 798.604C431.209 797.339 400.069 779.938 393.795 775.62C391.896 774.314 390.448 772.891 388.973 771.13C397.988 762.477 424.856 749.618 436.893 744.025Z"/>
	<path fill="#8595DE" transform="scale(0.666667 0.666667)" d="M422.473 898.259C428.853 901.833 434.965 905.23 442.105 906.999L442.076 933.501C434.142 933.806 428.965 930.211 422.477 926.328L422.473 898.259Z"/>
	<path fill="#8595DE" transform="scale(0.666667 0.666667)" d="M465.383 895.431L465.752 895.75C467.309 899.871 465.982 916.508 465.843 921.919C459.542 924.966 453.517 928.877 447.41 932.318L446.967 931.968C445.417 927.758 446.495 911.543 446.567 906.064L465.383 895.431Z"/>
	<path fill="#8595DE" transform="scale(0.666667 0.666667)" d="M675.502 784.392L676.092 784.733C677.956 789.791 676.363 802.728 675.836 808.423C671.144 813.54 664.636 816.105 658.492 819.028L657.995 818.608C656.228 814.174 657.451 800.021 657.57 794.474C663.65 791.259 669.633 787.981 675.502 784.392Z"/>
	<path fill="#8595DE" transform="scale(0.666667 0.666667)" d="M268.49 814.188C274.194 816.806 279.613 820.119 285.016 823.298Q285.113 837.233 284.96 851.167Q276.668 847.057 268.522 842.664L268.49 814.188Z"/>
	<path fill="#8595DE" transform="scale(0.666667 0.666667)" d="M328.617 846.821C333.993 849.45 339.222 852.649 344.459 855.561L344.461 884.431C339.177 882.231 333.753 878.203 328.744 875.286C328.413 865.808 328.556 856.303 328.617 846.821Z"/>
	<path fill="#8595DE" transform="scale(0.666667 0.666667)" d="M289.507 825.745C294.907 828.53 300.187 831.631 305.505 834.575L305.388 862.652C299.973 859.865 294.756 856.72 289.508 853.635L289.507 825.745Z"/>
	<path fill="#8595DE" transform="scale(0.666667 0.666667)" d="M249.017 803.679C254.29 805.997 259.417 809.169 264.477 811.949Q264.572 825.887 264.243 839.822C259.975 839.618 253.15 834.465 249.413 832.354Q249.413 818.014 249.017 803.679Z"/>
	<path fill="#8595DE" transform="scale(0.666667 0.666667)" d="M229.989 793.116C235.218 795.413 240.273 798.941 245.091 802.01C245.555 810.972 245.286 819.977 245.118 828.944C241.32 829.424 233.304 823.342 229.958 821.269L229.989 793.116Z"/>
	<path fill="#8595DE" transform="scale(0.666667 0.666667)" d="M348.785 857.871C353.865 860.149 358.821 863.716 363.559 866.682C363.793 876.046 363.656 885.429 363.63 894.797C358.702 892.217 353.856 889.433 348.985 886.744L348.785 857.871Z"/>
	<path fill="#8595DE" transform="scale(0.666667 0.666667)" d="M309.911 837.093C314.884 839.516 319.662 842.371 324.474 845.099Q324.511 859.087 324.35 873.074C319.459 870.774 314.683 867.696 309.962 865.034L309.911 837.093Z"/>
	<path fill="#8595DE" transform="scale(0.666667 0.666667)" d="M385.873 878.707C390.795 881.269 395.618 884.085 400.472 886.778Q400.697 900.391 400.358 914.001C395.328 911.641 390.46 909.08 385.588 906.413C386.194 897.194 385.917 887.942 385.873 878.707Z"/>
	<path fill="#8595DE" transform="scale(0.666667 0.666667)" d="M211.442 783.247L225.496 790.525Q225.624 804.692 225.2 818.853L211.022 810.837C210.949 801.652 210.819 792.413 211.442 783.247Z"/>
	<path fill="#8595DE" transform="scale(0.666667 0.666667)" d="M596.347 825.987C598.509 828.543 597.109 847.741 596.97 852.146C592.61 854.804 587.955 857.032 583.416 859.37C581.425 857.075 582.452 837.694 582.511 833.529L596.347 825.987Z"/>
	<path fill="#8595DE" transform="scale(0.666667 0.666667)" d="M483.799 885.459C486.135 887.824 484.725 907.462 484.796 911.898C480.314 914.19 475.903 916.665 471.468 919.051L470.971 918.698C469.071 914.517 470.397 898.392 470.534 893.039C474.812 890.308 479.37 887.94 483.799 885.459Z"/>
	<path fill="#8595DE" transform="scale(0.666667 0.666667)" d="M633.414 806.421L633.975 806.752C635.583 810.5 634.399 826.932 634.333 831.972C629.751 834.433 625.228 837.026 620.682 839.555L620.181 839.078C618.334 833.15 619.517 820.58 619.59 813.937L633.414 806.421Z"/>
	<path fill="#8595DE" transform="scale(0.666667 0.666667)" d="M577.112 835.91L577.865 836.293C579.816 842.744 578.261 854.714 577.988 861.763L564.809 869.316L564.4 869.27C562.214 865.797 563.783 848.017 563.96 843.325C568.217 840.693 572.741 838.359 577.112 835.91Z"/>
	<path fill="#8595DE" transform="scale(0.666667 0.666667)" d="M502.593 875.901L503.259 876.16C505.145 882.951 503.673 894.345 503.496 901.633L490.241 908.781L489.885 908.811L489.331 908.282C488.84 899.94 488.998 891.535 488.984 883.179Q495.815 879.59 502.593 875.901Z"/>
	<path fill="#8595DE" transform="scale(0.666667 0.666667)" d="M368.068 868.804C372.699 870.913 377.097 873.713 381.506 876.253L381.482 904.269C376.898 901.981 372.462 899.328 367.995 896.818L368.068 868.804Z"/>
	<path fill="#8595DE" transform="scale(0.666667 0.666667)" d="M614.951 816.024C616.988 819.409 615.569 837.655 615.477 842.631C610.954 844.704 606.584 847.059 602.193 849.393C599.763 845.357 601.328 828.77 601.503 823.24L614.951 816.024Z"/>
	<path fill="#8595DE" transform="scale(0.666667 0.666667)" d="M652.462 796.944L653.014 797.367C654.745 801.384 653.384 816.435 653.113 821.531L639.669 829.06L638.909 828.797C637.219 824.611 638.429 809.353 638.512 804.014C643.214 801.812 647.829 799.295 652.462 796.944Z"/>
	<path fill="#8595DE" transform="scale(0.666667 0.666667)" d="M540.358 855.441C542.505 863.025 540.795 874.043 540.519 882.025C536.034 884.267 531.627 886.684 527.198 889.035C525.382 886.537 526.723 867.014 526.851 862.886C531.284 860.263 535.806 857.847 540.358 855.441Z"/>
	<path fill="#8595DE" transform="scale(0.666667 0.666667)" d="M558.875 845.999C560.815 848.727 559.559 867.271 559.493 871.754C554.941 874.026 550.505 876.512 546.054 878.975C543.777 875.902 545.345 857.601 545.513 852.863L558.875 845.999Z"/>
	<path fill="#8595DE" transform="scale(0.666667 0.666667)" d="M521.243 865.993L521.938 866.267C523.736 871.422 522.218 885.812 521.963 891.882L509.39 898.588L508.488 898.219C506.717 893.204 507.984 879.065 508.11 873.06C512.578 870.864 516.902 868.427 521.243 865.993Z"/>
	<path fill="#8595DE" transform="scale(0.666667 0.666667)" d="M404.905 889.015C409.442 890.896 413.793 893.813 418.03 896.298C418.192 905.443 418.266 914.548 417.822 923.687C413.318 921.422 409.037 918.65 404.725 916.04C404.921 907.038 404.781 898.021 404.905 889.015Z"/>
	<path fill="#8595DE" transform="scale(0.666667 0.666667)" d="M194.09 773.324C198.438 775.431 202.671 777.965 206.964 780.2Q207.054 794.462 206.911 808.723C202.709 806.622 198.617 804.221 194.495 801.962Q194.121 787.645 194.09 773.324Z"/>
	<path fill="#14115A" transform="scale(0.666667 0.666667)" d="M728.3 372.14Q729.638 372.102 730.977 372.129C734.638 372.213 738.187 373.486 741.439 375.106C748.262 378.505 754.851 382.705 761.512 386.433L803.303 409.585L903.258 464.583C913.656 470.305 949.344 488.27 955.593 494.8C957.394 502.709 956.561 511.374 956.394 519.431C950.86 527.854 936.894 531.738 928.273 536.416C942.715 543.151 956.53 551.669 970.338 559.62C975.533 558.822 979.74 558.271 984.633 560.936C986.391 561.893 988.655 563.535 989.044 565.645C989.321 567.146 988.51 568.53 987.557 569.613C984.924 572.609 981.98 573.499 978.095 573.588C974.865 573.662 968.8 573.36 966.595 570.678C964.722 568.4 965.56 565.313 965.984 562.671C952.386 553.877 937.589 547.111 923.925 538.488C911.117 546.028 897.243 551.972 884.292 559.391C892.428 562.526 900.148 567.149 907.822 571.285C915.356 575.346 923.129 579.226 930.306 583.89C932.309 583.249 934.251 582.73 936.333 582.44C939.948 581.937 942.894 582.821 945.748 585.167C947.155 586.323 948.259 587.888 948.201 589.788C948.137 591.898 946.747 593.744 945.105 594.953C941.474 597.628 935.463 598.075 931.165 597.251C928.887 596.814 926.834 595.766 925.595 593.735C924.133 591.338 924.737 589.13 925.333 586.55C911.661 576.603 895.035 570.212 880.325 561.909Q861.301 572.281 841.961 582.051C856.682 589.662 872.215 597.186 885.993 606.385C888.767 605.883 891.461 605.478 894.289 605.497C897.701 605.521 903.13 605.762 905.427 608.641C906.275 609.705 906.413 610.939 906.227 612.243C905.876 614.7 903.63 617.025 901.653 618.318C898.136 620.619 893.323 621.366 889.261 620.295C885.7 619.356 883.083 617.258 881.175 614.168C881.308 613.088 881.582 611.806 881.515 610.729C881.507 610.59 881.348 609.601 881.167 609.383C878.051 605.621 845.69 589.702 837.999 584.077Q817.986 594.674 797.659 604.656C813.678 613.206 829.687 621.692 845.515 630.611C847.436 630.013 849.45 629.428 851.449 629.158C855.298 628.638 860.566 629.65 863.599 632.221C864.713 633.165 865.543 634.367 865.521 635.891C865.493 637.835 864.154 639.629 862.741 640.845C859.326 643.785 854.347 644.794 849.947 644.475C847.224 644.278 844.635 643.368 842.891 641.177C841.029 638.838 841.17 636.737 841.56 633.911L793.302 607.441C783.37 612.091 764.838 625.461 753.767 623.452C745.419 621.938 687.053 587.794 675.304 581.18L623.517 552.548L573.198 524.922C562.073 518.903 550.605 513.222 539.809 506.628C536.422 504.559 533.925 502.384 531.661 499.085C530.821 493.059 529.621 481.666 533.416 476.44C535.184 474.005 539.599 471.914 542.195 470.435C570.496 454.303 599.804 439.677 628.478 424.186C657.214 408.662 685.559 392.104 714.787 377.52C719.13 375.353 723.517 373.124 728.3 372.14ZM951.987 504.758C951.989 502.166 952.042 499.565 951.949 496.976C943.545 490.653 933.28 486.102 924.003 481.169Q903.718 470.297 883.592 459.133Q832.071 430.177 780.137 401.97Q768.723 395.831 757.413 389.501C750.927 385.807 744.485 381.757 737.804 378.436C734.96 377.022 732.776 376.363 729.567 376.522C716.001 381.652 703.728 388.778 691.048 395.711L650.324 417.645L584.68 452.936C570.394 460.498 555.529 467.584 541.643 475.815C539.847 476.88 537.497 478.409 536.594 480.374C536.126 481.392 536.116 482.044 536.428 483.129C536.675 483.989 537.489 484.936 538.094 485.568C543.521 491.245 577.421 508.455 586.371 513.353L666.86 557.683L720.331 587.456C730.575 593.231 740.959 600.372 751.924 604.582C754.179 605.448 756.205 605.805 758.608 605.485C763.315 604.137 767.692 602.344 772.086 600.186C784.998 593.845 797.496 586.358 810.269 579.688L897.006 534.344C905.568 529.904 947.251 509.685 951.987 504.758ZM934.368 587.033C932.594 587.473 931.105 587.761 929.652 588.912L929.288 589.907C930.362 591.526 931.861 592.083 933.751 592.471C935.121 592.752 936.45 592.838 937.844 592.835C939.626 592.471 940.977 592.193 942.493 591.159L943.011 590.028C942.33 588.665 941.452 587.996 940 587.425C938.294 586.754 936.178 586.979 934.368 587.033ZM892.512 610.044C890.639 610.527 888.816 610.801 887.391 612.204C887.221 612.868 886.942 613.142 887.382 613.757C888.627 615.493 891.292 615.831 893.254 616.025C893.901 616.089 894.525 616.081 895.174 616.068C897.005 615.574 898.359 615.225 899.827 613.993L900.3 612.847C899.686 611.513 898.98 610.845 897.551 610.378C895.93 609.847 894.191 609.976 892.512 610.044ZM972.786 563.561C971.48 564.515 970.858 564.745 970.267 566.282C970.781 567.531 971.128 568.05 972.381 568.653C974.741 569.79 977.627 569.839 980.135 569.307C981.573 568.701 982.921 568.303 983.855 566.976C983.822 566.144 984.017 565.991 983.348 565.392C980.971 563.261 975.764 563.293 972.786 563.561ZM851.077 633.61C849.241 634.244 847.589 634.653 846.23 636.097C846.126 636.758 845.873 637.056 846.378 637.607C848.513 639.936 852.874 639.741 855.734 639.632C857.297 639.095 858.701 638.77 859.787 637.437C859.835 636.672 860.058 636.386 859.479 635.778C857.711 633.921 854.562 633.436 852.114 633.541Q851.595 633.565 851.077 633.61ZM951.541 519.162C951.709 516.383 951.909 513.605 951.933 510.821C907.535 533.441 863.733 557.321 819.57 580.404L785.951 597.887C778.84 601.619 771.822 605.915 764.258 608.675C759.645 610.357 756.232 610.93 751.462 609.351C740.586 605.75 730.801 598.588 720.85 593.007L662.787 560.914L581.376 515.932C567.301 508.202 547.651 499.377 535.607 489.28C535.521 493.419 535.062 496.939 538.254 500.094C543.601 505.377 557.921 511.458 564.993 515.28L610.844 540.319L693.959 586.409C711.046 596.012 727.951 606.217 745.405 615.127C749.019 616.971 753.486 619.263 757.637 619.066C760.922 618.91 764.132 617.16 767.031 615.739C780.326 609.218 793.376 602.098 806.48 595.195L896.744 547.384Q914.523 538.118 932.44 529.124C937.582 526.545 947.41 522.64 951.541 519.162Z"/>
	<path fill="#14115A" transform="scale(0.666667 0.666667)" d="M728.396 388.561C729.843 388.49 731.36 388.386 732.779 388.734C740.155 390.544 768.087 408.411 776.937 413.408L852.034 454.921L900.713 481.804C908.96 486.405 917.699 490.797 925.541 496.054C927.024 497.048 929.386 498.63 930.124 500.328C930.636 501.506 930.527 502.02 929.941 503.136C929.019 504.894 926.854 505.982 925.187 506.915C911.043 514.827 896.49 522.057 882.11 529.529L821.702 561.273L788.194 579.089C779.917 583.527 771.552 588.653 762.633 591.673C760.861 592.098 759.078 592.392 757.248 592.388C752.946 592.379 748.646 590.789 744.825 588.926C733.482 583.396 722.795 576.444 711.737 570.358L609.802 514.107C602.644 510.167 567.038 491.968 563.631 488.099C561.498 485.677 561.318 483.033 561.536 479.947C562.927 477.434 565.825 475.642 568.277 474.234C578.339 468.458 588.954 463.383 599.196 457.908L669.486 420.083C679.852 414.463 690.381 409.061 700.663 403.304C709.761 398.21 718.503 392.015 728.396 388.561ZM760.296 587.872C771.699 584.056 782.388 576.927 793.029 571.29L854.525 538.814L898.041 515.996C907.163 511.282 916.886 506.941 925.431 501.263C909.568 491.196 892.755 482.501 876.291 473.458L788.188 425.24C775.299 418.087 762.674 410.467 749.877 403.154C743.849 399.709 736.91 394.883 730.254 392.955C719.351 398.098 708.912 404.243 698.355 410.056L661.686 429.82C631.403 446.185 600.643 461.78 570.498 478.385C568.914 479.257 566.634 480.52 565.631 482.074C565.519 482.247 565.496 482.463 565.428 482.657L564.681 483.032C564.859 483.111 565.044 483.177 565.216 483.268C566.061 483.716 566.603 484.23 567.314 484.851C574.606 491.227 585.329 495.388 593.827 499.991L634.626 522.491L715.179 566.831C725.662 572.61 735.869 579.431 746.581 584.708C750.808 586.791 754.909 588.301 759.715 587.939C759.909 587.924 760.102 587.894 760.296 587.872Z"/>
	<path fill="#14115A" transform="scale(0.666667 0.666667)" d="M696.832 438.156C715.749 435.182 737.103 453.589 753.587 461.949C760.44 458.172 767.327 454.482 774.5 451.34C789.183 465.308 808.017 477.749 823.928 490.77C822.938 497.509 819.096 523.489 815.531 527.474C811.215 532.298 787.634 532.564 780.444 533.11C768.556 534.898 756.196 534.961 744.211 536.458C732.694 530.744 721.352 524.582 709.929 518.674C699.942 513.508 688.366 508.717 679.597 501.7C683.027 498.843 687.212 496.665 691.026 494.352C685.044 490.384 678.393 487.307 672.24 483.572C666.092 479.841 658.826 474.532 657.215 467.076C656.398 463.295 657.462 459.715 659.659 456.603C667.196 445.925 684.559 440.163 696.832 438.156ZM699.65 489.662L707.75 485.473C717.762 480.271 732.722 473.488 741.753 467.506C731.533 461.267 711.999 446.928 700.014 447.527C692.859 450.143 673.059 457.378 670.153 464.298C669.534 465.771 669.626 467.335 670.238 468.787C673.476 476.477 692.328 484.723 699.65 489.662Z"/>
	<path fill="#8595DE" transform="scale(0.666667 0.666667)" d="M772.706 457.014C777.945 458.584 812.849 487.254 819.344 492.397Q815.542 509.115 812.102 525.911C789.496 527.698 766.841 530.487 744.215 531.75L739.312 529.196C722.122 519.947 704.445 511.647 687.807 501.39C715.71 485.93 744.437 471.809 772.706 457.014Z"/>
	<path fill="#14115A" transform="scale(0.666667 0.666667)" d="M764.45 494.182C767.691 494.31 770.777 494.705 773.554 496.526C775.428 497.755 777.153 499.647 777.474 501.946C777.672 503.36 777.233 504.696 776.307 505.758C774.235 508.137 770.698 508.396 767.779 508.663C764.279 508.46 761.231 508.313 758.104 506.483C756.308 505.431 754.183 503.55 753.884 501.353C753.687 499.909 753.931 499.016 754.768 497.829C756.827 494.909 761.213 494.553 764.45 494.182Z"/>
</svg>
