<?xml version="1.0" encoding="utf-8" ?>
<svg xmlns="http://www.w3.org/2000/svg" xmlns:xlink="http://www.w3.org/1999/xlink" width="683" height="683">
	<path fill="#0B0D51" transform="scale(0.666667 0.666667)" d="M913.853 471.651C918.864 471.021 925.175 471.881 929.902 473.636C934.006 475.161 937.766 477.858 939.509 482.001Q939.727 482.512 939.893 483.043Q940.058 483.574 940.169 484.119Q940.28 484.664 940.335 485.217Q940.39 485.771 940.389 486.327Q940.388 486.883 940.33 487.436Q940.273 487.989 940.159 488.534Q940.046 489.078 939.878 489.608Q939.71 490.139 939.489 490.649C937.751 494.741 933.968 497.699 929.932 499.331C920.982 502.951 911.019 500.855 902.414 497.402C876.326 514 848.621 528.498 821.775 543.877C787.543 563.486 753.722 583.873 719.028 602.66C731.512 610.694 744.78 617.715 757.726 624.968C766.644 629.964 775.473 635.466 784.615 640.025C806.58 628.135 827.989 615.319 849.631 602.862Q888.794 580.681 927.712 558.073L964.699 536.402C970.088 533.235 977.972 527.168 983.776 525.728C984.952 525.436 985.462 525.394 986.522 526.054C986.66 526.762 986.805 527.386 986.532 528.092C985.931 529.648 983.811 530.96 982.445 531.811C977.156 535.107 971.212 537.703 965.776 540.849L916.443 569.584Q853.049 606.599 789.123 642.688C796.123 647.249 803.796 651.063 811.096 655.158Q828.424 664.911 845.52 675.064C855.333 669.778 864.921 663.908 874.582 658.339L946.813 616.265L969.525 603.209C973.283 601.009 976.881 598.34 980.782 596.421C982.31 595.669 984.411 594.669 986.146 595.177C986.845 595.382 986.858 595.777 987.176 596.364C986.621 598.261 983.017 600.36 981.307 601.466C969.498 609.098 956.636 615.595 944.474 622.729Q897.58 650.295 850.386 677.343C868.976 688.377 888.459 697.892 906.557 709.78C916.228 703.782 926.503 698.589 936.346 692.849C951.622 683.94 966.685 674.511 982.086 665.848C983.453 665.079 985.524 663.671 987.085 663.646C988.442 663.625 989.214 663.919 990.22 664.784L990.224 665.596C987.062 670.133 921.255 706.396 911.1 712.082C927.823 722.994 945.532 732.469 962.426 743.148C960.714 751.181 961.209 760.38 961.525 768.569C949.692 778.08 934.749 784.976 921.548 792.446L861.497 827.036Q793.731 866.74 725.531 905.69C703.032 918.632 681.007 932.46 657.933 944.382C645.906 939.426 634.366 931.74 623.08 925.248L566.887 893.114C550.28 902.23 534.189 912.317 517.454 921.185C503.96 929.999 489.151 937.19 475.217 945.316Q465.445 950.996 455.756 956.819C452.476 958.793 449.001 961.375 445.513 962.842C443.97 963.491 442.367 963.615 440.796 963.023L440.426 962.18C441.307 960.037 443.618 958.593 445.492 957.354C451.924 953.1 459.133 949.921 465.757 945.958Q513.764 917.793 562.424 890.77C543.682 880.28 525.144 869.375 506.493 858.719L431.092 902.086C417.086 910.277 403.313 919.436 388.745 926.575C386.723 927.566 384.151 928.956 381.858 928.452C381.367 927.7 381.209 927.862 381.429 927.149C381.955 925.451 383.979 924.159 385.392 923.216C392.633 918.384 400.911 914.546 408.474 910.17Q436.376 893.81 464.489 877.816C476.682 870.931 489.594 864.484 501.272 856.766L501.779 856.425Q484.167 846.801 466.78 836.777C460.205 833.022 453.318 829.457 447.036 825.239C434.516 831.363 422.434 839.268 410.354 846.266L341.911 885.803C336.103 889.166 319.044 900.313 314.079 901.409C312.947 901.659 312.842 901.773 311.848 901.106C311.827 900.54 311.788 900.46 311.965 899.836C312.366 898.426 313.992 896.718 315.162 895.903C318.336 893.691 322.334 891.978 325.743 890.062C333.408 885.754 340.998 881.297 348.598 876.876C379.746 858.756 411.209 841.149 442.083 822.57L386.355 790.851C381.588 794.247 376.289 797.03 371.22 799.95C362.204 805.146 353.129 810.261 344.175 815.564L285.78 849.87C274.685 856.338 263.649 863.171 252.228 869.048C249.957 870.216 246.425 872.278 243.843 871.862C243.049 871.735 243.013 871.333 242.602 870.729C243.045 869.579 243.676 869.055 244.671 868.393C249.011 865.503 253.843 863.121 258.367 860.514L285.409 844.887C317.786 826.192 350.513 807.8 382.465 788.396C373.269 783.134 363.93 778.388 355.113 772.479Q354.581 759.154 354.799 745.82C364.647 737.888 377.078 731.712 388.029 725.33L452.956 687.854Q522.708 646.933 592.931 606.825L633.512 583.389C640.598 579.359 649.07 573.501 656.959 571.303C660.411 570.341 665.95 572.639 669.169 574.077C674.878 576.627 680.291 580.241 685.67 583.426Q700.234 592.217 715.074 600.535C730.121 590.727 746.305 582.4 761.889 573.469L850.583 522.401C866.477 513.26 882.757 504.612 898.301 494.885C896.635 492.858 895.51 490.829 895.009 488.223C894.419 485.153 895.089 482.237 896.936 479.719C900.761 474.506 907.773 472.562 913.853 471.651ZM358.406 748.373C366.075 755.011 387.205 765.198 397 770.637L459.039 805.861L585.572 877.73Q608.959 891.213 632.501 904.422C640.693 909.071 648.786 914.186 657.184 918.433C680.867 906.108 703.731 892.141 726.776 878.667L828.084 819.68Q866.31 797.479 904.85 775.826C922.412 765.95 940.43 756.419 957.387 745.533C920.026 720.865 880.339 699.095 841.226 677.366L761.459 632.501Q726.449 612.872 691.823 592.575C683.083 587.54 674.557 581.831 665.612 577.203C663.698 576.213 661.867 575.469 659.67 575.534C645.915 579.867 633.037 588.716 620.588 595.916L571.361 624.4Q487.644 672.192 404.611 721.169Q390.122 729.75 375.445 738.005C369.802 741.234 363.547 744.38 358.406 748.373ZM916.964 475.662C911.599 476.369 905.017 477.126 901.36 481.621C899.982 483.315 899.307 485.432 899.696 487.608C900.148 490.133 902.018 492.148 904.115 493.488C907.361 495.563 914.266 497.414 918.122 496.724C923.476 496.44 929.609 495.82 933.432 491.567C934.791 490.054 935.622 488.143 935.513 486.088C935.388 483.729 934.068 481.661 932.322 480.14C928.62 476.914 921.83 475.354 916.964 475.662ZM655.946 923.387L359.493 754.443C359.396 759.599 359.403 764.787 359.177 769.938C380.429 782.642 402.135 794.325 423.605 806.623L601.815 908.218C619.573 918.454 638.108 927.729 655.571 938.403C655.599 933.422 655.424 928.342 655.946 923.387ZM956.527 751.054C938.043 762.696 918.85 773.109 899.849 783.871Q862.647 804.963 825.716 826.527L715.202 890.81C696.735 901.479 678.385 912.745 659.497 922.634C659.518 925.618 658.936 936.514 660.203 938.55C691.629 918.522 724.824 900.823 757.177 882.332L879.984 810.911L926.276 784.326C936.363 778.603 946.981 773.172 956.475 766.527C957.076 761.541 957.286 756.56 956.937 751.544L956.527 751.054Z"/>
	<path fill="#0B0D51" transform="scale(0.666667 0.666667)" d="M662.79 621.482C663.245 621.452 663.295 621.425 663.815 621.532C666.979 622.183 717.756 652.818 725.197 657.124L819.515 711.566C834.063 719.944 848.962 727.827 863.272 736.6C866.101 738.334 869.736 740.43 871.63 743.202L871.373 744.233C865.618 751.081 831.058 769.462 820.836 775.324L779.856 798.95C738.619 822.772 697.616 847.149 656.075 870.427L652.784 869.066L509.885 787.74C497.194 780.558 484.343 773.679 471.59 766.612C461.559 761.054 449.576 755.405 441.216 747.528C446.367 742.107 470.658 729.592 478.596 725.064L572.099 672.163L627.495 640.936C639.159 634.299 650.589 627.106 662.79 621.482ZM448.283 747.554Q526.46 792.527 605.107 836.67C621.174 845.857 637.454 854.732 653.316 864.267C655.542 865.054 656.329 865.038 658.537 864.007C661.296 862.72 663.756 860.811 666.377 859.269C670.92 856.596 675.538 854.037 680.122 851.433L745.591 813.392L816.998 772.401C833.253 763.191 850.759 754.785 865.621 743.433C828.95 721.583 791.66 700.839 754.708 679.479C746.179 674.548 664.986 626.709 662.437 626.388C636.75 640.178 611.577 655.112 586.179 669.438L448.283 747.554Z"/>
	<path fill="#0B0D51" transform="scale(0.666667 0.666667)" d="M637.149 670.184C638.005 670.074 639.392 669.781 640.204 670.115C643.958 671.658 648.575 686.209 650.135 690.347C657.406 690.197 664.648 690.495 671.912 690.777C673.999 686.613 679.302 673.596 683.753 672.553C690.388 670.999 715.709 680.826 721.732 684.001C719.087 690.148 713.594 695.238 709.405 700.396C715.034 702.923 719.494 705.915 724.307 709.778C733.291 705.791 743.277 703.312 752.762 700.835C757.509 706.519 763.016 712.675 766.972 718.912C768.042 720.6 768.601 721.86 768.144 723.897C764.806 728.561 748.57 731.204 742.638 733.229Q743.885 739.497 744.681 745.839C751.977 746.72 764.299 747.25 770.648 750.508C770.978 751.015 771.194 751.481 771.276 752.088C772.209 758.936 768.122 769.633 764.065 775.093C754.866 775.057 745.325 773.161 736.328 771.303C732.773 775.153 728.579 778.373 724.421 781.534C730.5 786.015 736.554 790.284 741.479 796.074C733.212 802.588 722.908 807.658 713.571 812.487C705.787 807.677 698.536 801.8 691.009 796.567Q684.796 797.914 678.553 799.115C678.313 799.16 678.071 799.194 677.833 799.25C672.044 800.62 677.164 813.328 673.795 817.225C669.993 821.623 643.253 818.686 636.582 818.308C636.339 811.806 635.498 805.199 634.99 798.701C630.021 797.432 625.107 796.103 620.21 794.57C613.012 799.353 605.683 804.744 597.916 808.562C593.784 806.249 575.11 797.582 573.596 794.493C573.049 793.375 572.937 792.708 573.275 791.522C574.75 786.355 586.966 780.514 591.469 777.839C588.192 774.365 584.778 771.005 581.427 767.602C574.381 768.458 567.245 769.228 560.165 769.742C557.48 769.937 554.344 769.82 552.257 767.886C547.906 763.852 547.059 750.875 546.624 745.074C555.347 742.675 564.62 742.126 573.591 741.237Q574.608 734.838 576.782 728.734C567.408 725.38 557.906 722.369 549.114 717.627C553.883 707.946 564.355 700.664 572.476 693.961Q584.516 699.407 596.37 705.248C601.95 702.316 607.459 699.518 613.357 697.263C609.885 690.322 605.711 684.514 603.124 677.057C613.701 673.207 626.09 671.927 637.149 670.184ZM664.01 774.128C677.861 772.731 694.044 768.791 703.3 757.481C706.814 753.187 708.92 747.843 708.342 742.243C707.63 735.35 702.995 729.401 697.676 725.251C686.028 716.164 667.265 711.117 652.601 712.64C638.078 714.246 621.8 717.392 612.251 729.641C608.713 734.179 606.48 739.892 607.3 745.712C608.327 753.001 613.63 758.803 619.419 762.922C632.437 772.185 648.376 774.8 664.01 774.128Z"/>
	<path fill="#6678D3" transform="scale(0.666667 0.666667)" d="M635.774 674.656L637.241 674.536C642.793 677.397 641.924 688.022 646.438 692.038C650.587 695.73 669.251 694.511 675.413 694.499Q679.974 685.534 685.298 677C695.775 679.221 705.942 681.911 716.191 685.019Q712.753 688.695 709.491 692.527C707.787 694.557 705.192 697.804 705.741 700.653C706.473 704.452 714.677 707.74 717.663 709.694C719.596 710.959 721.448 712.378 723.29 713.771C732.14 710.15 741.835 708.082 751.076 705.646C755.063 711.475 759.412 717.045 763.69 722.66C754.794 724.708 745.332 726.302 737.233 730.654C738.93 736.859 739.537 742.898 740.001 749.282C749.083 751.263 758.334 752.325 767.488 753.933C766.029 759.743 763.968 765.314 761.861 770.911C752.519 770.052 743.341 767.705 733.957 767.32C728.602 772.357 723.055 776.728 717.008 780.879C722.42 786.6 728.707 790.985 735.072 795.556Q724.286 801.55 713.341 807.25C706.183 802.069 699.116 796.971 691.309 792.789L674.839 795.185C673.725 795.362 673.199 795.578 672.298 796.256C669.723 801.317 670.252 809.285 669.912 814.947Q655.211 815.154 640.524 814.497C640.474 808.095 640.027 801.68 639.592 795.294Q629.559 793.083 619.743 790.051C612.315 794.193 605.477 798.84 598.629 803.861Q587.665 798.014 576.597 792.367C583.679 787.904 591.522 784.485 597.923 779.012C597.84 778.892 597.756 778.773 597.674 778.651C593.84 772.938 588.533 767.979 583.816 762.964C574.426 763.323 565.145 764.552 555.883 766.073L550.602 748.185C559.682 746.76 568.842 745.937 577.922 744.468C578.896 738.064 580.561 732.515 582.943 726.493C573.786 722.179 563.816 719.404 554.304 715.955C560.29 710.081 566.939 704.681 573.232 699.124C580.863 702.842 588.526 706.819 596.563 709.583C600.266 708.132 603.818 705.982 607.408 704.249C611.362 702.34 615.424 700.897 619.577 699.497C616.284 692.833 612.147 686.603 608.195 680.315C617.069 677.532 626.618 676.261 635.774 674.656ZM664.01 774.128C677.861 772.731 694.044 768.791 703.3 757.481C706.814 753.187 708.92 747.843 708.342 742.243C707.63 735.35 702.995 729.401 697.676 725.251C686.028 716.164 667.265 711.117 652.601 712.64C638.078 714.246 621.8 717.392 612.251 729.641C608.713 734.179 606.48 739.892 607.3 745.712C608.327 753.001 613.63 758.803 619.419 762.922C632.437 772.185 648.376 774.8 664.01 774.128Z"/>
	<path fill="#0B0D51" transform="scale(0.666667 0.666667)" d="M652.913 708.708C668.021 707.284 687.909 712.19 700.031 721.511C706.587 726.552 712.095 733.771 713.015 742.21C713.728 748.746 711.384 755.168 707.263 760.202C696.81 772.972 678.086 776.771 662.562 778.189C646.726 779.803 627.775 774.79 615.137 765.042C608.788 760.145 603.403 753.266 602.557 745.053C601.856 738.244 604.481 731.737 608.826 726.59C619.522 713.919 637.191 710.042 652.913 708.708ZM664.01 774.128C677.861 772.731 694.044 768.791 703.3 757.481C706.814 753.187 708.92 747.843 708.342 742.243C707.63 735.35 702.995 729.401 697.676 725.251C686.028 716.164 667.265 711.117 652.601 712.64C638.078 714.246 621.8 717.392 612.251 729.641C608.713 734.179 606.48 739.892 607.3 745.712C608.327 753.001 613.63 758.803 619.419 762.922C632.437 772.185 648.376 774.8 664.01 774.128Z"/>
	<path fill="#0B0D51" transform="scale(0.666667 0.666667)" d="M346.828 322.191C350.859 322.071 354.539 322.951 358.191 324.646C364.502 327.575 370.551 331.478 376.558 334.985Q390.693 343.244 404.918 351.346L510.477 412.285C526.758 403.014 543.47 394.697 559.37 384.749C558.41 383.708 557.413 382.651 556.593 381.494C554.937 379.157 553.63 375.55 554.258 372.673C554.846 369.975 556.791 368.043 559.067 366.624C566.674 361.884 577.192 361 585.782 363.02C590.694 364.175 597.109 366.624 599.718 371.181C600.845 373.148 601.012 375.348 600.407 377.515C599.327 381.38 596.307 384.699 592.816 386.565C584.287 391.124 573.212 389.805 564.379 386.984C548.089 396.519 531.482 405.471 515.085 414.813L588.763 457.192C601.884 464.716 615.817 471.46 628.288 480.012C631.902 482.491 634.891 484.859 637.437 488.475C637.863 495.467 638.553 504.621 636.613 511.364C635.409 515.552 632.803 517.69 629.333 520.036C619.043 526.994 607.517 532.832 596.744 539.077L525.196 580.325L320.556 699.711C314.948 696.872 309.546 693.553 304.31 690.083C291.777 696.737 279.648 704.192 267.38 711.324L210.393 744.161C201.529 749.247 192.763 754.93 183.689 759.592C182.019 760.45 180.362 761.225 178.459 761.301L177.64 760.359L177.841 758.989C178.954 757.449 180.051 756.39 181.649 755.347C191.259 749.079 201.919 744.018 211.823 738.178Q255.626 712.659 299.703 687.616C280.511 677.618 262.364 665.269 243.436 654.725C235.484 660.551 226.205 665.181 217.651 670.121L170.251 697.531L111.73 731.375C112.752 732.424 113.755 733.493 114.573 734.713C116.092 736.976 116.477 740.002 115.836 742.632C115.015 745.999 112.624 748.63 109.662 750.314C102.322 754.487 91.392 754.869 83.3713 752.803C78.7596 751.615 73.8162 749.442 71.4141 745.079Q71.1441 744.59 70.9268 744.075Q70.7094 743.56 70.547 743.025Q70.3846 742.49 70.2789 741.941Q70.1732 741.392 70.1255 740.835Q70.0777 740.278 70.0884 739.719Q70.099 739.161 70.168 738.606Q70.2369 738.051 70.3634 737.507Q70.4899 736.962 70.6726 736.434C71.9745 732.545 75.2995 729.726 78.9189 728.028C88.1352 723.703 98.5984 725.173 107.762 728.68C123.299 719.067 139.501 710.324 155.332 701.188L239.52 652.311C220.968 642.27 203.002 631.168 184.392 621.227C175.268 626.045 166.532 631.914 157.556 637.054L91.3989 674.817C83.0707 679.612 74.9106 685.227 66.3677 689.584C65.066 690.248 63.5212 690.68 62.0517 690.605C60.8397 690.543 60.8321 690.614 60.0021 689.664C60.6328 687.759 62.7429 686.471 64.3449 685.375C68.6546 682.426 73.4868 680.061 78.0108 677.447L100.757 664.152L180.38 618.871C162.629 606.971 143.115 597.284 124.72 586.356C119.452 590.368 59.9384 625.755 55.9271 626.821C54.7098 627.145 54.1146 627.072 53.0474 626.462L52.9223 625.248C53.7438 623.547 54.8384 622.64 56.3746 621.559C63.3909 616.623 71.4993 612.674 78.9665 608.445C92.9089 600.549 106.786 592.647 120.47 584.306C101.132 572.52 81.1581 561.507 61.4458 550.346C51.3068 544.606 38.0269 538.723 29.5228 530.965C29.384 522.027 30.0723 513.072 29.6256 504.135C33.8361 501.185 38.6231 498.751 43.0695 496.154L69.426 480.77L154.393 431.359L277.361 359.769L310.493 340.234C317.696 335.913 324.808 331.28 332.211 327.314C337.008 324.743 341.361 322.766 346.828 322.191ZM321.192 673.345L525.921 554.088L589.613 517.44C601.836 510.45 614.409 503.74 626.314 496.222C628.583 494.789 631.53 492.893 632.609 490.353C632.287 488.062 630.548 486.631 628.807 485.284C622.007 480.026 609.787 474.424 601.895 469.899L534.708 431.279L409.098 359.024L376.823 340.349C370.69 336.76 364.667 332.869 358.342 329.632C353.819 327.318 350.154 325.921 344.965 326.562C331.958 331.52 320.411 339.676 308.402 346.614L238.062 387.684C174.003 425.321 109.086 461.577 45.4349 499.895C41.7001 502.143 36.7542 504.538 34.0504 507.969C34.1572 508.207 34.216 508.473 34.3709 508.683C35.9567 510.832 73.762 531.615 79.2158 534.777L259.136 638.417Q278.639 649.443 297.834 660.995C304.187 664.79 311.982 670.504 318.751 673.151C319.834 673.575 320.09 673.616 321.192 673.345ZM322.542 693.199C330.483 689.237 338.064 684.448 345.681 679.897Q360.216 671.216 374.873 662.742L481.76 600.515L574.637 546.594L606.804 528.177C612.762 524.787 618.977 521.595 624.736 517.888C628.388 515.538 631.629 512.964 633.029 508.685C633.787 506.365 633.651 499.753 632.744 497.524C575.865 531.582 517.938 563.975 460.627 597.307L382.623 642.542C362.575 654.305 342.745 666.494 322.31 677.579C322.12 682.813 322.135 687.975 322.542 693.199ZM317.985 693.546Q318.234 685.866 318.111 678.183C310.633 671.761 296.55 665.16 287.686 660.164L236.301 630.684L101.599 553.214L56.9331 527.261C49.3986 522.886 41.5829 517.569 33.6302 514.116C33.5806 518.941 33.408 523.802 33.6722 528.621C42.1833 535.856 53.3915 540.788 63.1146 546.242L110.228 572.985L203.217 626.814C241.687 648.715 280.446 670.063 317.985 693.546ZM90.2594 729.617C85.4521 730.537 78.945 731.427 75.9793 735.819C74.9162 737.394 74.5777 739.197 75.0312 741.045C75.6869 743.717 77.8654 745.675 80.1943 746.952C85.257 749.73 91.4323 750.033 97.049 749.403C101.581 748.6 107.257 747.817 110.151 743.788Q110.34 743.529 110.502 743.252Q110.665 742.975 110.799 742.684Q110.933 742.392 111.038 742.089Q111.142 741.786 111.216 741.473Q111.29 741.161 111.333 740.843Q111.376 740.525 111.387 740.204Q111.397 739.884 111.377 739.564Q111.356 739.244 111.303 738.927C110.865 736.249 108.936 734.142 106.725 732.714C102.048 729.694 95.6934 729.033 90.2594 729.617ZM581.617 384.92C585.96 384.296 591.473 383.553 594.331 379.825Q594.517 379.586 594.677 379.329Q594.836 379.072 594.968 378.8Q595.1 378.528 595.203 378.243Q595.306 377.958 595.378 377.665Q595.451 377.371 595.492 377.071Q595.533 376.771 595.543 376.469Q595.553 376.166 595.531 375.865Q595.509 375.563 595.455 375.265C595.01 372.707 593.018 370.662 590.893 369.339C585.986 366.282 579.692 365.617 574.04 366.113C569.645 366.756 563.448 367.747 560.749 371.674C559.825 373.017 559.478 374.61 559.787 376.217C560.286 378.802 562.313 380.76 564.495 382.053C569.685 385.127 575.781 385.317 581.617 384.92Z"/>
	<path fill="#0B0D51" transform="scale(0.666667 0.666667)" d="M347.649 372.503C348.109 372.464 348.21 372.439 348.735 372.491C352.057 372.825 355.578 375.132 358.455 376.719C374.11 385.356 547.222 485.657 548.745 487.867C549.486 488.943 549.155 489.406 548.784 490.517C543.62 495.935 511.373 513.128 502.811 518.085L410.052 572.376L357.179 603.535C345.467 610.541 333.893 618.195 321.649 624.236C313.938 621.354 306.404 615.932 299.263 611.769L260.354 589.313L177.925 541.685C160.863 531.895 143.513 522.423 126.678 512.261C124.157 510.74 120.288 508.757 118.842 506.112C119.574 504.633 120.377 504.181 121.755 503.308C132.608 496.435 143.912 490.235 155.027 483.8L218.54 447.137C261.479 422.207 304.059 396.255 347.649 372.503ZM125.554 506.259L286.588 599.149C298.217 605.811 309.492 613.073 321.164 619.665C338.564 610.189 355.265 599.639 372.287 589.523L446.773 545.877L509.772 509.078C520.815 502.663 532.761 496.695 543.247 489.459Q462.322 441.844 380.917 395.056C376.431 392.478 351.419 377.031 348.875 376.394C329.954 388.018 310.525 398.856 291.292 409.954Q248.465 435.006 205.377 459.607Q182.517 472.699 159.857 486.134C148.495 492.921 137.275 500.108 125.554 506.259Z"/>
	<path fill="#0B0D51" transform="scale(0.666667 0.666667)" d="M337.682 408.144C345.889 407.425 355.565 407.847 362.236 413.346C364.896 415.539 366.829 418.569 367.022 422.075C367.191 425.141 365.987 427.965 363.865 430.153C358.694 435.483 350.831 435.994 343.879 436.057C341.971 445.987 340.275 455.954 338.302 465.872C345.652 469.593 388.913 492.948 391.092 496.458C391.58 497.243 391.443 496.909 391.251 497.944C386.388 503.247 374.24 508.632 367.616 512.648C372.972 516.553 379.129 519.872 385.156 522.608Q386.238 521.91 387.371 521.301Q388.504 520.691 389.682 520.173Q390.861 519.655 392.076 519.232Q393.292 518.809 394.537 518.484Q395.782 518.159 397.049 517.933Q398.316 517.707 399.597 517.583Q400.878 517.458 402.165 517.435Q403.451 517.413 404.736 517.492C410.609 517.831 417.805 519.682 421.69 524.347Q421.995 524.707 422.262 525.097Q422.529 525.487 422.755 525.901Q422.981 526.316 423.164 526.752Q423.347 527.187 423.485 527.639Q423.622 528.091 423.713 528.555Q423.804 529.018 423.848 529.488Q423.891 529.959 423.887 530.431Q423.882 530.903 423.83 531.373C423.408 534.941 421.26 537.999 418.464 540.158C413.137 544.271 405.754 544.9 399.269 544.151C393.763 543.515 387.224 541.698 383.799 537.049C381.18 533.493 381.092 530.057 381.696 525.859C375.438 522.663 369.481 518.98 363.535 515.247C356.291 518.138 349.134 522.427 342.317 526.25C340.279 527.393 339.149 527.767 338.487 530.108Q335.764 544.86 332.704 559.546C336.155 560.265 339.761 561.531 342.822 563.299C345.798 565.017 348.751 567.575 349.487 571.091C350.088 573.966 349.109 577.029 347.453 579.39C344.241 583.969 338.285 586.315 332.95 587.163C325.371 588.369 317.415 587.728 311.105 582.925C308.075 580.618 305.565 577.271 305.234 573.372C304.979 570.368 306.104 567.547 308.134 565.356C313.125 559.968 321.365 559.312 328.243 559.059C330.696 548.484 332.579 537.811 334.706 527.17C326.973 522.825 286.092 500.997 284.481 496.209C287.965 491.837 327.018 470.723 334.665 466.045C335.565 455.892 337.557 445.997 339.453 435.992C335.371 435.129 331.48 434.263 327.943 431.919C324.784 429.826 322.208 426.733 321.564 422.912C321.073 419.996 321.79 417.157 323.597 414.82C326.953 410.482 332.51 408.948 337.682 408.144Z"/>
	<path fill="#FA8281" transform="scale(0.666667 0.666667)" d="M336.543 470.369C341.04 470.692 379.39 493.767 385.326 497.405Q362.215 509.883 339.521 523.102C339.358 523.16 339.2 523.236 339.032 523.275C335.049 524.195 297.119 500.383 291.274 496.801Q313.636 483.118 336.543 470.369Z"/>
	<path fill="#FA8281" transform="scale(0.666667 0.666667)" d="M339.462 412.651C345.956 412.25 352.499 412.156 358.15 415.967C360.261 417.39 362.392 419.608 362.798 422.228C363.047 423.834 362.587 425.242 361.603 426.522C359.104 429.776 353.399 431.04 349.529 431.676C343.264 432.298 337.308 432.35 331.651 429.064C329.146 427.609 326.564 425.297 325.972 422.324C325.667 420.788 325.98 419.279 326.882 418.004C329.468 414.348 335.331 413.423 339.462 412.651Z"/>
	<path fill="#FA8281" transform="scale(0.666667 0.666667)" d="M322.58 563.634C327.864 563.029 333.614 563.609 338.407 565.987C341.038 567.292 343.739 569.402 344.593 572.344C345.048 573.911 344.894 575.535 344.056 576.952C341.761 580.838 336.724 581.972 332.697 583.127C326.673 583.869 320.69 583.609 315.347 580.366C312.78 578.808 310.407 576.466 309.809 573.415C309.486 571.766 309.848 570.177 310.812 568.806C313.291 565.286 318.63 564.387 322.58 563.634Z"/>
	<path fill="#FA8281" transform="scale(0.666667 0.666667)" d="M398.04 521.622C403.403 520.949 409.473 521.188 414.162 524.113C416.383 525.498 418.419 527.712 418.977 530.336C419.32 531.947 418.998 533.559 418.01 534.884C415.833 537.806 411.485 538.793 408.088 539.402C402.897 540.169 396.997 540.132 392.171 537.862C389.566 536.637 386.846 534.468 386.023 531.588C385.588 530.066 385.854 528.713 386.654 527.377C388.782 523.824 394.246 522.378 398.04 521.622Z"/>
	<path fill="#0B0D51" transform="scale(0.666667 0.666667)" d="M201.259 494.201C206.8 493.903 213.053 494.911 217.832 497.814C221.033 499.759 223.786 502.762 224.595 506.506C225.233 509.457 224.579 512.43 222.834 514.888C219.069 520.19 212.56 521.36 206.617 522.496C199.575 522.667 192.512 522.088 186.652 517.709C183.797 515.576 181.574 512.609 181.096 509.007C180.738 506.315 181.512 503.69 183.154 501.542C187.308 496.109 194.896 494.876 201.259 494.201Z"/>
	<path fill="#FA8281" transform="scale(0.666667 0.666667)" d="M198.609 498.59C203.899 498.295 208.852 498.31 213.764 500.68C216.386 501.944 219.162 504.033 220.059 506.935C220.546 508.51 220.404 510.115 219.561 511.541C217.309 515.346 212.131 516.449 208.175 517.48C202.722 518.096 196.855 517.803 191.852 515.368C189.218 514.086 186.278 511.909 185.413 508.963C185.018 507.617 185.18 506.222 185.9 505.005C188.268 501.003 194.371 499.574 198.609 498.59Z"/>
	<path fill="#0B0D51" transform="scale(0.666667 0.666667)" d="M267.797 449.219C272.595 448.824 278.248 449.877 282.485 452.126C287.403 454.736 289.958 458.449 291.547 463.668C290.811 465.745 290.076 467.648 288.656 469.365C284.198 474.755 277.732 476.141 271.127 476.762C265.01 477.161 257.768 476.123 252.694 472.515C249.885 470.517 247.733 467.654 247.315 464.162C246.953 461.138 247.945 458.183 249.892 455.866C254.258 450.667 261.474 449.811 267.797 449.219Z"/>
	<path fill="#FA8281" transform="scale(0.666667 0.666667)" d="M263.934 453.583C269.118 453.33 273.797 453.259 278.697 455.361C281.697 456.648 284.837 458.785 285.963 462.002Q286.059 462.274 286.125 462.555Q286.191 462.836 286.225 463.122Q286.259 463.409 286.262 463.697Q286.264 463.986 286.234 464.273Q286.205 464.559 286.144 464.841Q286.083 465.123 285.991 465.397Q285.899 465.67 285.777 465.932Q285.656 466.193 285.506 466.44C283.33 470.099 278.509 471.338 274.706 472.48C269.593 472.748 264.698 472.803 259.797 471.065C256.66 469.954 253.086 468.021 251.707 464.799C251.069 463.308 251.108 461.92 251.763 460.449C253.522 456.497 260.161 454.798 263.934 453.583Z"/>
	<path fill="#0B0D51" transform="scale(0.666667 0.666667)" d="M266.727 520.721C273.179 520.298 279.692 520.73 285.204 524.536C288.315 526.684 290.791 529.882 291.287 533.71Q291.354 534.219 291.368 534.732Q291.383 535.246 291.345 535.758Q291.308 536.27 291.219 536.776Q291.13 537.282 290.99 537.776Q290.85 538.27 290.661 538.747Q290.472 539.225 290.235 539.68Q289.999 540.136 289.717 540.566Q289.436 540.995 289.112 541.394C285.231 546.216 278.635 547.274 272.858 547.859C266.246 548.014 259.302 547.671 253.621 543.851C250.724 541.902 248.448 539.138 247.864 535.623C247.437 533.05 248.176 530.362 249.738 528.29C253.673 523.072 260.607 521.544 266.727 520.721Z"/>
	<path fill="#FA8281" transform="scale(0.666667 0.666667)" d="M265.989 525.135C270.728 524.461 276.05 525.064 280.353 527.175C282.819 528.384 285.748 530.552 286.429 533.392C286.802 534.949 286.667 536.378 285.827 537.765C283.519 541.578 278.331 542.475 274.368 543.505C268.534 543.797 262.443 543.72 257.26 540.643C255.104 539.363 252.89 537.348 252.337 534.796C252.055 533.491 252.327 532.271 253.062 531.164C255.61 527.324 261.721 525.968 265.989 525.135Z"/>
	<path fill="#0B0D51" transform="scale(0.666667 0.666667)" d="M459.781 477.612C466.373 476.974 473.277 477.194 479.233 480.448C484.135 483.127 486.35 486.739 487.864 491.898C487.272 493.737 486.65 495.51 485.443 497.048C482.176 501.207 477.174 503.474 471.986 503.978C465.416 505.077 457.816 504.521 451.9 501.318C448.224 499.327 444.551 496.047 443.516 491.836C442.973 489.623 443.301 487.404 444.513 485.465C447.632 480.472 454.389 478.75 459.781 477.612Z"/>
	<path fill="#FA8281" transform="scale(0.666667 0.666667)" d="M461.257 481.627C466.097 481.125 471.317 481.505 475.77 483.57C478.494 484.833 481.201 486.908 482.146 489.878C482.691 491.59 482.529 493.356 481.571 494.901C479.232 498.673 473.839 499.56 469.84 500.406C464.388 500.786 458.774 500.33 453.935 497.562C451.53 496.186 449.292 494.133 448.587 491.359C448.182 489.761 448.432 488.198 449.317 486.808C451.641 483.159 457.33 482.347 461.257 481.627Z"/>
	<path fill="#0B0D51" transform="scale(0.666667 0.666667)" d="M396.074 441.61C402.645 441.079 409.334 441.282 415.178 444.729C418.517 446.699 421.545 449.8 422.34 453.712C422.822 456.086 422.311 458.429 420.975 460.441C417.842 465.158 412.027 466.949 406.81 468.175C399.824 468.826 392.827 468.424 386.69 464.604C383.475 462.602 380.74 459.649 380.041 455.819C379.602 453.416 380.164 451.064 381.552 449.066C384.844 444.329 390.752 442.736 396.074 441.61Z"/>
	<path fill="#FA8281" transform="scale(0.666667 0.666667)" d="M398.797 445.672C403.264 445.025 409.505 446.225 413.224 448.761C415.152 450.076 416.765 451.985 417.169 454.341C417.497 456.255 416.974 458.062 415.758 459.57C412.907 463.104 407.855 463.669 403.655 464.23C399.069 464.538 394.206 464.145 390.106 461.903C387.746 460.611 385.577 458.599 384.968 455.882C384.554 454.034 384.968 452.221 386.102 450.705C388.99 446.84 394.39 446.3 398.797 445.672Z"/>
	<path fill="#0B0D51" transform="scale(0.666667 0.666667)" d="M692.874 45.144C694.006 45.0541 695.135 44.994 696.269 45.0874C703.808 45.7081 710.626 50.4012 715.359 56.0837C720.288 62.0021 724.139 70.373 723.189 78.2246C722.775 81.6449 721.327 84.8833 718.529 87.0016C714.535 90.0265 710.124 89.5954 705.474 89.0917L705.244 132.526C705.186 145.957 704.926 159.359 706.674 172.706Q720.756 179.964 734.757 187.376C745.081 192.951 753.145 197.696 756.697 209.571C774.426 220.365 793.744 228.66 811.95 238.621C812.27 236.913 812.631 235.193 813.185 233.543C814.28 230.281 816.623 227.304 819.808 225.886C823.387 224.292 827.421 224.752 830.968 226.179C838.798 229.331 845.292 237.37 848.499 244.989C850.887 250.661 851.964 257.172 849.392 262.977C848.013 266.092 845.925 268.355 842.666 269.498C838.5 270.958 834.063 269.929 830.249 267.931C820.884 263.022 815.386 253.327 812.358 243.585C793.554 235.156 774.774 224.357 756.503 214.719C755.57 233.545 755.679 256.359 756.27 275.276C763.687 278.37 770.685 282.669 777.76 286.471L811.976 304.651C812.415 302.694 812.938 300.587 813.863 298.802C815.257 296.111 817.638 293.923 820.556 293.029C825.207 291.604 830.445 293.309 834.487 295.666C842.954 300.602 848.961 310.211 851.281 319.582C852.539 324.66 852.862 330.316 849.896 334.88C848.152 337.565 845.63 338.967 842.503 339.514C837.27 340.43 831.435 337.589 827.293 334.535C819.699 328.933 814.498 319.888 813.077 310.607L812.981 309.938C793.697 301.067 775.192 290.127 756.447 280.169C756.372 288.297 758.416 300.42 754.328 307.662C752.99 310.032 750.848 311.654 748.232 312.377C737.603 315.315 714.402 299.091 704.709 293.339C704.299 301.233 704.496 309.235 704.43 317.146Q704.065 343.993 704.588 370.836C711.38 374.596 717.2 379.73 720.932 386.625C723.74 391.813 725.367 398.313 723.469 404.071C721.908 408.807 718.286 411.688 713.952 413.795C712.491 414.083 710.972 414.312 709.486 414.399C703.458 414.75 697.573 411.656 693.252 407.669C687.271 402.151 683.02 394.142 682.82 385.91C682.712 381.485 683.893 377.033 687.069 373.818C690.838 370 695.301 369.423 700.37 369.405C699.765 360.74 700.242 351.718 700.259 343.013L700.433 291.446C693.794 288.322 687.385 284.333 680.865 280.927C670.884 275.714 653.719 268.419 645.696 261.559C644.214 252.589 645.096 242.629 645.06 233.525C638.515 230.712 632.067 227.07 625.748 223.764Q609.128 215.117 592.722 206.07C592.595 207.723 592.404 209.409 591.948 211.007C590.879 214.75 588.11 218.268 584.627 220.032C581.063 221.838 576.905 221.839 573.157 220.605C565.201 217.985 557.998 210.564 554.451 203.122C551.738 197.428 550.472 190.418 552.764 184.388C554.141 180.767 556.81 177.604 560.421 176.08C564.514 174.352 569.128 174.934 573.134 176.62C583.847 181.126 588.795 191.901 592.877 201.991C600.139 204.88 607.181 208.908 614.123 212.502Q629.754 220.441 645.112 228.898Q645.25 200.739 645.082 172.581C639.704 169.92 634.538 166.547 629.29 163.6Q611.018 153.203 592.232 143.768C592.13 143.949 592.029 144.132 591.924 144.312C589.523 148.415 586.86 151.255 582.037 152.385C577.279 153.499 572.301 152.272 568.207 149.73C561.019 145.268 554.912 136.858 553.06 128.592C552.006 123.889 552.214 118.649 554.938 114.525C556.866 111.607 559.762 109.68 563.202 109.036C568.375 108.067 573.907 110.125 578.09 113.084C586.704 119.179 590.77 128.389 592.548 138.477C609.967 148.499 627.85 157.708 645.212 167.833C644.942 162.929 644.39 156.58 646.551 152.084C647.566 149.97 649.122 148.448 651.406 147.805C654.44 146.951 657.835 147.56 660.775 148.49C671.561 151.902 691.026 164.265 701.776 170.266C700.728 159.469 701.03 148.543 701.029 137.706Q701.112 112.803 700.856 87.9021C695.746 84.9365 691.311 79.584 688.395 74.5128C684.996 68.6008 682.577 61.0167 684.626 54.2689C685.987 49.79 688.895 47.3043 692.874 45.144ZM649.416 259.405C667.497 269.258 685.893 278.543 704.011 288.341C714.704 294.123 725.16 300.902 736.228 305.897C739.378 307.318 742.424 308.587 745.942 308.566C748.789 306.748 750.942 305.103 751.616 301.629C753.431 292.288 752.116 274.636 752.08 264.224C752.021 247.192 752.747 229.918 751.919 212.918C751.811 210.702 751.797 205.283 750.564 203.475C748.781 200.859 743.994 198.125 741.304 196.514C727.998 188.545 713.692 181.933 700.081 174.449C687.8 167.696 675.788 159.788 663.2 153.723C660.916 152.623 658.62 151.701 656.063 151.553C653.866 152.123 651.957 152.386 650.626 154.396C649.487 156.118 649.476 159.089 649.364 161.094C648.598 174.813 649.193 188.859 649.245 202.605C649.316 221.53 649.081 240.484 649.416 259.405ZM823.683 229.446C820.51 230.945 818.264 232.318 816.968 235.727C815.221 240.318 816.857 245.551 818.931 249.756C822.146 256.277 827.974 262.76 835.009 265.112C836.521 265.618 837.844 265.743 839.425 265.661C842.702 264.01 845.071 262.326 846.24 258.687C847.853 253.667 845.753 248.126 843.288 243.74C840.016 237.916 834.565 232.002 827.999 230.065Q825.888 229.43 823.683 229.446ZM580.083 148.434C583.401 147.011 585.975 145.345 587.331 141.825C589.037 137.395 587.403 132.21 585.394 128.174C582.448 122.253 576.635 116.175 570.259 114.065C568.657 113.534 566.973 113.246 565.303 113.027C562.201 113.844 559.869 115.095 558.179 117.931C556.236 121.19 556.583 125.317 557.605 128.818C559.71 136.032 565.213 143.238 571.951 146.642C574.504 147.933 577.226 148.508 580.083 148.434ZM581.622 216.532C584.584 215.013 586.629 213.167 587.772 209.956C589.568 204.906 587.605 198.767 585.236 194.18C581.864 187.651 576.131 182.077 568.988 179.943C566.995 179.348 565.021 179.442 562.968 179.521C559.453 181.768 557.215 183.985 556.293 188.186C554.945 194.324 557.623 201.108 561.078 206.14C564.599 211.268 569.907 215.876 576.226 216.837C578.039 217.112 579.838 216.879 581.622 216.532ZM696.666 49.544C693.163 50.7506 690.355 51.9546 688.739 55.5429C686.954 59.5041 688.046 64.0543 689.583 67.905C692.339 74.8123 698.117 81.4605 705.004 84.4339C706.808 85.2128 708.498 85.5733 710.452 85.654C713.933 84.4079 716.675 83.1787 718.262 79.5814C720.02 75.5971 718.819 70.8448 717.162 67.0409C714.302 60.4788 708.332 53.3943 701.493 50.7955C699.957 50.2117 698.284 49.8184 696.666 49.544ZM822.473 297.511C819.387 299.355 817.409 301.305 816.584 304.927C815.252 310.781 818.196 317.365 821.384 322.199C825.255 328.069 831.457 333.981 838.557 335.361C839.456 335.536 840.274 335.549 841.185 335.518C844.426 333.638 846.525 332.096 847.528 328.285C849.099 322.321 846.101 315.515 842.943 310.517C839.395 304.902 833.956 299.236 827.296 297.662C825.664 297.276 824.126 297.352 822.473 297.511ZM697.136 373.611C693.716 374.421 690.811 375.839 688.835 378.872C686.65 382.225 686.667 386.458 687.592 390.225C689.326 397.286 694.462 404.092 700.714 407.798C703.555 409.481 706.582 410.488 709.894 410.395C713.458 409.458 716.761 407.798 718.609 404.431C720.536 400.92 720.119 396.559 718.943 392.875C716.65 385.69 710.919 379.044 704.231 375.583C701.921 374.388 699.696 373.89 697.136 373.611Z"/>
	<path fill="#0B0D51" transform="scale(0.666667 0.666667)" d="M658.529 166.661C659.911 166.912 661.241 167.177 662.543 167.731C672.312 171.884 682.334 178.385 691.769 183.445C708.148 192.228 725.387 200.449 741.01 210.505L741.066 269.945C741.061 281.381 741.721 293.296 740.334 304.642C733.654 303.942 704.062 286.488 696.413 282.452Q677.532 272.512 658.533 262.801C658.081 251.791 658.454 240.623 658.47 229.597L658.529 166.661ZM662.477 259.576Q699.48 279.612 736.896 298.869L736.924 213.107Q715.498 201.079 693.764 189.616C683.318 184.015 672.611 178.577 662.605 172.221Q662.25 215.899 662.477 259.576Z"/>
	<path fill="#0B0D51" transform="scale(0.666667 0.666667)" d="M300.498 744.195C306.06 743.815 311.993 744.346 317.148 746.594C322.8 749.059 325.4 752.784 327.657 758.262L327.49 758.788C325.874 763.751 322.79 767.207 318.048 769.466C310.025 773.286 299.496 772.893 291.235 770.089C281.081 776.363 270.548 782.091 260.196 788.036L199.092 823.217C186.829 830.289 174.413 837.188 162.381 844.645C164.688 846.604 166.69 848.536 167.477 851.563C168.144 854.129 167.52 856.606 166.049 858.769C162.28 864.314 155.35 866.281 149.119 867.363C145.958 867.493 142.506 867.249 139.373 866.806C134.07 866.058 127.972 864.134 124.74 859.592C123.159 857.371 122.474 854.69 122.986 851.996C123.652 848.49 126.232 845.732 129.18 843.906C137.453 838.782 148.356 839.904 157.34 842.166C172.63 834.266 187.144 824.932 202.041 816.335L286.641 767.836C284.06 765.607 281.623 762.958 280.888 759.52C280.341 756.966 280.977 754.396 282.513 752.301C286.539 746.808 294.109 745.033 300.498 744.195ZM306.658 768.092C311.616 767.103 317.903 766.139 321.044 761.675C322.001 760.315 322.431 758.705 322.099 757.061C321.589 754.538 319.545 752.678 317.406 751.435C312.993 748.87 307.537 748.174 302.514 748.21C297.549 748.752 290.677 749.704 287.417 753.908C286.225 755.446 285.759 757.289 286.155 759.201C286.694 761.796 288.863 763.852 291.045 765.171C295.883 768.094 301.199 768.293 306.658 768.092ZM147.96 863.292C152.56 862.527 159.031 861.547 161.914 857.458C162.888 856.075 163.281 854.474 162.946 852.808C162.477 850.477 160.736 848.702 158.784 847.471C154.322 844.658 148.55 844.147 143.389 844.194C138.688 844.788 132.157 845.796 128.975 849.644C127.896 850.949 127.315 852.507 127.525 854.208C127.807 856.501 129.435 858.344 131.275 859.605C135.888 862.767 142.465 863.657 147.96 863.292Z"/>
	<path fill="#0B0D51" transform="scale(0.666667 0.666667)" d="M625.49 59.6783C630.462 59.8543 634.961 61.6933 638.978 64.5715C647.184 70.4515 653.338 79.8353 654.897 89.8533C655.679 94.8792 655.52 100.641 652.28 104.821C649.69 108.161 646.029 109.606 641.962 110.13C635.752 109.687 630.864 107.694 626.035 103.828C618.315 97.6467 612.485 88.3117 611.423 78.3717C610.911 73.5817 611.317 68.273 614.606 64.4812C617.514 61.13 621.25 60.0071 625.49 59.6783ZM642.312 105.712C645.852 104.275 648.393 102.819 649.967 99.1877C652.113 94.2384 650.684 88.2384 648.637 83.4753C645.31 75.7329 638.785 67.9774 630.849 64.7828C628.675 63.9079 626.699 63.9215 624.387 63.998C620.816 65.2841 618.156 66.9895 616.534 70.5621C614.395 75.2719 615.616 80.9531 617.519 85.541C620.851 93.5746 627.51 101.318 635.717 104.577C637.953 105.464 639.922 105.7 642.312 105.712Z"/>
	<path fill="#0B0D51" transform="scale(0.666667 0.666667)" d="M757.96 121.091C760.671 120.771 763.364 120.721 766.019 121.424C774.705 123.724 781.674 130.621 786.155 138.163C790.045 144.708 792.969 153.734 790.794 161.31C789.349 166.345 786.167 168.91 781.755 171.225C778.973 171.506 776.388 171.446 773.683 170.674C764.58 168.076 757.032 160.708 752.719 152.464C749.384 146.089 746.726 137.102 749.204 130.056C750.801 125.513 753.778 123.136 757.96 121.091ZM780.53 166.838C783.797 164.836 785.782 162.893 786.768 159.084C788.442 152.615 785.593 145.309 782.179 139.842C778.157 133.401 771.825 127.167 764.166 125.567C762.624 125.245 761.203 125.366 759.657 125.577C756.352 127.506 754.34 129.603 753.378 133.407C751.728 139.932 754.681 147.548 758.14 153.066C761.996 159.218 768.272 165.081 775.527 166.673C777.23 167.046 778.807 167.006 780.53 166.838Z"/>
	<path fill="#0B0D51" transform="scale(0.666667 0.666667)" d="M760.197 341.595C765.364 341.295 769.7 342.3 774.127 345.064C782.181 350.093 787.86 358.839 789.956 368.015C791.164 373.3 791.682 379.738 788.537 384.453C786.075 388.143 783.021 389.192 778.874 389.987C774.511 389.754 770.753 388.84 766.89 386.735C758.489 382.156 751.78 374.18 749.086 364.967C747.557 359.74 747.124 353.766 749.952 348.895C752.159 345.092 756.078 342.778 760.197 341.595ZM776.19 385.663C779.252 385.481 782.261 384.257 784.297 381.887C786.564 379.25 786.71 375.348 786.29 372.07C785.196 363.532 780.217 355.068 773.33 349.911C770.094 347.488 767.087 346.226 763.107 345.605C759.176 346.854 755.584 348.498 753.475 352.29C751.417 355.99 751.972 360.368 753.232 364.23Q753.493 365.005 753.792 365.767Q754.091 366.528 754.428 367.274Q754.764 368.019 755.136 368.748Q755.509 369.476 755.917 370.185Q756.325 370.894 756.768 371.582Q757.21 372.27 757.686 372.936Q758.162 373.601 758.67 374.242Q759.178 374.883 759.717 375.499Q760.256 376.114 760.824 376.702Q761.393 377.29 761.99 377.849Q762.587 378.409 763.211 378.938Q763.834 379.467 764.484 379.965Q765.133 380.463 765.805 380.928Q766.478 381.393 767.173 381.825Q767.868 382.256 768.584 382.653Q769.299 383.05 770.033 383.411C772 384.387 774.1 385.014 776.19 385.663Z"/>
	<path fill="#0B0D51" transform="scale(0.666667 0.666667)" d="M624.547 277.667C628.055 277.618 631.279 277.947 634.604 279.138C642.696 282.037 649.32 288.826 652.78 296.615C655.248 302.17 656.564 309.483 654.154 315.229C652.187 319.919 648.426 322.35 643.856 324.108C638.205 324.269 633.488 323.302 628.627 320.319C621.111 315.707 614.906 307.751 612.963 299.074C611.85 294.099 611.71 288.328 614.658 283.925C616.998 280.43 620.534 278.551 624.547 277.667ZM641.378 320.322C645.139 319.104 647.857 317.698 649.779 314.072C652.003 309.877 651.358 304.723 649.81 300.415C647.275 293.362 641.747 287.103 634.942 283.934C632.186 282.65 629.301 281.897 626.254 281.992C622.78 283.022 619.829 284.505 617.934 287.756C615.948 291.164 616.261 295.291 617.372 298.934C619.833 307.003 626.123 314.459 633.683 318.209C636.057 319.387 638.724 320.182 641.378 320.322Z"/>
	<path fill="#0B0D51" transform="scale(0.666667 0.666667)" d="M720.87 499.172C728.965 498.324 737.894 498.964 744.953 503.436C748.311 505.564 751.091 508.79 751.889 512.765C752.564 516.13 751.708 519.57 749.674 522.315C745.537 527.896 738.188 529.881 731.635 530.772C723.445 531.495 714.025 530.553 706.993 525.944C703.709 523.792 700.976 520.681 700.229 516.732C699.654 513.697 700.361 510.668 702.102 508.135C706.257 502.085 714.089 500.272 720.87 499.172ZM727.949 526.868C734.112 526.128 741.187 525.158 745.398 520.04C746.615 518.561 747.303 516.671 747.96 514.894C746.101 510.22 743.863 507.42 739.086 505.314C734.754 503.405 729.017 502.645 724.296 503.2C718.491 503.665 710.721 504.621 706.669 509.283C705.198 510.975 704.36 513.169 704.682 515.421C705.105 518.388 707.352 520.752 709.764 522.335C715.218 525.914 721.613 526.575 727.949 526.868Z"/>
	<path fill="#0B0D51" transform="scale(0.666667 0.666667)" d="M266.804 942.21C274.113 941.954 282.566 943 288.69 947.318C291.862 949.555 294.419 952.818 295.007 956.734C295.503 960.036 294.446 963.283 292.386 965.87C287.461 972.053 279.396 973.261 272.072 974.175C265.098 975.246 255.725 973.452 250.014 969.313C246.853 967.022 244.37 963.785 243.8 959.846C243.305 956.426 244.425 953.047 246.571 950.384C251.426 944.361 259.562 942.934 266.804 942.21Z"/>
	<path fill="#FBFBFA" transform="scale(0.666667 0.666667)" d="M265.235 947.158C271.403 946.18 279.264 947.006 284.598 950.34C287.199 951.966 289.446 954.397 289.998 957.504C290.391 959.721 289.784 961.975 288.409 963.748C285.569 967.408 279.489 969.011 275.048 969.47C268.152 970.496 260.046 970.317 253.963 966.527C251.422 964.944 249.135 962.589 248.522 959.564C248.122 957.593 248.589 955.667 249.763 954.044C253.101 949.427 259.901 947.926 265.235 947.158Z"/>
</svg>
