<?xml version="1.0" encoding="utf-8" ?>
<svg xmlns="http://www.w3.org/2000/svg" xmlns:xlink="http://www.w3.org/1999/xlink" width="683" height="683">
	<path fill="#789694" transform="scale(1.33333 1.33333)" d="M190.55 117.305C190.19 114.032 190.446 82.706 190.907 81.6434C191.47 80.3448 192.838 79.7991 194.054 79.2836C201.676 79.1504 199.754 88.6341 199.744 93.685L199.721 113.159C202.868 114.448 216.782 124.704 218.759 127.461C218.984 131.585 218.774 135.823 218.772 139.957L218.759 164.366L251.554 164.366L251.554 128.828C253.237 126.422 256.78 124.248 259.391 126.741C262.407 129.62 261.059 137.954 261.057 141.666L261.036 164.366L292.805 164.366L292.786 141.656C292.781 126.69 290.689 129.147 303.057 120.17C306.216 117.877 309.325 115.515 312.437 113.159L312.422 93.2471C312.418 89.1674 310.591 79.3309 317.128 79.3961C323.765 79.4623 321.44 90.9541 321.437 94.9513C321.431 102.37 321.814 109.905 321.46 117.305C319.579 120.497 306.114 129.411 302.281 132.381L302.281 164.366C328.318 164.642 347.753 162.671 347.742 195.512L347.721 208.31C358.944 208.432 370.18 208.317 381.404 208.31C383.372 204.727 389.256 195.303 391.845 192.519C394.365 189.811 423.258 190.151 428.981 191.128C433.974 191.98 433.119 199.411 428.418 200.117C425.249 200.593 421.641 200.248 418.42 200.245L397.607 200.225C395.044 204.44 389.139 214.832 385.4 217.309C381.176 217.506 376.863 217.323 372.632 217.321L347.721 217.309L347.721 251.257C351.993 251.252 381.262 250.628 383.118 251.92C386.814 254.494 385.163 259.897 380.951 260.474C377.304 260.974 373.244 260.644 369.553 260.641L347.721 260.62L347.721 294.182L371.095 294.169C391.657 294.167 384.709 294.589 397.607 311.489L417.84 311.51C420.803 311.513 435.823 309.921 432.555 317.695C430.402 322.819 414.969 320.7 410.547 320.687C406.343 320.675 396.75 321.919 393.128 320.103C390.471 318.771 382.498 306.526 381.404 303.373L347.721 303.373C346.957 316.145 350.391 329.031 340.186 339.226C332.7 346.704 325.941 347.019 315.94 346.985L302.281 346.966L302.29 368.438C302.297 372.125 302.532 375.882 302.281 379.556C305.306 380.686 320.814 390.21 321.257 393.785C321.998 399.757 322.054 423.436 321.18 429.198C320.821 431.564 318.065 432.239 316.062 432.462C310.564 429.886 312.406 423.121 312.417 418.067L312.437 397.833C306.582 392.59 299.185 389.09 293.539 383.752C293.176 379.965 293.52 375.866 293.524 372.045L293.539 346.966L261.036 346.966C259.619 354.607 263.215 378.457 259.566 382.952C257.232 385.827 252.162 384.247 251.594 380.697C251.132 377.808 251.544 373.91 251.545 370.925L251.554 346.966L218.759 346.966C218.611 351.145 218.744 355.372 218.746 359.555L218.759 383.752C214.42 388.114 205.112 393.408 199.721 397.833L199.735 419.363C199.735 422.428 200.08 425.958 199.65 428.979C199.162 432.407 194.131 433.642 191.769 431.355C189.391 429.054 190.529 419.538 190.542 416.39L190.55 393.647C194.18 388.992 204.469 382.742 209.74 379.556L209.74 346.966L196.396 346.986C174.111 346.985 164.493 339.229 164.639 316.502L164.666 303.373L142.701 303.36C139.237 303.352 135.588 303.015 132.156 303.373C127.291 307.519 120.695 319.898 114.787 320.584C108.823 321.276 89.5145 321.248 83.6956 320.515C79.9241 320.04 78.3333 315.513 81.1857 312.776C83.7118 310.352 91.0426 311.472 94.2354 311.473L113.254 311.489C115.371 307.467 124.007 295.987 128.364 294.182C131.539 293.591 135.534 294.162 138.819 294.169L164.666 294.182L164.666 260.62L143.251 260.616C139.736 260.614 127.25 262.143 126.795 256.663C126.166 249.076 137.367 251.233 141.908 251.236L164.666 251.257L164.666 217.309C159.968 217.228 129.325 218.274 126.931 216.176C122.082 211.926 118.878 204.961 113.535 200.458L113.254 200.225C106.497 198.701 85.1612 203.008 80.8187 197.867C78.4287 195.038 80.5321 190.861 84.0164 190.59C91.471 190.011 101.555 190.849 109.435 190.719C120.286 190.54 117.944 190.899 124.856 199.434L132.156 208.31L164.666 208.31L164.659 196.086C164.643 172.584 173.846 164.344 197.025 164.348L209.74 164.366L209.74 132.381C205.072 127.282 196.337 121.553 190.55 117.305ZM241.619 173.682L205.189 173.692C179.462 173.681 173.755 171.673 173.748 202.044L173.742 229.815C173.739 260.092 173.416 290.411 173.757 320.684C173.93 336.1 184.292 338.042 197.054 337.987L270.92 337.956L306.357 337.964C317.984 337.96 334.852 340.601 338.116 324.971C339.017 320.657 338.495 314.273 338.496 309.726L338.494 197.812C338.485 176.397 333.669 173.662 314.437 173.667L241.619 173.682Z"/>
	<path fill="#789694" transform="scale(1.33333 1.33333)" d="M251.554 98.6334C251.254 93.7104 249.506 85.0652 255.356 83.0142C264.216 82.4251 262.964 98.6991 257.749 101.358C254.988 101.651 253.369 100.765 251.554 98.6334Z"/>
	<path fill="#789694" transform="scale(1.33333 1.33333)" d="M311.511 316.632L213.669 316.641C192.059 316.674 195.723 317.654 195.73 297.16L195.737 221.93C195.735 214.593 195.352 207.034 195.768 199.723C195.976 196.074 198.157 195.358 201.45 195.04L298.943 195.023C320.788 194.987 317.02 193.749 317.028 214.192L317.031 289.183C317.03 297.037 320.749 315.965 311.511 316.632ZM204.757 204.237L204.757 307.424L298.152 307.448C301.26 307.454 304.751 307.805 307.81 307.424L307.81 204.237L204.757 204.237Z"/>
	<path fill="#789694" transform="scale(1.33333 1.33333)" d="M99.1695 260.62C94.9754 260.65 79.9252 262.664 82.6691 254.368C83.2079 252.739 84.1885 251.969 85.6918 251.257C89.1403 251.135 95.6158 250.625 98.7863 251.392C104.13 252.686 103.265 258.484 99.1695 260.62Z"/>
	<path fill="#789694" transform="scale(1.33333 1.33333)" d="M425.181 260.62C422.45 260.685 413.189 261.14 411.145 259.928C407.185 257.58 408.792 252.015 413.005 251.257C416.682 251.23 423.615 250.51 426.785 251.916C431.399 253.962 429.388 259.666 425.181 260.62Z"/>
	<path fill="#789694" transform="scale(1.33333 1.33333)" d="M257.749 429.963C248.179 431.18 249.594 412.815 254.223 410.315C256.354 410.052 258.913 410.003 260.15 412.155C261.689 414.831 262.859 427.271 257.749 429.963Z"/>
</svg>
