<?xml version="1.0" encoding="utf-8" ?>
<svg xmlns="http://www.w3.org/2000/svg" xmlns:xlink="http://www.w3.org/1999/xlink" width="683" height="683">
	<path fill="#789694" transform="scale(1.33333 1.33333)" d="M182.729 194.799C182.719 189.531 182.487 184.15 182.842 178.898C185.048 146.237 210.186 121.125 242.456 117.233C262.159 115.949 281.185 122.318 295.244 136.439C312.79 154.062 314.778 171.898 314.747 194.799L403.065 194.799C411.174 168.14 452.227 186.394 437.32 210.542C428.429 224.944 406.573 220.99 403.065 204.802C398.095 205.177 392.852 204.807 387.849 204.806L325.424 204.805C319.96 204.804 314.281 205.138 308.852 204.632C302.485 204.04 304.6 195.043 304.62 190.557C304.668 179.197 303.783 170.058 298.934 159.512C274.601 106.6 194.821 123.233 192.918 181.67C192.014 209.437 197.266 204.817 169.417 204.799L87.8942 204.79C81.1523 204.775 70.8268 202.488 70.1377 211.177C69.7929 215.524 70.1011 220.142 70.1087 224.513L70.1076 272.619C69.9805 291.665 69.227 289.785 86.4873 289.759L179.317 289.737L179.301 280.05C179.306 256.329 190.997 256.525 210.6 256.584L210.575 238.338C210.572 234.144 210.405 229.872 210.83 225.696C214.096 193.601 253.93 178.985 276.51 201.716C287.41 212.689 287.696 222.984 287.7 237.441L287.688 256.584C303.192 256.539 315.75 255.352 320.26 273.943C320.206 279.206 320.254 284.473 320.26 289.737C322.064 289.55 324.039 289.715 325.859 289.719L372.493 289.737L372.493 266.631C345.167 254.473 367.098 218.618 388.761 232.741C402.79 241.887 398.585 263.209 382.598 266.631L382.598 293.028C388.069 297.776 398.012 307.849 402.314 313.295L415.296 313.295C425.184 286.019 463.627 306.514 449.652 329.202C440.413 344.2 418.361 339.775 414.491 323.304L398.689 323.304L383.846 308.215C381.074 305.417 378.362 302.496 375.359 299.944L320.26 299.944L320.275 318.963C320.281 344.54 312.7 364.437 289.642 378.781C283.286 382.735 276.18 385.316 269.355 388.321C250.722 396.526 252.421 398.135 232.228 389.023C196.422 372.867 179.332 361.911 179.308 318.461L179.317 299.944L178.696 299.975C171.828 300.268 164.801 299.949 157.917 299.946L88.4011 299.963C58.7276 299.993 59.7517 294.384 59.7832 266.324L59.7736 220.045C59.767 197.725 63.9639 194.737 85.7675 194.776L182.729 194.799ZM419.454 192.063Q419.245 192.103 419.039 192.154Q418.832 192.204 418.628 192.265Q418.424 192.326 418.223 192.396Q418.023 192.466 417.826 192.547Q417.629 192.627 417.436 192.716Q417.243 192.806 417.055 192.905Q416.866 193.004 416.683 193.112Q416.5 193.22 416.322 193.337Q416.144 193.454 415.973 193.579Q415.801 193.704 415.635 193.838Q415.47 193.972 415.311 194.113Q415.152 194.255 415.001 194.404Q414.849 194.553 414.705 194.709Q414.56 194.866 414.424 195.029Q414.288 195.192 414.159 195.362Q414.031 195.531 413.911 195.707Q413.791 195.883 413.68 196.064Q413.569 196.245 413.467 196.432Q413.365 196.618 413.272 196.81Q413.179 197.001 413.095 197.197Q413.012 197.392 412.938 197.592Q412.864 197.791 412.8 197.994Q412.736 198.197 412.682 198.403Q412.628 198.608 412.584 198.816Q412.54 199.024 412.506 199.234Q412.472 199.444 412.449 199.656Q412.425 199.867 412.412 200.08Q412.399 200.292 412.396 200.505Q412.394 200.717 412.401 200.93Q412.409 201.142 412.427 201.354Q412.445 201.566 412.473 201.777Q412.501 201.988 412.54 202.197Q412.579 202.406 412.627 202.613Q412.676 202.82 412.735 203.025Q412.794 203.229 412.862 203.43Q412.931 203.632 413.009 203.829Q413.088 204.027 413.176 204.221Q413.264 204.414 413.361 204.603Q413.458 204.793 413.565 204.977Q413.671 205.161 413.786 205.34Q413.902 205.518 414.026 205.691Q414.149 205.864 414.282 206.031Q414.414 206.197 414.554 206.357Q414.694 206.518 414.842 206.67Q414.99 206.823 415.145 206.969Q415.3 207.115 415.462 207.252Q415.624 207.39 415.792 207.52Q415.961 207.65 416.135 207.771Q416.31 207.893 416.49 208.005Q416.671 208.118 416.856 208.222Q417.042 208.326 417.232 208.42Q417.423 208.515 417.618 208.6Q417.813 208.685 418.011 208.761Q418.21 208.837 418.413 208.902Q418.615 208.968 418.82 209.024Q419.025 209.08 419.233 209.126Q419.441 209.171 419.65 209.207Q419.86 209.243 420.071 209.268Q420.282 209.293 420.495 209.308Q420.707 209.323 420.919 209.328Q421.132 209.332 421.345 209.327Q421.557 209.321 421.769 209.305Q421.981 209.289 422.192 209.262Q422.404 209.236 422.613 209.199Q422.825 209.162 423.035 209.114Q423.244 209.067 423.451 209.009Q423.659 208.951 423.863 208.883Q424.067 208.815 424.267 208.737Q424.468 208.659 424.664 208.571Q424.86 208.484 425.052 208.386Q425.244 208.289 425.431 208.182Q425.617 208.076 425.799 207.96Q425.98 207.844 426.155 207.719Q426.331 207.595 426.499 207.462Q426.668 207.329 426.831 207.188Q426.993 207.046 427.148 206.897Q427.303 206.748 427.45 206.592Q427.598 206.435 427.737 206.271Q427.877 206.108 428.008 205.937Q428.14 205.767 428.262 205.591Q428.385 205.414 428.499 205.232Q428.613 205.049 428.718 204.861Q428.822 204.673 428.918 204.481Q429.013 204.288 429.099 204.091Q429.185 203.893 429.261 203.692Q429.337 203.491 429.402 203.286Q429.468 203.081 429.524 202.874Q429.58 202.666 429.625 202.456Q429.67 202.246 429.705 202.033Q429.74 201.821 429.765 201.607Q429.789 201.394 429.803 201.179Q429.817 200.964 429.82 200.749Q429.824 200.534 429.816 200.319Q429.809 200.104 429.791 199.89Q429.773 199.676 429.744 199.463Q429.716 199.25 429.677 199.038Q429.638 198.826 429.589 198.617Q429.539 198.408 429.48 198.201Q429.42 197.994 429.35 197.791Q429.28 197.588 429.201 197.388Q429.121 197.188 429.031 196.992Q428.942 196.797 428.843 196.606Q428.744 196.415 428.636 196.229Q428.527 196.043 428.41 195.863Q428.293 195.683 428.167 195.509Q428.04 195.334 427.906 195.167Q427.771 194.999 427.629 194.838Q427.486 194.677 427.336 194.523Q427.185 194.369 427.027 194.223Q426.869 194.077 426.705 193.939Q426.54 193.801 426.368 193.671Q426.197 193.541 426.019 193.42Q425.841 193.299 425.658 193.187Q425.474 193.074 425.286 192.971Q425.097 192.868 424.903 192.774Q424.71 192.681 424.512 192.597Q424.314 192.513 424.112 192.438Q423.91 192.364 423.705 192.3Q423.499 192.236 423.291 192.182Q423.083 192.128 422.872 192.085Q422.662 192.041 422.449 192.008Q422.237 191.975 422.023 191.953Q421.809 191.93 421.594 191.918Q421.379 191.906 421.164 191.905Q420.949 191.903 420.734 191.913Q420.519 191.922 420.305 191.942Q420.091 191.961 419.878 191.992Q419.665 192.022 419.454 192.063ZM246.911 200.839C223.678 203.992 220.852 221.628 220.862 240.283L220.873 256.584L252.133 256.584L277.495 256.584L277.51 238.04C277.511 226.479 277.879 217.402 269.017 208.625C263.231 202.894 254.97 200.152 246.911 200.839ZM377.097 239.971Q376.885 240.006 376.675 240.051Q376.466 240.096 376.258 240.151Q376.051 240.206 375.846 240.272Q375.642 240.337 375.441 240.412Q375.24 240.488 375.043 240.573Q374.846 240.658 374.653 240.752Q374.461 240.847 374.273 240.951Q374.085 241.055 373.903 241.168Q373.72 241.281 373.544 241.402Q373.367 241.524 373.196 241.655Q373.026 241.785 372.862 241.923Q372.698 242.062 372.541 242.208Q372.384 242.354 372.235 242.508Q372.085 242.662 371.943 242.823Q371.801 242.984 371.667 243.152Q371.533 243.32 371.408 243.494Q371.283 243.668 371.166 243.848Q371.049 244.028 370.941 244.213Q370.833 244.399 370.735 244.59Q370.636 244.78 370.547 244.975Q370.458 245.171 370.378 245.37Q370.299 245.569 370.229 245.772Q370.159 245.975 370.1 246.181Q370.04 246.388 369.991 246.596Q369.941 246.805 369.902 247.016Q369.863 247.227 369.834 247.44Q369.805 247.652 369.787 247.866Q369.769 248.08 369.761 248.295Q369.753 248.509 369.756 248.724Q369.758 248.938 369.771 249.152Q369.785 249.367 369.808 249.58Q369.832 249.793 369.866 250.005Q369.9 250.217 369.944 250.427Q369.989 250.637 370.044 250.844Q370.098 251.052 370.163 251.257Q370.228 251.461 370.302 251.662Q370.377 251.864 370.461 252.061Q370.546 252.258 370.64 252.451Q370.734 252.644 370.837 252.832Q370.94 253.02 371.053 253.203Q371.165 253.386 371.287 253.563Q371.408 253.74 371.538 253.911Q371.667 254.082 371.805 254.246Q371.943 254.411 372.089 254.568Q372.235 254.725 372.388 254.875Q372.542 255.026 372.702 255.168Q372.863 255.31 373.03 255.445Q373.198 255.579 373.371 255.705Q373.545 255.831 373.725 255.948Q373.904 256.066 374.09 256.174Q374.275 256.283 374.465 256.382Q374.655 256.481 374.85 256.571Q375.045 256.66 375.244 256.741Q375.443 256.821 375.646 256.891Q375.849 256.961 376.055 257.021Q376.261 257.082 376.47 257.132Q376.678 257.182 376.889 257.222Q377.1 257.262 377.313 257.291Q377.525 257.32 377.739 257.339Q377.953 257.358 378.167 257.367Q378.382 257.375 378.596 257.373Q378.811 257.371 379.025 257.359Q379.239 257.346 379.453 257.323Q379.666 257.3 379.878 257.267Q380.091 257.233 380.302 257.19Q380.513 257.146 380.721 257.091Q380.93 257.037 381.135 256.973Q381.341 256.908 381.543 256.834Q381.745 256.759 381.944 256.675Q382.142 256.59 382.336 256.496Q382.53 256.402 382.719 256.299Q382.908 256.196 383.091 256.083Q383.275 255.971 383.453 255.849Q383.631 255.728 383.803 255.598Q383.974 255.467 384.14 255.329Q384.305 255.191 384.463 255.044Q384.621 254.898 384.772 254.744Q384.923 254.59 385.066 254.429Q385.209 254.268 385.344 254.1Q385.479 253.932 385.605 253.758Q385.732 253.583 385.849 253.403Q385.967 253.222 386.076 253.036Q386.185 252.85 386.284 252.659Q386.384 252.468 386.474 252.272Q386.564 252.077 386.644 251.877Q386.724 251.677 386.794 251.473Q386.865 251.269 386.925 251.063Q386.985 250.856 387.035 250.646Q387.085 250.437 387.125 250.225Q387.164 250.013 387.194 249.799Q387.223 249.586 387.241 249.371Q387.26 249.157 387.268 248.941Q387.276 248.726 387.273 248.511Q387.271 248.295 387.258 248.08Q387.245 247.865 387.221 247.651Q387.197 247.437 387.163 247.224Q387.129 247.011 387.084 246.801Q387.04 246.59 386.985 246.381Q386.93 246.173 386.865 245.968Q386.799 245.762 386.724 245.56Q386.649 245.358 386.564 245.16Q386.479 244.962 386.385 244.769Q386.29 244.575 386.186 244.387Q386.082 244.198 385.969 244.014Q385.856 243.831 385.734 243.654Q385.612 243.476 385.481 243.305Q385.35 243.133 385.212 242.969Q385.073 242.804 384.926 242.646Q384.779 242.489 384.625 242.338Q384.47 242.188 384.309 242.045Q384.147 241.903 383.979 241.769Q383.81 241.634 383.635 241.508Q383.461 241.382 383.28 241.265Q383.099 241.148 382.913 241.04Q382.727 240.931 382.535 240.833Q382.344 240.734 382.148 240.644Q381.952 240.555 381.751 240.475Q381.551 240.396 381.347 240.326Q381.143 240.256 380.936 240.197Q380.729 240.137 380.519 240.088Q380.31 240.039 380.098 240Q379.886 239.961 379.672 239.932Q379.459 239.904 379.244 239.886Q379.029 239.868 378.814 239.861Q378.599 239.853 378.383 239.856Q378.168 239.86 377.953 239.874Q377.738 239.887 377.524 239.912Q377.31 239.936 377.097 239.971ZM222.561 266.631L206.137 266.607C184.55 266.595 189.42 273.975 189.424 292.846C189.429 317.76 185.066 343.919 205.226 362.581C213.911 370.62 225.031 374.713 235.667 379.475C254.092 387.724 249.259 386.276 269.327 377.319C273.82 375.302 278.452 373.403 282.763 371.018C304.197 359.163 310.195 341.009 310.208 318.386L310.21 285.75C310.205 279.766 311.447 269.868 304.126 267.424C299.682 265.941 276.105 266.629 270.084 266.629L222.561 266.631ZM432.507 310.439Q432.286 310.455 432.065 310.482Q431.845 310.509 431.626 310.546Q431.407 310.584 431.19 310.632Q430.973 310.681 430.759 310.74Q430.545 310.799 430.334 310.868Q430.123 310.938 429.916 311.018Q429.709 311.098 429.506 311.188Q429.303 311.278 429.105 311.378Q428.906 311.478 428.713 311.587Q428.52 311.697 428.332 311.816Q428.145 311.935 427.964 312.063Q427.782 312.191 427.607 312.328Q427.432 312.464 427.264 312.61Q427.097 312.755 426.936 312.909Q426.775 313.062 426.623 313.223Q426.47 313.384 426.325 313.553Q426.181 313.721 426.044 313.897Q425.908 314.072 425.781 314.254Q425.654 314.436 425.535 314.624Q425.417 314.812 425.308 315.006Q425.2 315.199 425.1 315.398Q425.001 315.597 424.912 315.8Q424.823 316.004 424.744 316.211Q424.665 316.419 424.596 316.63Q424.528 316.841 424.469 317.055Q424.411 317.27 424.364 317.486Q424.316 317.703 424.279 317.922Q424.242 318.141 424.217 318.362Q424.191 318.583 424.176 318.804Q424.161 319.026 424.156 319.248Q424.152 319.47 424.159 319.692Q424.166 319.914 424.184 320.135Q424.202 320.356 424.231 320.577Q424.259 320.797 424.299 321.015Q424.338 321.234 424.389 321.45Q424.439 321.667 424.5 321.88Q424.561 322.094 424.632 322.304Q424.704 322.514 424.785 322.721Q424.867 322.927 424.959 323.13Q425.05 323.332 425.152 323.529Q425.254 323.727 425.365 323.919Q425.476 324.111 425.597 324.298Q425.717 324.484 425.847 324.664Q425.977 324.845 426.115 325.018Q426.253 325.192 426.4 325.359Q426.547 325.526 426.702 325.685Q426.857 325.844 427.019 325.995Q427.181 326.147 427.351 326.29Q427.521 326.433 427.698 326.568Q427.874 326.702 428.057 326.828Q428.24 326.954 428.429 327.07Q428.618 327.187 428.813 327.294Q429.007 327.401 429.207 327.499Q429.407 327.596 429.611 327.683Q429.815 327.771 430.023 327.848Q430.231 327.925 430.443 327.992Q430.655 328.059 430.87 328.115Q431.085 328.172 431.302 328.217Q431.519 328.263 431.739 328.298Q431.958 328.333 432.179 328.357Q432.399 328.381 432.621 328.394Q432.843 328.407 433.065 328.409Q433.287 328.411 433.509 328.403Q433.731 328.394 433.952 328.374Q434.171 328.354 434.388 328.324Q434.606 328.294 434.822 328.253Q435.038 328.213 435.251 328.161Q435.465 328.11 435.676 328.048Q435.886 327.987 436.094 327.915Q436.302 327.843 436.505 327.761Q436.709 327.679 436.909 327.588Q437.108 327.496 437.303 327.395Q437.498 327.293 437.688 327.183Q437.878 327.072 438.062 326.952Q438.246 326.832 438.424 326.703Q438.602 326.575 438.773 326.438Q438.945 326.3 439.109 326.155Q439.274 326.009 439.431 325.856Q439.589 325.703 439.738 325.542Q439.888 325.381 440.029 325.213Q440.171 325.045 440.304 324.871Q440.438 324.696 440.562 324.515Q440.687 324.334 440.802 324.148Q440.918 323.961 441.024 323.769Q441.131 323.576 441.227 323.379Q441.324 323.182 441.411 322.981Q441.498 322.779 441.576 322.573Q441.653 322.368 441.72 322.158Q441.787 321.949 441.844 321.737Q441.9 321.525 441.947 321.31Q441.993 321.095 442.029 320.879Q442.065 320.662 442.09 320.444Q442.115 320.226 442.129 320.006Q442.144 319.787 442.148 319.568Q442.151 319.348 442.145 319.128Q442.138 318.909 442.12 318.69Q442.102 318.471 442.074 318.253Q442.046 318.035 442.007 317.819Q441.968 317.603 441.919 317.389Q441.869 317.175 441.809 316.964Q441.75 316.752 441.68 316.544Q441.609 316.336 441.529 316.131Q441.449 315.927 441.359 315.727Q441.269 315.526 441.17 315.331Q441.07 315.135 440.961 314.944Q440.852 314.753 440.733 314.568Q440.615 314.383 440.488 314.204Q440.361 314.025 440.225 313.852Q440.089 313.68 439.945 313.514Q439.801 313.348 439.649 313.19Q439.497 313.031 439.338 312.88Q439.178 312.729 439.012 312.586Q438.845 312.443 438.672 312.308Q438.498 312.173 438.318 312.047Q438.139 311.921 437.953 311.804Q437.767 311.687 437.576 311.579Q437.385 311.471 437.188 311.372Q436.992 311.274 436.791 311.185Q436.59 311.096 436.385 311.017Q436.18 310.938 435.972 310.869Q435.763 310.8 435.551 310.742Q435.34 310.683 435.125 310.635Q434.911 310.587 434.695 310.549Q434.478 310.511 434.26 310.484Q434.042 310.457 433.823 310.441Q433.604 310.425 433.385 310.419Q433.165 310.413 432.946 310.418Q432.726 310.423 432.507 310.439Z"/>
	<path fill="#789694" transform="scale(1.33333 1.33333)" d="M240.615 145.29C241.261 143.017 241.892 141.403 244.191 140.284C261.606 139.553 277.896 146.656 286.407 162.647C288.329 166.259 288.245 169.815 284.206 171.738C274.779 173.219 275.163 151.488 250.345 150.425C245.289 150.209 242.414 150.692 240.615 145.29Z"/>
	<path fill="#789694" transform="scale(1.33333 1.33333)" d="M89.5733 276.454C78.6374 278.697 82.9799 251.702 82.9808 244.961C82.9817 237.568 80.0464 222.672 86.816 219.284C91.2755 218.971 93.0619 221.305 93.2756 225.352C93.5353 230.271 93.737 271.282 93.1105 273.145C92.5481 274.817 91.0854 275.749 89.5733 276.454Z"/>
	<path fill="#789694" transform="scale(1.33333 1.33333)" d="M236.783 321.3C226.415 310.494 233.017 294.039 246.911 291.297C264.786 290.222 273.893 308.917 261.636 322.229C262.487 325.546 263.021 329.005 263.701 332.366C267.077 349.04 268.699 349.641 252.133 349.49C235.956 349.423 230.609 353.815 234.159 335.07L236.783 321.3ZM248.145 301.296Q247.958 301.331 247.773 301.374Q247.587 301.418 247.404 301.47Q247.221 301.523 247.041 301.585Q246.861 301.646 246.684 301.716Q246.507 301.787 246.334 301.866Q246.161 301.944 245.992 302.032Q245.823 302.119 245.658 302.214Q245.493 302.31 245.333 302.413Q245.174 302.516 245.019 302.627Q244.864 302.738 244.715 302.857Q244.566 302.975 244.423 303.101Q244.28 303.226 244.144 303.359Q244.007 303.491 243.877 303.63Q243.747 303.769 243.624 303.914Q243.501 304.06 243.385 304.211Q243.269 304.362 243.161 304.518Q243.053 304.675 242.952 304.836Q242.851 304.998 242.759 305.164Q242.666 305.331 242.582 305.501Q242.498 305.672 242.422 305.847Q242.346 306.021 242.279 306.199Q242.212 306.377 242.154 306.558Q242.095 306.74 242.046 306.923Q241.996 307.107 241.956 307.293Q241.915 307.479 241.884 307.667Q241.853 307.855 241.831 308.044Q241.809 308.233 241.796 308.423Q241.783 308.613 241.78 308.803Q241.776 308.993 241.782 309.183Q241.788 309.374 241.803 309.563Q241.819 309.753 241.843 309.942Q241.867 310.131 241.901 310.318Q241.935 310.505 241.977 310.691Q242.02 310.876 242.072 311.059Q242.124 311.243 242.184 311.423Q242.245 311.603 242.314 311.781Q242.384 311.958 242.462 312.132Q242.54 312.305 242.626 312.475Q242.713 312.644 242.807 312.81Q242.902 312.975 243.004 313.135Q243.107 313.295 243.217 313.451Q243.327 313.606 243.445 313.755Q243.563 313.905 243.688 314.049Q243.813 314.192 243.944 314.329Q244.076 314.467 244.215 314.598Q244.353 314.728 244.498 314.852Q244.642 314.976 244.793 315.092Q244.943 315.209 245.099 315.318Q245.255 315.427 245.416 315.528Q245.577 315.63 245.743 315.723Q245.909 315.816 246.079 315.901Q246.25 315.987 246.424 316.063Q246.598 316.14 246.776 316.208Q246.954 316.276 247.135 316.335Q247.315 316.395 247.499 316.445Q247.683 316.495 247.868 316.536Q248.054 316.578 248.242 316.61Q248.429 316.642 248.618 316.665Q248.807 316.688 248.997 316.702Q249.187 316.715 249.377 316.72Q249.568 316.724 249.758 316.719Q249.948 316.714 250.138 316.7Q250.328 316.686 250.517 316.662Q250.706 316.639 250.893 316.606Q251.082 316.573 251.268 316.531Q251.455 316.489 251.64 316.437Q251.824 316.386 252.006 316.326Q252.188 316.265 252.366 316.196Q252.545 316.127 252.72 316.049Q252.895 315.971 253.065 315.885Q253.236 315.798 253.403 315.704Q253.569 315.609 253.731 315.506Q253.892 315.403 254.049 315.293Q254.205 315.182 254.355 315.064Q254.506 314.946 254.651 314.82Q254.796 314.695 254.934 314.562Q255.072 314.43 255.204 314.291Q255.335 314.152 255.46 314.006Q255.585 313.861 255.702 313.709Q255.819 313.558 255.929 313.401Q256.039 313.244 256.141 313.082Q256.242 312.92 256.336 312.753Q256.43 312.586 256.515 312.415Q256.601 312.243 256.678 312.068Q256.755 311.893 256.823 311.714Q256.891 311.535 256.95 311.353Q257.01 311.171 257.06 310.986Q257.11 310.801 257.151 310.614Q257.192 310.427 257.224 310.238Q257.256 310.049 257.278 309.859Q257.301 309.669 257.314 309.478Q257.327 309.287 257.331 309.095Q257.335 308.904 257.329 308.713Q257.323 308.521 257.308 308.33Q257.293 308.139 257.268 307.949Q257.244 307.76 257.21 307.571Q257.176 307.383 257.133 307.196Q257.09 307.009 257.038 306.825Q256.986 306.641 256.925 306.459Q256.863 306.278 256.793 306.1Q256.723 305.921 256.645 305.747Q256.566 305.572 256.479 305.402Q256.391 305.231 256.296 305.065Q256.2 304.899 256.097 304.738Q255.993 304.577 255.882 304.421Q255.77 304.266 255.652 304.115Q255.533 303.965 255.406 303.821Q255.28 303.677 255.147 303.539Q255.014 303.402 254.874 303.271Q254.735 303.14 254.589 303.016Q254.443 302.892 254.291 302.775Q254.139 302.659 253.982 302.55Q253.824 302.441 253.661 302.34Q253.499 302.238 253.331 302.145Q253.164 302.052 252.992 301.968Q252.82 301.883 252.645 301.807Q252.469 301.731 252.29 301.664Q252.11 301.596 251.928 301.538Q251.746 301.479 251.561 301.43Q251.376 301.381 251.188 301.341Q251.001 301.3 250.812 301.269Q250.623 301.238 250.433 301.217Q250.243 301.195 250.051 301.183Q249.86 301.171 249.669 301.168Q249.477 301.165 249.286 301.172Q249.095 301.178 248.904 301.194Q248.713 301.21 248.523 301.236Q248.333 301.261 248.145 301.296ZM246.077 326.292C245.175 330.573 243.761 335.36 244.191 339.747L252.133 339.747C252.97 339.695 253.913 339.725 254.68 339.373C254.098 334.983 252.877 330.661 252.133 326.292C250.1 326.411 248.11 326.377 246.077 326.292Z"/>
</svg>
