<?xml version="1.0" encoding="utf-8" ?>
<svg xmlns="http://www.w3.org/2000/svg" xmlns:xlink="http://www.w3.org/1999/xlink" width="683" height="683">
	<path fill="#131228" transform="scale(0.666667 0.666667)" d="M483.989 227.229C545.194 225.551 605.454 242.788 660.733 267.855C665.421 265.497 670.299 263.527 674.989 261.132C674.412 258.343 674.069 255.607 673.785 252.777C684.683 245.214 701.477 236.072 713.711 230.758C717.115 239.348 720.34 248.009 723.787 256.58C726.718 250.016 731.233 246.575 737.092 242.799C748.188 246.67 759.252 253.363 769.795 258.637C770.019 269.929 772.307 284.048 775.599 294.809C784.054 292.868 791.628 287.979 799.785 285.075C805.151 295.204 810.01 305.526 814.884 315.899C808.888 320.542 801.523 324.117 794.916 327.846C797.414 338.431 799.656 349.197 803.292 359.464C808.088 361.743 812.88 364.055 817.487 366.699C813.586 375.556 809.604 390.996 804.501 398.383C803.675 399.579 802.49 400.313 801.268 401.052C806.024 408.339 811.451 415.211 816.341 422.417C823.02 432.259 829.052 442.583 834.931 452.918Q837.522 457.513 840.007 462.166Q842.493 466.818 844.872 471.526Q847.25 476.234 849.522 480.995Q851.793 485.756 853.955 490.568Q856.117 495.379 858.169 500.239Q860.221 505.098 862.162 510.003Q864.103 514.908 865.932 519.856Q867.761 524.803 869.476 529.792Q871.192 534.78 872.794 539.805Q874.396 544.831 875.883 549.892Q877.37 554.953 878.741 560.047Q880.112 565.141 881.367 570.264Q882.622 575.388 883.76 580.538Q884.899 585.689 885.919 590.864Q886.94 596.039 887.842 601.237Q888.745 606.434 889.529 611.65C890.898 621.026 892.388 630.675 892.794 640.139C910.409 650.111 927.524 661.096 944.943 671.423C955.245 677.531 965.72 683.335 975.992 689.498C982.097 693.16 989.116 696.789 994.13 701.902C996.373 708.547 996.563 722.654 994.268 729.269C992.918 733.158 987.471 735.739 984.037 737.899C974.916 743.635 965.482 748.899 956.202 754.373L906.021 784.133L795.564 851.118L719.228 897.393C706.298 905.19 693.344 914.178 679.691 920.604C664.093 912.518 649.486 902.565 634.62 893.237L561.324 847.677Q483.355 800.968 406.122 753.049C385.51 740.187 364.601 727.577 344.442 714.017Q344.529 700.111 343.942 686.217C355.627 679.558 367.029 672.16 378.556 665.207C406.614 648.279 434.829 631.24 463.365 615.143Q446.423 604.736 429.274 594.673C419.287 588.911 408.889 583.594 399.656 576.653C400.435 562.958 399.853 549.197 400.23 535.487C395.307 533.484 390.963 530.971 388.908 525.774Q388.673 525.172 388.499 524.549Q388.325 523.926 388.213 523.29Q388.102 522.653 388.053 522.008Q388.005 521.364 388.021 520.717Q388.036 520.071 388.116 519.429Q388.195 518.788 388.337 518.157Q388.48 517.526 388.684 516.913Q388.888 516.299 389.151 515.709C390.572 512.487 393.242 509.819 396.536 508.54C400.392 507.043 404.763 507.74 408.428 509.441C410.722 510.8 412.585 512.557 413.811 514.952C415.421 518.094 415.588 521.716 414.507 525.059C412.843 530.202 409.282 532.85 404.679 535.135Q404.654 554.731 404.118 574.319C424.939 587.554 446.736 599.138 467.685 612.184C484.305 602.585 500.623 592.462 517.508 583.325Q487.369 564.761 456.525 547.394C455.986 532.592 456.275 517.864 456.608 503.063C452.901 501.669 449.249 500.065 447.147 496.514C445.223 493.265 444.184 489.349 445.347 485.652C446.393 482.325 448.999 479.641 452.083 478.097C455.663 476.304 459.81 476.121 463.596 477.363C466.881 478.441 469.572 480.626 471.059 483.776C472.58 486.997 472.892 491.492 471.514 494.81C469.614 499.383 465.276 501.318 460.983 503.024L460.866 544.499C481.201 556.313 501.886 567.815 521.82 580.282C528.099 577.276 534.09 573.405 540.083 569.859L569.841 552.229C557.696 544.431 544.744 537.588 532.264 530.322C525.822 526.572 518.766 522.991 513.172 518.022C512.017 503.932 512.717 489.751 512.665 475.639C508.956 473.817 505.639 471.448 503.71 467.678C502.114 464.558 501.982 460.909 503.169 457.627Q503.417 456.95 503.734 456.302Q504.051 455.655 504.433 455.044Q504.816 454.432 505.26 453.865Q505.704 453.297 506.205 452.778Q506.706 452.259 507.258 451.795Q507.81 451.332 508.407 450.928Q509.005 450.524 509.641 450.185Q510.277 449.845 510.945 449.574C514.31 448.187 518.317 448.028 521.663 449.559C524.959 451.068 527.171 454.107 528.371 457.456Q528.605 458.127 528.77 458.819Q528.934 459.51 529.028 460.215Q529.121 460.919 529.143 461.63Q529.165 462.34 529.114 463.049Q529.063 463.758 528.941 464.458Q528.819 465.158 528.626 465.843Q528.433 466.527 528.172 467.188Q527.911 467.849 527.584 468.48C525.3 472.912 521.31 474.575 516.831 476.013Q517.221 495.75 517.066 515.49C535.666 527.426 555.22 537.919 574.134 549.351C590.143 540.66 605.877 531.144 621.538 521.832C630.468 516.521 647.362 504.316 656.889 502.207C661.243 501.243 666.85 503.024 670.773 504.979C679.861 509.506 688.585 515.958 697.298 521.257Q726.499 538.748 755.428 556.686C770.342 565.977 785.496 574.856 800.508 583.983L888.165 636.939C881.985 566.278 856.748 495.279 819.136 435.241C811.096 422.408 802.569 409.366 792.405 398.105C791.611 402.053 790.549 405.966 789.589 409.876C778.201 417.083 767.057 425.234 755.081 431.415C752.537 427.919 749.931 424.457 747.668 420.769C738.509 422.938 729.451 425.546 720.281 427.711C712.042 424.634 703.799 419.518 695.914 415.55C696.192 405.554 698.307 395.744 698.368 385.667C695.826 381.183 692.803 376.125 687.975 373.842C680.386 370.254 669.468 375.117 662.157 377.755C658.982 373.069 650.457 358.86 650.986 353.596C651.507 348.407 666.043 338.429 670.334 334.902C667.996 313.127 662.058 313.665 648.628 299.247C651.007 289.959 654.325 280.802 657.49 271.757Q653.066 269.564 648.587 267.484Q644.109 265.405 639.579 263.439Q635.05 261.474 630.471 259.624Q625.893 257.774 621.27 256.041Q616.646 254.308 611.98 252.693Q607.314 251.078 602.608 249.581Q597.902 248.085 593.16 246.709Q588.418 245.333 583.643 244.077Q578.867 242.821 574.062 241.688Q569.256 240.554 564.423 239.542Q559.59 238.53 554.733 237.642Q549.875 236.753 544.997 235.988Q540.119 235.223 535.223 234.582Q530.327 233.941 525.417 233.424Q520.506 232.907 515.584 232.516Q510.662 232.124 505.731 231.857C482.782 230.402 459.397 231.93 436.674 235.269C432.85 235.831 426.767 237.359 423.149 235.716C422.237 235.302 422.558 235.553 422.142 234.54C422.233 234.398 422.307 234.243 422.416 234.114C427.626 227.929 475.443 227.518 483.989 227.229ZM349.224 688.923C361.547 698.026 375.598 705.728 388.638 713.806L461.147 758.72L673.847 889.896C675.851 891.107 678.322 893.035 680.633 893.362L681.301 893.059L924.328 746.569L963.897 722.94C971.149 718.649 985.051 711.886 990.604 706.047C990.77 705.141 990.884 705.466 990.401 704.747C987.713 700.738 920.726 662.703 910.349 656.4L756.984 563.297L703.567 530.652C693.586 524.501 683.744 518.028 673.617 512.129C669.762 509.883 665.37 507.346 660.893 506.754Q659.647 506.589 658.391 506.533C654.182 507.692 650.363 509.861 646.583 511.997C630.425 521.131 614.786 531.331 598.764 540.737L445.136 631.363C422.01 645.065 398.677 658.41 375.682 672.33C366.952 677.616 357.12 682.463 349.224 688.923ZM708.45 302.036C703.146 303.394 699.128 305.98 696.354 310.82C691.405 319.456 692.442 331.324 695.109 340.504C698.854 353.392 707.552 366.169 719.567 372.577C724.239 375.069 729.049 376.303 734.367 375.864C739.68 374.288 743.929 371.602 746.628 366.606C751.579 357.44 749.51 345.091 746.44 335.65C742.453 323.39 733.765 310.745 722.024 304.797C717.68 302.596 713.292 301.779 708.45 302.036ZM677.625 913.115Q677.899 905.639 678.022 898.16L445.499 754.868C413.286 734.84 380.713 715.255 349.104 694.286L348.996 711.058C365.24 722.581 382.895 732.556 399.777 743.143L518.94 816.48L624.613 881.37C642 892.078 658.893 903.597 676.78 913.472L677.553 913.33L677.625 913.115ZM683.021 913.456C704.593 901.205 725.614 887.792 746.854 874.961L887.858 789.641L952.096 751.082C964.52 743.781 979.367 736.903 990.388 727.818C991.088 723.114 991.406 717.678 990.356 713.007L776.077 841.648C759.47 851.686 743.007 862.042 726.265 871.843C711.747 880.341 695.981 888.318 682.591 898.547C682.438 901.979 681.323 910.815 683.021 913.456ZM766.301 298.969C768.153 298.377 770.026 297.823 771.85 297.151C768.116 286.281 768.109 275.367 765.41 264.429Q756.94 261.377 748.526 258.176C747.305 267.559 743.823 290.81 749.573 298.342C750.969 300.171 752.702 301.076 754.985 301.253C758.617 301.534 762.856 300.094 766.301 298.969ZM795.106 394.435L800.43 396.649C804.384 387.767 807.885 378.505 810.995 369.291C808.298 367.816 799.089 361.931 796.864 361.964C793.211 363.44 789.572 364.943 785.831 366.185C783.092 372.942 780.845 379.91 778.491 386.809C784.073 389.136 789.841 391.447 795.106 394.435ZM517.391 471.58C520.269 470.293 522.552 468.607 523.798 465.606C524.787 463.222 524.824 460.532 523.698 458.185C522.723 456.15 520.856 454.429 518.719 453.68C517.178 453.139 515.626 452.983 514.007 452.981C510.934 454.56 508.562 456.315 507.546 459.773C506.812 462.271 507.112 464.928 508.476 467.15C509.831 469.357 512.01 470.827 514.538 471.337C515.492 471.529 516.418 471.588 517.391 471.58ZM460.754 498.314Q461.038 498.245 461.316 498.158Q461.595 498.071 461.867 497.965Q462.14 497.86 462.405 497.737Q462.669 497.613 462.925 497.473Q463.181 497.333 463.427 497.175Q463.674 497.018 463.909 496.845Q464.144 496.672 464.368 496.484Q464.591 496.296 464.801 496.094Q465.012 495.891 465.208 495.675Q465.405 495.459 465.587 495.231Q465.769 495.003 465.935 494.763Q466.102 494.523 466.252 494.272Q466.402 494.022 466.535 493.762Q466.669 493.502 466.785 493.234Q466.901 492.966 466.999 492.691Q467.096 492.416 467.176 492.135Q467.256 491.854 467.316 491.568Q467.377 491.283 467.419 490.994Q467.461 490.705 467.483 490.414Q467.506 490.123 467.509 489.831Q467.513 489.539 467.497 489.247Q467.481 488.956 467.446 488.666Q467.411 488.376 467.357 488.089Q467.302 487.802 467.229 487.519Q467.156 487.237 467.065 486.959Q466.973 486.682 466.863 486.411Q466.754 486.141 466.627 485.878Q466.499 485.615 466.355 485.361Q466.211 485.108 466.05 484.864Q465.889 484.62 465.712 484.388Q465.536 484.155 465.344 483.935Q465.153 483.714 464.947 483.507Q464.741 483.3 464.522 483.107Q464.303 482.913 464.072 482.735Q463.841 482.557 463.599 482.394Q463.356 482.231 463.104 482.085Q462.851 481.939 462.589 481.809Q462.327 481.68 462.058 481.568Q461.788 481.457 461.511 481.363Q461.235 481.269 460.953 481.194Q460.671 481.119 460.384 481.063Q460.098 481.006 459.808 480.969Q459.518 480.931 459.227 480.913Q458.936 480.895 458.644 480.896Q458.352 480.897 458.06 480.918Q457.769 480.938 457.48 480.978Q457.191 481.017 456.905 481.076Q456.619 481.135 456.337 481.212Q456.13 481.269 455.926 481.336Q455.722 481.403 455.521 481.479Q455.321 481.556 455.124 481.642Q454.928 481.729 454.736 481.825Q454.543 481.92 454.356 482.026Q454.169 482.131 453.987 482.245Q453.805 482.359 453.629 482.481Q453.453 482.604 453.283 482.735Q453.113 482.866 452.949 483.005Q452.786 483.145 452.629 483.292Q452.473 483.439 452.324 483.593Q452.174 483.748 452.033 483.909Q451.892 484.071 451.758 484.239Q451.625 484.407 451.499 484.581Q451.374 484.756 451.258 484.936Q451.141 485.117 451.034 485.302Q450.926 485.488 450.828 485.679Q450.729 485.87 450.64 486.065Q450.551 486.261 450.472 486.46Q450.392 486.659 450.322 486.863Q450.253 487.066 450.193 487.272Q450.133 487.478 450.084 487.687Q450.034 487.896 449.995 488.107Q449.955 488.318 449.926 488.531Q449.897 488.743 449.878 488.957Q449.859 489.171 449.851 489.386Q449.843 489.6 449.845 489.815Q449.847 490.03 449.859 490.244Q449.872 490.458 449.895 490.672Q449.918 490.885 449.951 491.097Q449.984 491.31 450.028 491.52Q450.071 491.73 450.125 491.938Q450.179 492.146 450.242 492.351Q450.306 492.556 450.38 492.758Q450.453 492.959 450.537 493.157Q450.62 493.355 450.713 493.549Q450.806 493.742 450.908 493.931Q451.01 494.12 451.121 494.304Q451.232 494.487 451.352 494.665Q451.472 494.843 451.601 495.015Q451.729 495.187 451.866 495.353Q452.003 495.518 452.147 495.677Q452.292 495.836 452.444 495.987Q452.596 496.139 452.756 496.283Q452.915 496.427 453.081 496.563Q453.247 496.699 453.42 496.827Q453.592 496.954 453.771 497.074Q453.949 497.193 454.133 497.303Q454.317 497.414 454.507 497.515Q454.696 497.617 454.89 497.709Q455.084 497.801 455.282 497.883Q455.48 497.966 455.682 498.039Q455.884 498.111 456.09 498.174Q456.295 498.237 456.503 498.29Q456.711 498.343 456.921 498.385Q457.132 498.428 457.344 498.461Q457.556 498.493 457.77 498.515Q457.984 498.537 458.198 498.549Q458.412 498.56 458.627 498.561Q458.842 498.563 459.056 498.553Q459.271 498.544 459.484 498.525Q459.698 498.505 459.911 498.475Q460.123 498.445 460.334 498.405Q460.545 498.364 460.754 498.314ZM796.437 290.957Q786.104 296.171 775.678 301.195C777.129 304.778 785.091 323.553 787.408 325.008C787.627 325.145 787.886 325.202 788.125 325.3C794.994 322.086 802.137 318.714 808.514 314.607C806.328 308.974 801.232 294.98 797.285 291.086L796.437 290.957ZM399.31 512.297Q399.095 512.348 398.883 512.41Q398.671 512.472 398.463 512.544Q398.254 512.616 398.049 512.698Q397.844 512.78 397.643 512.872Q397.442 512.963 397.246 513.065Q397.05 513.166 396.859 513.277Q396.668 513.388 396.483 513.508Q396.298 513.628 396.119 513.757Q395.939 513.886 395.767 514.024Q395.594 514.161 395.428 514.307Q395.262 514.452 395.103 514.606Q394.945 514.76 394.794 514.921Q394.643 515.082 394.5 515.25Q394.357 515.418 394.222 515.593Q394.088 515.768 393.962 515.95Q393.836 516.131 393.719 516.318Q393.602 516.505 393.494 516.698Q393.386 516.891 393.288 517.088Q393.19 517.286 393.101 517.488Q393.012 517.69 392.934 517.897Q392.855 518.103 392.786 518.313Q392.718 518.523 392.66 518.736Q392.601 518.949 392.554 519.164Q392.506 519.38 392.468 519.597Q392.431 519.815 392.404 520.034Q392.378 520.253 392.361 520.473Q392.345 520.694 392.34 520.914Q392.335 521.135 392.34 521.356Q392.346 521.577 392.362 521.797Q392.378 522.017 392.405 522.236Q392.431 522.455 392.469 522.673Q392.506 522.89 392.554 523.106Q392.602 523.322 392.66 523.534Q392.719 523.747 392.787 523.957Q392.856 524.167 392.934 524.373Q393.013 524.58 393.102 524.782Q393.19 524.984 393.289 525.182Q393.387 525.379 393.495 525.572Q393.603 525.765 393.72 525.952Q393.837 526.139 393.963 526.32Q394.089 526.502 394.223 526.677Q394.358 526.852 394.501 527.02Q394.644 527.188 394.795 527.349Q394.946 527.51 395.105 527.664Q395.263 527.817 395.429 527.963Q395.595 528.109 395.768 528.246Q395.941 528.383 396.12 528.512Q396.299 528.641 396.485 528.761Q396.67 528.881 396.861 528.992Q397.052 529.103 397.248 529.204Q397.444 529.306 397.645 529.398Q397.846 529.489 398.051 529.571Q398.256 529.653 398.464 529.725Q398.673 529.797 398.885 529.859Q399.097 529.921 399.312 529.972Q399.527 530.023 399.743 530.064Q399.96 530.105 400.179 530.135Q400.398 530.165 400.618 530.185Q400.838 530.205 401.058 530.214Q401.279 530.222 401.5 530.221Q401.72 530.219 401.941 530.206Q402.161 530.194 402.381 530.17Q402.6 530.147 402.819 530.113Q403.037 530.079 403.253 530.035Q403.547 529.974 403.837 529.895Q404.127 529.815 404.411 529.716Q404.694 529.617 404.971 529.5Q405.248 529.383 405.516 529.247Q405.784 529.112 406.043 528.959Q406.302 528.807 406.55 528.637Q406.798 528.467 407.035 528.282Q407.271 528.096 407.495 527.896Q407.718 527.695 407.928 527.48Q408.138 527.265 408.333 527.036Q408.528 526.808 408.708 526.567Q408.888 526.326 409.051 526.074Q409.214 525.821 409.361 525.559Q409.507 525.296 409.636 525.025Q409.764 524.753 409.875 524.474Q409.985 524.194 410.077 523.908Q410.169 523.622 410.241 523.33Q410.314 523.039 410.367 522.743Q410.421 522.447 410.454 522.148Q410.488 521.85 410.501 521.549Q410.515 521.249 410.509 520.949Q410.503 520.648 410.477 520.349Q410.451 520.049 410.405 519.752Q410.36 519.455 410.294 519.162Q410.229 518.869 410.145 518.58Q410.06 518.292 409.957 518.01Q409.854 517.727 409.732 517.453Q409.61 517.178 409.471 516.912Q409.331 516.646 409.174 516.389Q409.017 516.133 408.844 515.888Q408.67 515.642 408.481 515.409Q408.291 515.175 408.087 514.955Q407.883 514.735 407.664 514.528Q407.446 514.322 407.214 514.131Q406.983 513.939 406.739 513.763Q406.495 513.588 406.24 513.428Q405.985 513.269 405.721 513.127Q405.456 512.985 405.182 512.861Q404.909 512.736 404.627 512.631Q404.346 512.525 404.058 512.438Q403.771 512.35 403.478 512.283Q403.185 512.215 402.889 512.166Q402.592 512.118 402.293 512.089Q401.994 512.06 401.694 512.051Q401.393 512.043 401.093 512.054Q400.793 512.065 400.494 512.095Q400.195 512.126 399.898 512.177Q399.602 512.227 399.31 512.297ZM725.46 421.778Q731.006 420.352 736.604 419.144L744.788 416.655C741.61 411.533 737.476 403.114 731.309 401.438C731.09 401.378 730.863 401.348 730.641 401.303C725.685 407.167 725.772 414.501 725.46 421.778ZM677.014 265.446C672.721 267.679 668.423 269.884 663.878 271.573C666.976 273.857 670.37 276.039 673.294 278.523C675.3 279.974 678.093 282.576 680.707 282.283C681.538 282.19 681.623 281.814 682.135 281.231C682.834 277.36 680.034 269.486 677.77 266.159C677.349 265.54 677.576 265.733 677.014 265.446ZM721.569 266.141C719.681 259.528 714.97 241.976 710.987 237.257Q702.158 242.134 693.379 247.103C697.297 255.643 701.043 264.764 707.434 271.798C709.484 273.187 711.408 274.413 713.99 274.003C716.374 273.624 718.283 271.873 719.592 269.939C720.398 268.748 720.992 267.453 721.569 266.141ZM797.221 356.884C796.285 352.916 792.041 331.596 789.887 329.99C789.831 329.948 789.752 329.958 789.684 329.942C784.782 332.127 773.485 334.859 771.482 340.128C770.189 343.529 772.013 347.117 773.522 350.114C775.354 353.751 777.219 357.031 780.222 359.853C786.164 362.286 791.688 359.098 797.221 356.884ZM762.681 384.706C762.301 394.73 768.43 405.845 773.001 414.535L782.765 408.838C784.526 407.826 785.355 407.479 785.947 405.413C786.798 402.446 787.212 399.432 788.277 396.522C779.916 392.108 771.52 388.088 762.681 384.706Z"/>
	<path fill="#131228" transform="scale(0.666667 0.666667)" d="M661.562 526.56C663.774 526.316 665.727 526.234 667.875 526.919C675.999 529.509 683.716 535.618 690.978 539.945C715.134 554.339 738.929 569.341 762.956 583.955L880.535 654.831C897.101 664.801 914.201 674.273 930.471 684.686C933.393 686.555 936.654 688.814 938.217 692.006C939.097 693.802 939.257 695.765 938.572 697.657C937.59 700.374 935.077 702.476 932.749 704.034C918.951 713.266 903.95 721.213 889.7 729.768L798.636 784.679Q757.367 809.814 715.691 834.268C703.765 841.362 691.243 850.338 678.896 856.312C676.516 857.463 676.111 857.348 673.766 856.538L472.882 734.122L423.888 704.17C415.133 698.851 404.9 693.821 397.128 687.235C396.148 686.404 394.72 685.317 394.592 684.003C395.843 682.338 397.488 681.274 399.257 680.224L661.562 526.56ZM673.259 850.679C674.591 851.402 675.658 852.066 677.22 851.59C682.473 849.991 701.827 837.061 708.027 833.405Q770.849 796.579 832.893 758.454L898.04 719.439L922.094 704.883C924.773 703.278 927.658 701.878 930.219 700.097C931.446 699.242 933.091 698.086 933.797 696.72C934.343 695.664 934.04 694.649 933.492 693.679C931.964 690.973 928.597 688.9 926.015 687.268C916.893 681.499 907.254 676.446 898 670.872L814.318 620.511L730.021 569.627C713.091 559.256 696.439 548.432 679.336 538.343C675.285 535.953 669.406 531.672 664.836 530.945C664.533 530.897 664.222 530.915 663.915 530.9L401.046 685.115C417.504 693.484 433.228 704.12 448.851 713.96Q476.385 731.073 504.11 747.874L623.484 820.652C639.939 830.729 657.165 840.076 673.259 850.679Z"/>
	<path fill="#131228" transform="scale(0.666667 0.666667)" d="M614.329 581.091C615.297 580.981 616.253 580.914 617.227 580.955C619.427 581.047 620.54 581.685 622.037 583.248C622.543 584.378 622.555 584.964 622.346 586.146C622.218 586.869 621.805 588.547 622.049 589.259C622.892 591.724 638.344 609.647 641.298 614.902C650.031 610.482 658.282 604.944 666.932 600.311C676.245 604.731 685.258 611.056 693.837 616.781Q701.045 604.378 708.788 592.302C707.956 590.013 707.181 587.925 707.851 585.484C708.243 584.053 709.092 583.101 710.44 582.499C711.97 581.814 714.076 582.149 715.577 582.74C717.47 583.485 719.365 585.043 720.014 587.028C720.387 588.167 720.228 589.354 719.615 590.378C718.091 592.926 715.092 593.671 712.423 594.357Q705.277 606.901 697.847 619.279C706.491 624.289 714.881 629.736 723.487 634.818C728.639 627.552 733.508 620.212 737.843 612.425C737.063 610.325 736.346 608.451 736.922 606.201C737.23 604.997 737.946 603.957 739.091 603.399C741.019 602.459 743.672 602.826 745.586 603.598C747.582 604.402 749.627 605.878 750.301 608.02C750.673 609.202 750.286 610.211 749.612 611.187C747.966 613.569 744.808 614.426 742.171 614.998Q734.459 626.124 727.731 637.872C737.098 642.634 746.672 649.286 755.913 654.583C760.451 647.134 765.693 640.207 770.062 632.61C769.442 630.289 768.989 627.973 769.73 625.607C770.161 624.233 771.074 623.053 772.469 622.571C774.184 621.979 776.241 622.497 777.762 623.377C779.343 624.291 781.061 626.015 781.377 627.895C781.602 629.232 781.42 630.378 780.616 631.498C779.041 633.691 776.606 633.952 774.164 634.484C769.756 642.051 764.806 649.357 759.907 656.613L786.803 672.79Q794.313 662.529 801.265 651.883C800.431 650.034 799.529 648.222 799.679 646.142C799.791 644.59 800.299 643.04 801.63 642.102C803.295 640.93 805.708 640.981 807.576 641.572C809.53 642.191 811.521 643.594 812.256 645.582C812.685 646.742 812.523 647.835 811.987 648.913C810.515 651.877 807.655 652.762 804.762 653.735C800.014 660.675 795.817 667.954 790.94 674.824C793.836 676.616 796.754 678.211 799.046 680.781C799.432 686.823 799.296 692.944 799.457 699.001C795.52 701.754 791.158 703.954 786.955 706.274C792.043 713.548 797.25 720.584 803.001 727.352C804.979 727.862 807.25 728.278 808.961 729.426C810.366 730.368 811.647 731.875 811.794 733.628C811.906 734.958 811.316 736.21 810.45 737.181Q810.207 737.451 809.938 737.694Q809.669 737.937 809.377 738.152Q809.084 738.367 808.772 738.551Q808.459 738.735 808.129 738.887Q807.8 739.038 807.456 739.155Q807.113 739.272 806.759 739.354Q806.406 739.436 806.046 739.481Q805.686 739.526 805.323 739.535Q805.035 739.543 804.747 739.522Q804.46 739.502 804.176 739.452Q803.892 739.403 803.614 739.326Q803.336 739.248 803.068 739.143Q802.799 739.038 802.543 738.907Q802.286 738.776 802.044 738.62Q801.801 738.464 801.576 738.284Q801.35 738.104 801.144 737.903C799.028 735.822 799.378 733.413 799.463 730.704C794.274 723.053 788.288 715.825 782.684 708.464C773.326 713.5 763.899 718.798 754.927 724.491C760.951 731.971 766.624 739.753 772.344 747.467C772.647 747.506 772.95 747.551 773.253 747.585C775.928 747.889 778.202 748.406 780.069 750.562C780.846 751.459 781.215 752.516 780.951 753.703C780.662 754.999 779.328 756.401 778.273 757.173C776.815 758.24 774.451 758.84 772.669 758.412C767.528 757.177 769.21 752.914 767.842 749.195C766.063 744.359 754.741 731.711 750.942 726.443C742.109 731.622 733.492 737.339 724.776 742.731C728.908 749.031 739.186 764.848 745.038 769.208C746.753 770.487 749.184 770.546 751.128 771.571L751.279 772.347C750.741 772.93 750.22 773.505 749.594 773.999C747.319 775.796 742.588 778.432 739.574 777.901C738.766 777.759 738.809 777.421 738.432 776.78C738.648 775.167 739.568 774.305 740.584 773.115L741.056 772.569Q730.849 758.831 720.789 744.986L693.795 761.612C700.938 771.087 708.432 780.363 715.308 790.029C716.9 789.697 719.252 789.035 720.808 789.549C721.493 789.774 721.443 790.22 721.675 790.828C720.836 793.097 719.031 794.302 716.937 795.362C715.061 796.311 712.046 797.47 709.956 796.667C709.145 796.355 709.238 795.974 708.957 795.231C709.395 793.657 710.209 792.979 711.362 791.917Q700.711 777.817 689.777 763.934C682.062 768.269 674.906 773.419 667.408 778.11C659.591 773.898 652.141 768.854 644.645 764.096C638.675 774.139 629.722 783.286 626.24 794.43C625.847 795.687 625.689 796.085 624.516 796.685C623.229 796.518 622.151 796.333 620.974 795.76C618.785 794.693 616.027 792.463 615.346 790.016C615.093 789.105 615.274 789.143 615.676 788.365C615.853 788.325 616.027 788.269 616.207 788.245C618.113 787.994 619.65 789.295 621.129 790.306L621.713 790.711C627.795 780.775 634.9 771.474 640.987 761.528Q627.749 753.388 614.368 745.485C608.091 754.835 601.3 762.775 596.598 773.065C595.852 774.698 594.76 776.394 592.874 776.825C591.576 777.122 590.309 776.658 589.22 775.978C587.23 774.737 584.962 772.158 584.584 769.779C584.433 768.828 584.379 769.213 584.995 768.415C587.123 768.611 589.489 770.876 591.234 772.064C596.496 761.847 604.244 752.932 610.175 743.079Q596.386 734.388 582.328 726.139C576.229 735.286 567.279 746.36 564.047 756.709C562.956 756.344 561.898 755.917 560.848 755.447C558.34 754.325 555.775 752.679 554.943 749.875C554.697 749.044 554.829 749.252 555.326 748.379C555.488 748.342 555.647 748.291 555.812 748.27C557.809 748.006 559.388 749.284 560.946 750.336C566.694 741.518 572.774 732.815 577.988 723.671C569.616 717.752 560.077 712.527 551.085 707.599C547.241 714.012 537.148 728.059 534.902 734.019C534.589 734.85 534.248 736.036 533.724 736.744C533.021 737.69 532.013 737.815 530.92 737.772C528.543 737.678 525.759 735.273 524.518 733.396C523.771 732.264 523.564 731.622 523.766 730.3L524.982 729.977C526.776 730.35 527.968 731.003 529.529 731.963L530.116 732.33C535.637 723.023 541.871 714.043 547.531 704.796Q540.987 701.139 534.585 697.24C535.556 691.348 535.395 685.016 535.346 679.046C538.402 676.997 541.536 675.138 544.724 673.304C538.82 664.963 533.002 656.138 525.685 648.967C523.502 648.616 521.106 648.187 519.56 646.422C518.745 645.492 518.272 644.424 518.448 643.164C518.669 641.588 519.752 640.157 520.959 639.176C522.51 637.915 525.027 636.829 527.068 637.227C528.33 637.472 529.264 638.005 529.935 639.135C531.283 641.405 530.584 644.552 529.833 646.883C536.382 654.547 542.602 662.728 548.487 670.914C557.708 666.582 566.998 660.922 575.406 655.183C569.969 646.634 563.73 638.612 557.327 630.774C555.818 630.55 554.19 630.385 552.782 629.77C551.178 629.07 549.907 627.804 549.421 626.089C548.991 624.571 549.345 622.957 550.211 621.664C551.262 620.093 552.961 618.962 554.85 618.733C556.232 618.565 557.472 618.973 558.536 619.859C561.274 622.137 561.255 626.122 561.609 629.38C567.7 637.073 573.888 644.706 579.178 652.984C588.436 647.442 597.826 641.995 606.753 635.926C600.888 627.377 594.509 619.225 588.095 611.085C585.653 610.669 583.134 610.255 581.328 608.399C580.248 607.29 579.582 605.777 579.769 604.208C579.958 602.62 580.997 601.145 582.239 600.178C583.704 599.036 585.689 598.438 587.535 598.777Q588.049 598.871 588.536 599.061Q589.516 599.441 590.294 600.146C593.265 602.831 590.433 606.037 592.204 608.917C597.462 617.473 604.601 625.026 610.255 633.367C619.646 628.426 628.808 622.78 637.988 617.441C631.984 609.12 625.633 600.918 618.748 593.306C618.589 593.268 618.429 593.232 618.27 593.192L617.477 592.983C615.63 592.51 614.102 592.145 612.733 590.732C611.633 589.597 610.799 588.267 610.896 586.624C611.046 584.09 612.494 582.65 614.329 581.091ZM601.559 680.815L643.469 706.915C650.487 711.262 657.528 716.186 664.821 720.009Q683.686 707.969 702.954 696.587C711.61 691.459 721.507 686.614 729.29 680.297C709.282 666.12 687.091 655.484 666.783 641.894C645.697 655.673 623.496 668.428 601.559 680.815ZM617.738 588.831Q617.864 588.797 617.986 588.751Q618.109 588.705 618.226 588.648Q618.344 588.591 618.456 588.523Q618.568 588.455 618.673 588.377Q618.778 588.299 618.875 588.212Q618.972 588.125 619.061 588.029Q619.15 587.933 619.229 587.829Q619.309 587.725 619.378 587.615Q619.448 587.504 619.507 587.387Q619.566 587.271 619.614 587.149Q619.662 587.027 619.698 586.902Q619.734 586.776 619.759 586.648Q619.783 586.52 619.796 586.389Q619.809 586.259 619.809 586.129Q619.809 585.998 619.798 585.868Q619.786 585.738 619.762 585.609Q619.738 585.48 619.703 585.355Q619.667 585.229 619.62 585.107Q619.573 584.985 619.514 584.868Q619.456 584.751 619.387 584.64Q619.318 584.529 619.24 584.425Q619.161 584.321 619.072 584.224Q618.984 584.128 618.887 584.04Q618.791 583.952 618.686 583.873Q618.581 583.795 618.47 583.727Q618.359 583.658 618.241 583.6Q618.124 583.543 618.002 583.496Q617.88 583.449 617.754 583.414Q617.628 583.379 617.5 583.356Q617.371 583.333 617.241 583.321Q617.11 583.31 616.98 583.311Q616.849 583.312 616.719 583.325Q616.526 583.344 616.338 583.39Q616.149 583.435 615.969 583.507Q615.788 583.578 615.62 583.673Q615.451 583.768 615.296 583.885Q615.142 584.003 615.005 584.141Q614.869 584.278 614.752 584.433Q614.636 584.588 614.542 584.758Q614.448 584.927 614.378 585.108Q614.308 585.289 614.264 585.478Q614.22 585.667 614.202 585.86Q614.184 586.053 614.193 586.246Q614.201 586.44 614.237 586.631Q614.272 586.822 614.333 587.006Q614.394 587.19 614.48 587.363Q614.566 587.537 614.675 587.698Q614.784 587.858 614.914 588.002Q615.044 588.146 615.192 588.271Q615.341 588.396 615.505 588.499Q615.669 588.602 615.846 588.682Q616.023 588.761 616.209 588.816Q616.395 588.871 616.587 588.899Q616.778 588.928 616.972 588.93Q617.166 588.931 617.359 588.907Q617.551 588.882 617.738 588.831ZM586.795 606.645Q586.916 606.594 587.032 606.531Q587.148 606.469 587.257 606.395Q587.366 606.321 587.467 606.237Q587.568 606.153 587.661 606.06Q587.753 605.966 587.836 605.864Q587.919 605.762 587.992 605.652Q588.064 605.542 588.126 605.426Q588.187 605.31 588.237 605.188Q588.287 605.066 588.324 604.94Q588.362 604.814 588.387 604.685Q588.412 604.556 588.425 604.425Q588.437 604.294 588.436 604.162Q588.436 604.031 588.422 603.9Q588.409 603.769 588.383 603.64Q588.356 603.511 588.318 603.385Q588.279 603.259 588.228 603.138Q588.177 603.017 588.115 602.901Q588.052 602.785 587.979 602.676Q587.905 602.567 587.822 602.465Q587.738 602.364 587.644 602.271Q587.551 602.179 587.449 602.096Q587.347 602.012 587.237 601.94Q587.128 601.867 587.012 601.805Q586.895 601.744 586.774 601.694Q586.652 601.644 586.526 601.606Q586.4 601.568 586.271 601.543Q586.142 601.518 586.011 601.505Q585.88 601.492 585.748 601.493Q585.617 601.493 585.486 601.506Q585.355 601.519 585.226 601.545Q585.097 601.571 584.971 601.61Q584.845 601.648 584.724 601.699Q584.602 601.75 584.486 601.812Q584.37 601.875 584.26 601.948Q584.151 602.021 584.049 602.105Q583.948 602.189 583.855 602.283Q583.762 602.376 583.678 602.478Q583.595 602.58 583.522 602.69Q583.449 602.8 583.387 602.917Q583.325 603.033 583.275 603.155Q583.225 603.277 583.187 603.403Q583.149 603.529 583.124 603.659Q583.099 603.788 583.086 603.919Q583.074 604.051 583.074 604.183Q583.074 604.314 583.088 604.446Q583.101 604.577 583.127 604.706Q583.154 604.835 583.192 604.961Q583.231 605.087 583.282 605.209Q583.333 605.331 583.395 605.447Q583.458 605.563 583.532 605.672Q583.605 605.781 583.689 605.883Q583.773 605.985 583.867 606.078Q583.961 606.17 584.063 606.254Q584.165 606.337 584.275 606.41Q584.385 606.482 584.502 606.544Q584.619 606.606 584.741 606.656Q584.863 606.705 584.989 606.743Q585.115 606.781 585.245 606.806Q585.374 606.831 585.506 606.843Q585.637 606.855 585.769 606.855Q585.901 606.854 586.032 606.841Q586.163 606.827 586.292 606.801Q586.421 606.774 586.547 606.735Q586.673 606.696 586.795 606.645Z"/>
	<path fill="#AAB" transform="scale(0.666667 0.666667)" d="M667.014 605.057C691.856 621.537 717.664 637.075 743.292 652.308C758.756 661.5 774.537 670.214 789.481 680.252C777.451 686.958 765.664 694.236 753.813 701.257Q710.513 726.981 667.561 753.285C653.677 744.025 639.035 735.549 624.78 726.86Q585.012 702.561 544.69 679.193C555.705 672.267 567.062 665.912 578.219 659.219L629.789 627.941C642.143 620.495 655.397 613.564 667.014 605.057ZM601.559 680.815L643.469 706.915C650.487 711.262 657.528 716.186 664.821 720.009Q683.686 707.969 702.954 696.587C711.61 691.459 721.507 686.614 729.29 680.297C709.282 666.12 687.091 655.484 666.783 641.894C645.697 655.673 623.496 668.428 601.559 680.815Z"/>
	<path fill="#131228" transform="scale(0.666667 0.666667)" d="M666.777 636.962C671.905 638.146 730.784 674.763 737.063 680.234C730.368 686.994 711.174 696.883 702.063 702.439C689.633 710.021 677.792 718.234 664.903 725.073C662.597 724.463 660.272 723.129 658.23 721.913C647.442 715.488 637.046 708.129 626.351 701.491C618.83 696.823 602.812 688.525 597.117 683.185C595.987 682.126 595.636 681.687 595.598 680.144C596.286 678.952 596.959 678.431 598.114 677.667C605.028 673.095 612.684 669.402 619.788 665.09C635.397 655.618 650.781 645.779 666.777 636.962ZM601.559 680.815L643.469 706.915C650.487 711.262 657.528 716.186 664.821 720.009Q683.686 707.969 702.954 696.587C711.61 691.459 721.507 686.614 729.29 680.297C709.282 666.12 687.091 655.484 666.783 641.894C645.697 655.673 623.496 668.428 601.559 680.815Z"/>
	<path fill="#AAB" transform="scale(0.666667 0.666667)" d="M625.845 733.021C630.185 735.05 634.108 738.114 637.997 740.888C637.941 744.113 637.089 750.595 638.624 753.298C638.957 753.884 639.576 753.901 640.176 754.103C641.942 751.094 641.096 745.583 640.97 742.206C643.338 743.515 647.564 745.338 648.498 747.969L648.548 760.914Q636.934 754.343 625.991 746.707L625.845 733.021Z"/>
	<path fill="#AAB" transform="scale(0.666667 0.666667)" d="M721.294 725.936L722.006 726.07C723.78 728.949 723.45 734.651 723.586 737.951L710.198 746.51L709.501 746.544C707.672 744.31 708.201 737.145 708.099 734.063L721.294 725.936Z"/>
	<path fill="#AAB" transform="scale(0.666667 0.666667)" d="M585.884 709.135C589.263 710.694 593.381 712.256 596.056 714.887C600.308 719.069 599.537 725.353 599.486 730.799C594.517 728.776 590.333 725.712 586.024 722.564L585.884 709.135Z"/>
	<path fill="#AAB" transform="scale(0.666667 0.666667)" d="M651.515 748.882C655.796 751.097 659.866 754.017 663.939 756.609C663.987 761.335 664.295 766.072 664.515 770.794C659.97 768.796 655.783 765.867 651.634 763.161Q651.507 756.022 651.515 748.882Z"/>
	<path fill="#AAB" transform="scale(0.666667 0.666667)" d="M789.353 685.934C790.567 689.976 790.032 695.225 790.035 699.449C786.752 701.23 783.555 703.23 780.33 705.119C778.882 700.891 779.754 695.769 780.081 691.366L789.353 685.934Z"/>
	<path fill="#AAB" transform="scale(0.666667 0.666667)" d="M763.59 700.544C765.592 702.312 765.816 710.062 766.131 712.778C763.111 714.417 760.186 716.287 757.242 718.061L756.236 718.245C754.391 715.985 754.977 708.899 754.949 705.886L763.59 700.544Z"/>
	<path fill="#AAB" transform="scale(0.666667 0.666667)" d="M600.946 718.133C604.398 719.554 607.674 721.763 610.895 723.658C611.291 728.528 611.54 733.297 611.506 738.189C608.239 736.775 605.439 734.825 602.514 732.818C602.48 727.873 601.764 722.998 600.946 718.133Z"/>
	<path fill="#AAB" transform="scale(0.666667 0.666667)" d="M573.451 701.689C576.674 703.271 579.712 705.249 582.771 707.124C582.737 711.669 582.985 716.169 583.259 720.702C580.921 720.911 576.039 717.027 574.043 715.747Q573.581 708.725 573.451 701.689Z"/>
	<path fill="#AAB" transform="scale(0.666667 0.666667)" d="M694.143 741.952L694.536 742.064C696.478 743.988 696.359 751.662 696.577 754.575L688.72 759.529L687.857 759.296C685.95 756.12 686.473 750.668 686.428 747.069C688.966 745.319 691.571 743.653 694.143 741.952Z"/>
	<path fill="#AAB" transform="scale(0.666667 0.666667)" d="M776.387 693.501C778.071 696.131 777.075 704.102 776.975 707.413C774.274 708.82 771.503 710.088 768.748 711.386L767.375 698.607C770.448 697.104 773.417 695.208 776.387 693.501Z"/>
	<path fill="#AAB" transform="scale(0.666667 0.666667)" d="M682.506 749.386L683.488 749.543C685.34 752.48 684.56 758.322 684.498 761.75L676.853 766.386L676.449 766.27C674.653 763.875 675.082 757.28 674.945 754.184L682.506 749.386Z"/>
	<path fill="#AAB" transform="scale(0.666667 0.666667)" d="M562.218 694.956C565.085 696.401 567.825 698.232 570.57 699.902C570.938 704.524 570.927 709.188 571.018 713.823C568.322 712.007 565.419 710.448 562.602 708.823C562.343 704.289 561.723 699.473 562.218 694.956Z"/>
	<path fill="#AAB" transform="scale(0.666667 0.666667)" d="M613.9 726.113C617.062 727.374 619.928 729.323 622.823 731.093C622.496 735.506 622.626 739.964 622.643 744.387C619.996 744.318 617.214 742.059 615.038 740.65C614.751 735.789 614.453 730.953 613.9 726.113Z"/>
	<path fill="#AAB" transform="scale(0.666667 0.666667)" d="M539.583 682.151C542.472 683.373 545.146 684.912 547.867 686.461C547.704 690.938 547.929 695.45 548.033 699.927C544.966 698.363 542.109 696.575 539.223 694.703C539.116 690.545 539.438 686.311 539.583 682.151Z"/>
	<path fill="#AAB" transform="scale(0.666667 0.666667)" d="M550.62 688.194C553.718 689.418 556.595 691.412 559.434 693.151C558.953 697.304 559.095 701.573 559.061 705.751C556.136 705.649 553.382 703.168 551.084 701.506L550.62 688.194Z"/>
	<path fill="#AAB" transform="scale(0.666667 0.666667)" d="M703.785 736.423L704.292 736.437C706.319 738.671 706.213 745.313 706.525 748.473L700.19 752.37L699.153 752.391C697.346 749.979 697.635 743.272 697.436 740.162L703.785 736.423Z"/>
	<path fill="#AAB" transform="scale(0.666667 0.666667)" d="M741.594 713.527C741.716 713.62 741.861 713.688 741.96 713.805C743.807 715.99 743.498 723.131 743.613 725.938L737.265 729.559L736.736 729.306C734.774 727.049 735.061 720.645 734.864 717.632C737.171 716.413 739.376 714.905 741.594 713.527Z"/>
	<path fill="#AAB" transform="scale(0.666667 0.666667)" d="M731.747 719.465C733.575 722.918 733.728 727.812 734.231 731.676L727.749 735.657L727.163 735.431C725.316 733.301 725.711 726.348 725.584 723.442L731.747 719.465Z"/>
	<path fill="#AAB" transform="scale(0.666667 0.666667)" d="M751.288 707.961C753.545 708.84 751.763 714.907 753.751 718.257C753.859 718.44 753.98 718.615 754.094 718.795L753.872 719.806C752.214 721.37 750.159 722.277 748.15 723.315C747.463 723.536 747.904 723.464 746.812 723.223C744.823 720.087 745.396 715.09 745.342 711.47L751.288 707.961Z"/>
	<path fill="#AAB" transform="scale(0.666667 0.666667)" d="M671.497 755.986C671.607 756.097 671.732 756.196 671.826 756.32C673.516 758.554 673.603 764.186 673.134 766.813C672.719 769.139 671.585 769.578 669.75 770.831L669.286 770.831L668.639 770.007C668.23 766.65 667.248 761.879 668.386 758.631C668.928 757.082 670.171 756.737 671.497 755.986Z"/>
	<path fill="#AAB" transform="scale(0.666667 0.666667)" d="M792.909 683.611L794.147 684.288C796.363 687.762 795.313 693.379 794.815 697.29L793.695 696.654C791.629 693.066 792.482 687.609 792.909 683.611Z"/>
	<path fill="#AAB" transform="scale(0.666667 0.666667)" d="M687.748 250.021C695.116 252.858 697.559 274.479 708.862 278.497C711.922 279.585 715.778 279.232 718.651 277.748C724.782 274.582 725.447 265.848 727.528 259.978C728.34 257.688 729.613 254.601 732.085 253.711C735.265 252.568 740.085 255.319 742.983 256.513C742.377 267.362 740.258 283.886 742.596 294.194C743.532 298.32 745.61 302.44 749.413 304.592C755.599 308.091 764.056 304.786 770.426 303.174C775.459 311.091 779.282 319.647 783.271 328.116C778.228 330.006 770.712 331.607 767.686 336.491C765.78 339.565 766.075 343.182 766.922 346.548C768.943 354.586 773.746 361.494 780.888 365.703C778.376 372.061 775.948 378.281 774.615 385.016L774.068 384.752C770.506 383.047 764.895 380.115 760.987 381.992C759.921 382.504 759.133 383.442 758.686 384.517C755.586 391.976 765.364 410.263 768.61 417.446L756.519 426.096C753.535 422.004 750.943 417.558 748.236 413.275C744.746 407.938 738.363 397.86 731.549 396.72C729.915 396.446 728.396 396.845 727.088 397.831C721.226 402.255 720.832 415.42 719.99 422.185C713.33 419.127 706.597 416.17 700.178 412.625C702.349 403.062 704.439 391.56 700.864 382.07C698.082 374.687 692.848 370.322 685.815 367.281C678.613 368.866 671.478 370.535 664.373 372.509C661.158 366.566 658.367 360.296 655.355 354.238C661.507 347.898 668.915 343.021 674.943 336.504C674.223 330.135 673.178 323.78 672.315 317.426C666.969 310.127 660.031 304.503 653.53 298.283Q656.995 287.019 660.898 275.9C665.163 279.073 669.471 282.546 674.129 285.117C676.759 286.569 681.488 288.771 684.553 287.555C685.862 287.036 686.497 286.301 687.022 285.006C689.5 278.887 681.324 260.647 679.054 254.655C681.989 253.202 684.86 251.567 687.748 250.021ZM734.367 375.864C739.68 374.288 743.929 371.602 746.628 366.606C751.579 357.44 749.51 345.091 746.44 335.65C742.453 323.39 733.765 310.745 722.024 304.797C717.68 302.596 713.292 301.779 708.45 302.036C703.146 303.394 699.128 305.98 696.354 310.82C691.405 319.456 692.442 331.324 695.109 340.504C698.854 353.392 707.552 366.169 719.567 372.577C724.239 375.069 729.049 376.303 734.367 375.864Z"/>
	<path fill="#131228" transform="scale(0.666667 0.666667)" d="M710.533 297.204C715.757 297.439 720.464 298.797 725.026 301.337C738.695 308.946 747.891 323.179 751.999 337.993C754.718 347.798 755.735 361.119 750.285 370.217C746.421 376.667 740.247 379.375 733.308 381.134C725.246 380.618 718.861 378.538 712.383 373.632C699.621 363.964 690.981 348.807 688.858 332.966C687.617 323.709 688.568 312.798 694.604 305.25C698.72 300.104 704.18 297.938 710.533 297.204ZM734.367 375.864C739.68 374.288 743.929 371.602 746.628 366.606C751.579 357.44 749.51 345.091 746.44 335.65C742.453 323.39 733.765 310.745 722.024 304.797C717.68 302.596 713.292 301.779 708.45 302.036C703.146 303.394 699.128 305.98 696.354 310.82C691.405 319.456 692.442 331.324 695.109 340.504C698.854 353.392 707.552 366.169 719.567 372.577C724.239 375.069 729.049 376.303 734.367 375.864Z"/>
	<path fill="#131228" transform="scale(0.666667 0.666667)" d="M271.745 54.4756C273.025 54.4005 274.666 54.4747 275.768 55.191C277.344 56.2143 278.074 58.1494 278.554 59.8727C280.914 68.3481 281.828 87.6415 282.854 97.2111C299.101 87.2748 316.182 78.717 333.185 70.1681C339.582 73.2089 367.6 86.8903 370.633 89.774C370.992 91.1122 371.14 91.289 370.658 92.5628L369.481 93.0263C363.586 92.6123 339.985 79.1979 333.565 75.2451C317.162 84.7824 300.071 93.3748 283.355 102.372L289.321 160.132C315.329 146.751 340.89 132.293 366.553 118.241C381.686 109.955 396.625 101.613 412.223 94.223C404.215 91.7285 395.717 90.8957 387.82 88.0241C385.697 87.2521 383.407 86.4859 382.425 84.3523L382.933 83.3713C383.583 83.0035 384.175 82.7036 384.929 82.6117C391.571 81.8023 402.729 86.9301 409.445 88.6066C411.691 89.1671 414.153 89.2269 416.325 89.9871C417.19 90.2899 418.041 90.7274 418.701 91.3754C419.652 92.3086 419.865 93.3574 419.767 94.6424C419.504 98.0699 400.688 128.055 397.125 130.731L396.044 129.366C396.104 123.435 408.134 105.522 411.99 99.7062C388.305 111.298 365.351 124.276 342.24 136.952C324.846 146.492 307.211 155.665 289.904 165.347C291.214 183.108 293.698 201.123 296.026 218.792C308.919 210.417 323.18 203.511 336.77 196.322C344.47 192.248 352.1 187.476 360.053 183.973C361.772 183.216 363.032 182.697 364.859 183.53C365.728 183.925 365.44 183.746 365.754 184.761C365.095 186.441 363.227 187.553 361.743 188.462C354.172 193.099 345.722 196.758 337.894 201.024C324.079 208.553 310.573 216.601 296.466 223.586C298.642 235.063 299.535 247.389 300.603 259.049L409.686 199.162C400.829 198.484 389.316 197.673 381.277 193.893C380.523 192.947 380.533 192.988 380.591 191.782C380.978 191.432 381.201 191.18 381.724 190.973C384.743 189.781 411.592 194.218 414.876 195.605C416.442 196.266 417.234 197.01 417.886 198.617C417.921 200.104 417.754 201.205 417.127 202.569C415.231 206.694 401.503 232.008 398.936 234.733C398.068 235.654 397.259 236.265 395.956 236.326L395.333 235.558C395.079 230.176 407.43 209.701 410.793 204.183C402.816 208.217 395.028 212.758 387.162 217.013C358.346 232.602 329.888 249.001 300.918 264.271C303.184 280.306 304.888 296.432 306.83 312.509C318.566 305.195 331.201 299.029 343.358 292.424C350.168 288.724 357.932 283.707 364.635 280.402C366.457 279.503 368.052 278.886 370.04 279.542C370.284 280.291 370.482 280.447 370.2 281.25C369.556 283.087 368.013 284.402 366.455 285.481C360.052 289.916 351.851 293.331 344.937 297.009C332.3 303.731 319.862 310.798 307.247 317.547C309.691 330.631 310.621 344.06 312.394 357.253C345.607 340.653 377.511 321.313 410.424 304.074C400.858 302.203 391.023 302.75 381.574 300.995C379.644 300.636 376.899 300.065 375.726 298.351C375.861 297.747 375.737 297.808 376.245 297.434C379.657 294.925 384.813 296.151 388.619 296.749C395.777 297.9 412.373 298.127 417.936 301.056C418.505 301.837 418.851 302.072 418.941 303.071C419.281 306.808 404.056 334.329 400.932 337.536C399.915 338.58 399.133 339.098 397.676 339.073L397.106 338.022C397.334 332.841 408.813 313.818 411.873 307.892C400.424 315.186 388.331 321.413 376.392 327.856C355.172 339.308 333.772 350.505 312.92 362.621C314.154 367.806 314.558 373.472 315.255 378.775C316.505 388.292 317.869 397.858 318.578 407.432C316.496 410.082 314.102 411.784 311.273 413.56C302.042 419.354 292.284 424.494 282.801 429.88L225.561 462.146L200.041 476.524C195.84 478.868 190.882 482.218 186.281 483.61C184.817 484.052 182.674 483.592 181.466 482.586C176.923 478.803 174.086 437.606 173.414 429.955C156.606 440.378 139.003 449.455 122.221 460.002C109.294 455.055 98.1321 445.497 85.084 441.207C76.9478 438.532 49.3859 435.518 45.0802 432.195C44.152 431.478 43.6023 430.726 43.5454 429.509C43.4811 428.134 59.6537 397.347 61.7106 394.482C63.1417 392.489 64.0701 391.589 66.5137 391.223L66.7131 391.728L65.8847 391.036L66.7397 392.021C66.2003 400.156 55.7859 416.276 51.37 423.679C60.7163 419.794 70.4512 413.441 79.3986 408.503L139.503 375.022C147.679 370.459 156.942 363.89 165.678 360.736C162.399 346.097 162.586 330.609 159.964 315.827C150.805 320.735 141.638 325.589 132.678 330.858C123.154 336.457 113.858 342.554 103.934 347.426Q85.4515 342.949 66.83 339.091C60.3131 337.739 53.056 336.966 46.7828 334.955C45.3764 334.504 43.8357 333.575 43.2843 332.137C42.7643 330.781 43.1263 329.302 43.6086 327.998C44.9372 324.404 47.4486 321.032 49.2599 317.645C51.3857 313.671 53.0301 309.355 55.0363 305.297C56.9421 301.442 59.6045 294.486 63.8715 293.046L64.6034 293.54C65.8702 299.531 53.1803 320.148 50.1332 326.515Q74.4322 312.262 99.1122 298.68L154.526 267.625C152.212 252.56 151.418 236.934 149.848 221.753Q134.221 229.743 118.866 238.243C112.255 241.939 105.692 246.131 98.7836 249.224C79.2989 245.436 59.0449 241.998 40.1957 235.743Q40.5885 234.048 41.1403 232.398C43.0667 226.821 58.0954 196.988 62.2723 194.923C63.4091 195.479 63.4672 195.406 63.9439 196.56C62.8955 204.835 51.9048 221.115 47.2652 228.682C64.2184 219.337 81.5137 210.622 98.4158 201.173C113.527 192.725 128.412 183.316 144.038 175.879C141.92 162.916 138.586 141.334 140.958 128.444C142.576 126.523 144.219 124.999 146.312 123.615C159.783 114.709 174.92 107.623 189.088 99.8314L271.745 54.4756ZM185.654 479.34C210.673 465.982 235.223 451.381 259.886 437.36C277.901 427.119 296.546 417.495 314.042 406.418C309.472 378.249 306.664 349.516 303.212 321.18Q292.495 233.203 282.935 145.093C280.645 124.153 279.031 103.134 276.568 82.2151C276.126 78.4675 274.726 62.0632 272.941 59.5162C251.846 69.9725 231.461 82.0821 210.825 93.4225C191.522 104.03 171.738 114.006 152.694 125.05C150.326 126.423 146.486 128.237 144.814 130.402C144.483 146.177 147.203 162.122 149.122 177.747L156.755 242.286L171.943 374.503C175.534 407.007 178.568 439.671 183.149 472.052C183.481 474.396 183.844 476.677 184.914 478.813L185.654 479.34ZM80.1318 435.262C94.9406 437.628 108.037 447.75 120.961 454.916C133.304 447.997 145.242 440.337 157.611 433.427C162.604 430.639 167.88 427.443 173.239 425.439C172.421 418.632 167.009 367.402 165.65 365.532C154.252 372.733 142.199 378.824 130.422 385.37L85.4835 410.755C74.3155 416.924 62.9192 422.688 51.8504 429.034C61.2415 431.16 70.8148 432.879 80.1318 435.262ZM144.292 180.968C123.996 191.866 104.064 203.412 83.9 214.548C72.434 220.881 60.2753 226.631 49.1904 233.568L63.1952 236.874C74.6735 239.655 86.3241 242.471 97.9735 244.435C115.209 235.533 132.034 225.792 149.212 216.754C148.649 211.916 146.256 182.729 144.292 180.968ZM154.539 273.072Q124.433 290.28 94.0175 306.933C79.8206 314.78 65.5006 322.452 51.7004 330.988C56.6908 332.088 61.7633 333.049 66.6925 334.392C78.7406 336.949 90.7195 340.038 102.819 342.316C116.655 335.435 129.747 326.943 143.262 319.436C148.578 316.483 154.015 313.238 159.673 310.992C159.096 305.412 156.575 275.068 154.539 273.072Z"/>
	<path fill="#131228" transform="scale(0.666667 0.666667)" d="M245.232 91.0562C250.801 91.5513 256.72 94.3291 261.404 97.2818C262.768 122.114 267.658 146.757 268.208 171.676C260.882 178.536 238.494 189.026 228.482 194.444C214.198 202.175 200.17 211.006 185.125 217.155C184.923 217.218 184.728 217.307 184.52 217.344C180.824 217.995 173.703 214.596 170.502 212.769C167.731 204.14 167.815 192.391 166.844 183.258C165.593 171.501 163.717 159.756 163.031 147.947C162.811 144.17 162.516 140.147 163.211 136.406C167.046 131.079 234.023 96.4302 245.232 91.0562ZM177.893 142.909C178.755 156.664 180.571 170.404 181.994 184.114C182.838 192.244 183.073 200.709 184.601 208.713L185.528 209.094Q212.41 193.742 239.691 179.108C247.649 174.846 255.595 170.268 263.758 166.421C262.382 158.394 257.732 102.404 256.008 100.983C229.997 115.039 203.6 128.268 177.893 142.909ZM174.648 209.791L180.177 211.54C179.165 200.708 171.601 146.287 174.394 139.821C174.085 138.048 173.941 137.016 172.64 135.723C170.909 136.616 167.595 137.853 167.107 139.92C166.662 141.801 173.457 205.322 174.648 209.791Z"/>
	<path fill="#131228" transform="scale(0.666667 0.666667)" d="M223.568 131.582C227.156 131.255 230.619 131.44 233.92 133.021C237.087 134.537 239.324 137.17 240.379 140.509C242.694 147.831 240.282 156.595 236.778 163.167C232.149 171.851 225.164 177.529 215.801 180.403C211.785 180.919 208.592 180.84 205.006 178.748C201.493 176.697 199.498 173.265 198.641 169.365C196.942 161.63 198.724 153.276 202.874 146.609C207.588 139.036 214.866 133.56 223.568 131.582Z"/>
	<path fill="#ED8D80" transform="scale(0.666667 0.666667)" d="M204.061 157.036C206.356 149.455 210.319 143.331 217.404 139.387C221.159 137.297 225.726 136.055 229.949 137.391C232.524 138.206 234.609 139.93 235.703 142.42C237.992 147.634 235.612 154.747 233.465 159.713C230.983 165.454 226.715 170.833 221.108 173.752C218.931 175.273 216.614 176.063 214.07 176.779C212.388 176.369 210.64 176.034 208.989 175.524C207.626 174.484 206.395 173.453 205.391 172.047C202.171 167.539 203.176 162.102 204.061 157.036Z"/>
	<path fill="#FEFEFE" transform="scale(0.666667 0.666667)" d="M204.061 157.036C206.356 149.455 210.319 143.331 217.404 139.387C221.159 137.297 225.726 136.055 229.949 137.391C232.524 138.206 234.609 139.93 235.703 142.42C237.992 147.634 235.612 154.747 233.465 159.713C230.983 165.454 226.715 170.833 221.108 173.752C221.326 171.994 222.692 170.977 223.874 169.782C227.182 167.754 229.697 164.662 231.409 161.212C233.881 156.233 235.374 149.395 233.322 144.087C232.519 142.008 231.086 140.168 228.941 139.372C226.166 138.342 223.129 139.351 220.635 140.66C214.023 144.129 208.698 149.843 206.394 156.986L204.061 157.036Z"/>
	<path fill="#EDE8E7" transform="scale(0.666667 0.666667)" d="M208.989 175.524C207.626 174.484 206.395 173.453 205.391 172.047C202.171 167.539 203.176 162.102 204.061 157.036L206.394 156.986C206.604 161.33 206.8 165.799 209.34 169.532C210.071 171.009 210.644 171.953 210.346 173.662C209.909 174.273 209.492 174.97 208.989 175.524Z"/>
	<path fill="#FEFEFE" transform="scale(0.666667 0.666667)" d="M220.763 148.379C222.713 148.694 224.544 148.979 225.816 150.634C226.434 151.439 226.601 152.539 226.436 153.534C225.751 157.654 221.884 160.932 218.744 163.322C218.484 163.382 218.23 163.486 217.963 163.501C216.535 163.579 215.292 162.97 214.336 162.03C213.662 159.965 213.707 158.375 214.342 156.283C215.53 152.363 217.197 150.357 220.763 148.379Z"/>
	<path fill="#AAB" transform="scale(0.666667 0.666667)" d="M172.64 135.723C178.588 130.824 191.397 125.449 198.728 121.467C211.912 114.306 224.919 106.127 238.372 99.5595C240.979 98.2872 244.481 96.2597 247.427 96.471C248.701 96.5624 249.604 96.6821 250.446 97.6899C247.347 101.557 185.732 131.51 174.394 139.821C174.085 138.048 173.941 137.016 172.64 135.723Z"/>
	<path fill="#131228" transform="scale(0.666667 0.666667)" d="M273.979 308.927C278.174 308.476 282.001 311.664 285.325 313.821C285.558 323.847 293.984 386.315 292.957 389.185C292.363 390.845 291.193 392.303 289.83 393.396C282.731 399.083 266.275 407.486 257.936 412.224C243.517 420.416 229.182 429.445 214.304 436.76C211.305 438.234 209.916 438.848 206.608 437.726C203.352 436.604 199.631 438.348 196.687 436.279C195.413 434.245 194.988 431.567 194.585 429.225C192.874 419.277 192.368 409.031 191.199 399.001C189.629 385.539 187.367 371.955 186.968 358.399C195.517 351.096 208.986 345.02 219.021 339.469L273.979 308.927ZM209.277 430.356Q249.036 408.677 288.177 385.903C286.972 377.312 282.676 322.015 279.852 319.003Q239.881 340.164 201.328 363.81C203.361 385.963 205.696 407.938 208.6 429.993C208.818 430.127 209.021 430.352 209.277 430.356ZM201.359 434.029C202.852 432.837 203.761 432.421 203.923 430.306C204.483 423.011 202.338 414.377 201.355 407.109Q199.352 392.21 197.863 377.251C197.404 372.848 196.339 367.646 197.216 363.271C197.544 361.636 198.423 360.586 199.646 359.512C205.885 354.029 214.527 350.158 221.779 346.062Q241.06 335.164 260.483 324.524C264.67 322.273 274.283 318.785 276.888 315.167C276.404 314.027 276.191 314.002 275.049 313.431C275.008 313.411 274.963 313.403 274.92 313.389L215.075 346.57C207.512 350.821 197.83 354.809 191.442 360.563C192.675 372.545 194.548 384.446 195.767 396.424C196.875 407.303 197.273 418.566 199.134 429.326C199.41 430.918 199.611 432.58 200.903 433.691C201.046 433.815 201.207 433.917 201.359 434.029Z"/>
	<path fill="#131228" transform="scale(0.666667 0.666667)" d="M248.104 350.154C252.164 350.312 255.486 350.642 259.078 352.799C262.938 355.117 265.319 358.86 266.222 363.227C267.88 371.246 264.887 380.503 260.479 387.201C255.391 394.934 248.132 399.56 239.118 401.347C234.996 401.691 230.981 401.056 227.482 398.707C223.734 396.192 221.763 392.014 220.971 387.682C219.425 379.224 222.498 370.306 227.389 363.435C232.442 356.337 239.45 351.547 248.104 350.154Z"/>
	<path fill="#ED8D80" transform="scale(0.666667 0.666667)" d="M238.8 358.919C243.107 356.185 247.594 354.255 252.791 355.511Q253.375 355.646 253.942 355.838Q254.509 356.031 255.054 356.279Q255.599 356.527 256.117 356.828Q256.635 357.129 257.12 357.48Q257.605 357.831 258.053 358.228Q258.501 358.626 258.907 359.066Q259.313 359.507 259.673 359.985Q260.033 360.464 260.344 360.976C261.973 363.721 262.564 368.307 261.778 371.38C261.094 378.578 257.222 385.425 251.846 390.184C247.544 393.992 241.689 397.075 235.8 396.515C232.841 396.233 229.921 394.994 228.022 392.644C225.1 389.028 225.07 383.667 225.668 379.278C226.838 370.696 232.121 364.031 238.8 358.919Z"/>
	<path fill="#FEFEFE" transform="scale(0.666667 0.666667)" d="M261.778 371.38C261.094 378.578 257.222 385.425 251.846 390.184C247.544 393.992 241.689 397.075 235.8 396.515C232.841 396.233 229.921 394.994 228.022 392.644C225.1 389.028 225.07 383.667 225.668 379.278C226.838 370.696 232.121 364.031 238.8 358.919L240.374 360.614C234.889 365.585 229.708 371.247 229.361 379.099C229.206 382.6 230.187 386.111 232.65 388.682Q233.044 389.098 233.479 389.471Q233.913 389.845 234.384 390.172Q234.854 390.499 235.355 390.777Q235.856 391.055 236.383 391.28Q236.91 391.505 237.457 391.676Q238.004 391.846 238.566 391.96Q239.127 392.074 239.698 392.13Q240.268 392.186 240.841 392.184C245.158 392.194 249.21 390.1 252.193 387.068C256.122 383.076 257.851 378.278 259.281 373.018L259.71 373.128C259.591 374.764 259.089 376.408 258.701 378.002L259.068 378.217C260.578 376.007 260.506 372.877 261.151 370.286L261.778 371.38Z"/>
	<path fill="#EDE8E7" transform="scale(0.666667 0.666667)" d="M238.8 358.919C243.107 356.185 247.594 354.255 252.791 355.511Q253.375 355.646 253.942 355.838Q254.509 356.031 255.054 356.279Q255.599 356.527 256.117 356.828Q256.635 357.129 257.12 357.48Q257.605 357.831 258.053 358.228Q258.501 358.626 258.907 359.066Q259.313 359.507 259.673 359.985Q260.033 360.464 260.344 360.976C261.973 363.721 262.564 368.307 261.778 371.38L261.151 370.286C260.506 372.877 260.578 376.007 259.068 378.217L258.701 378.002C259.089 376.408 259.591 374.764 259.71 373.128L259.281 373.018L259.555 366.287C257.582 362.946 255.286 359.579 251.39 358.367C247.426 357.134 243.813 358.817 240.374 360.614L238.8 358.919Z"/>
	<path fill="#FEFEFE" transform="scale(0.666667 0.666667)" d="M244.565 367.374C246.044 367.581 248.055 368.308 248.959 369.579C249.904 370.909 250.079 372.36 249.757 373.92C248.899 378.073 246.377 380.724 242.94 382.939C241.183 382.583 239.012 382.025 237.864 380.526C236.934 379.313 236.665 377.987 236.985 376.49C237.831 372.525 241.434 369.603 244.565 367.374Z"/>
	<path fill="#131228" transform="scale(0.666667 0.666667)" d="M260.291 200.007C264.944 200.158 269.203 203.528 273.026 205.955C273.461 215.545 274.712 225.135 275.746 234.675L280.956 280.723C278.762 282.885 276.468 284.597 273.867 286.238C259.914 295.044 244.869 302.557 230.532 310.768L209.435 322.789C206.31 324.561 202.808 327.048 199.451 328.267C198.478 328.62 198.95 328.604 197.915 328.141C193.908 326.841 188.548 327.505 185.306 324.405C183.951 323.111 183.488 321.094 183.074 319.336C180.901 310.099 180.561 299.853 179.602 290.404C178.168 276.263 176.438 262.218 175.513 248.026C183.919 240.227 210.834 227.767 222.316 221.559C235.11 214.643 247.632 207.172 260.291 200.007ZM190.369 253.379C191.517 265.864 193.407 278.296 194.815 290.754C195.487 296.704 196.249 315.079 198.258 319.556L239.3 296.405C251.132 289.641 263.115 282.115 275.614 276.66C274.43 269.533 269.117 210.958 267.917 209.955C251.21 218.889 234.671 227.962 218.152 237.238C208.837 242.47 199.315 247.532 190.369 253.379ZM180.15 249.69C181.068 262.379 182.938 274.984 184.206 287.641C185.19 297.45 185.378 307.883 187.303 317.538C187.705 319.55 188.186 321.021 189.401 322.675C190.892 322.499 191.696 322.629 192.85 321.631C193.354 315.345 191.984 308.562 191.224 302.311C189.363 287.015 185.768 266.266 185.938 251.543C191.848 245.805 200.374 241.863 207.565 237.909L247.786 215.707C252.336 213.184 257.625 211.096 261.915 208.283C262.925 207.621 263.203 207.184 263.439 206.033C263.14 205.522 262.848 204.884 262.455 204.444C244.7 214.655 226.544 224.253 208.523 233.989C199.017 239.124 189.313 243.95 180.15 249.69Z"/>
	<path fill="#131228" transform="scale(0.666667 0.666667)" d="M238.558 238.646C241.516 238.475 244.966 239.179 247.612 240.523C251.184 242.338 253.484 245.493 254.677 249.267C257.04 256.744 255.392 265.039 251.779 271.829C246.659 281.455 238.623 287.345 228.34 290.492C224.296 290.623 221.094 290.109 217.639 287.824C213.911 285.358 211.9 281.452 211.075 277.146C209.41 268.451 211.9 259.232 216.976 252.086C222.301 244.588 229.524 240.19 238.558 238.646Z"/>
	<path fill="#EDE8E7" transform="scale(0.666667 0.666667)" d="M239.008 243.601C240.926 243.655 242.767 244.163 244.493 244.985C247.449 246.39 249.536 248.414 250.568 251.566C252.45 257.311 250.76 264.2 248.059 269.435C243.813 277.664 236.987 282.814 228.262 285.549C225.56 285.536 223.313 285.115 220.939 283.753C218.115 282.133 216.36 279.653 215.655 276.485C214.164 269.785 216.527 262.231 220.188 256.576C224.736 249.554 230.821 245.348 239.008 243.601Z"/>
	<path fill="#ED8D80" transform="scale(0.666667 0.666667)" d="M237.813 246.047C240.069 246.102 242.052 246.339 244.111 247.329C246.626 248.537 248.46 250.439 249.272 253.141C250.741 258.028 249.161 264.172 246.68 268.471C243.197 274.508 237.753 278.197 231.122 279.982C228.699 279.9 226.378 279.435 224.219 278.287C222.067 277.143 220.559 275.401 219.861 273.053C218.559 268.672 220.121 263.573 222.145 259.662C225.528 253.121 230.763 248.336 237.813 246.047Z"/>
	<path fill="#EDE8E7" transform="scale(0.666667 0.666667)" d="M234.705 255.458C236.375 255.935 238.203 256.313 239.403 257.67C240.273 258.654 240.502 259.736 240.383 261.014C239.971 265.461 234.848 269.191 231.552 271.615Q231.228 271.731 230.889 271.793Q230.55 271.856 230.206 271.865Q229.862 271.874 229.52 271.828Q229.179 271.782 228.849 271.683C228.164 271.483 227.702 271.295 227.362 270.656C226.104 268.296 226.688 265.086 227.563 262.705C229.003 258.786 230.981 257.141 234.705 255.458Z"/>
	<path fill="#131228" transform="scale(0.666667 0.666667)" d="M182.145 513.438C182.674 513.538 182.594 513.502 183.101 513.681C190.45 516.277 206.07 540.505 209.884 547.949C199.771 545.281 190.123 540.449 180.657 536.094C180.262 537.66 179.984 539.234 179.727 540.827C169.849 602.05 178.29 672.816 207.526 727.97C215.739 743.465 226.371 757.506 236.612 771.686C242.09 768.582 247.304 765.014 252.508 761.478C252.363 759.637 252.166 757.992 252.638 756.189C256.243 752.313 280.149 740.228 286.497 737.384C291.704 744.647 296.18 753.458 303.145 759.168C304.998 756.692 306.388 754.013 308.521 751.735C312.155 749.875 328.231 758.546 332.85 759.879C334.899 760.471 337.176 760.452 339.297 760.517C345.407 773.385 349.999 786.875 355.358 800.058C363.153 798.042 370.704 795.746 378.315 793.132C382.816 801.873 388.345 812.284 389.987 821.997C383.735 827.019 374.865 830.545 367.482 833.653C372.016 844.237 374.851 855.137 378.096 866.148C381.742 867.91 388.926 869.259 391 873.096C392.978 876.753 387.089 890.057 385.749 894.485C437.78 909.995 495.208 911.598 547.667 896.955C541.573 893.756 535.345 890.498 529.461 886.931C526.35 885.045 522.822 882.669 521.896 878.924L522.545 878.301C524.05 878.293 525.29 878.722 526.642 879.354C531.576 881.659 554.514 894.132 555.958 897.839C555.839 899.98 554.677 901.49 553.564 903.24C548.656 910.401 544.989 918.441 539.595 925.292C538.273 926.97 536.993 928.883 534.771 929.146L533.867 928.327C533.457 923.069 545.054 906.941 548.35 901.936C535.982 905.499 523.146 907.333 510.383 908.789C468.55 913.564 425.071 911.772 384.584 899.351C383.967 901.638 383.119 903.837 382.302 906.057C373.189 913.762 341.499 931.938 329.879 937.12C326.502 932.234 323.817 926.731 321.251 921.384Q309.503 928.774 296.993 934.787C289.221 930.205 280.947 926.367 273.402 921.425C271.621 908.228 275.025 895.152 268.26 882.812C265.25 877.323 261.515 874.05 255.582 872.285C249.751 873.769 244.81 876.719 239.574 879.579C237.134 876.74 224.607 854.765 224.992 852.317C225.814 847.08 238.865 842.556 242.801 838.925C247.971 834.155 247.121 825.579 247.225 819.088C241.524 811.806 232.063 806.086 224.652 800.563C227.088 791.816 229.933 783.096 232.762 774.468L231.189 772.326C219.938 756.993 209.237 741.334 200.684 724.297C179.453 682.01 170.111 628.324 171.447 581.253C171.896 565.438 173.816 549.97 176.213 534.355C169.425 533.017 153.314 533.037 149.053 531.442C147.8 530.973 147.198 530.659 146.602 529.462C147.114 528.53 147.366 528.165 148.321 527.604C151.54 525.716 155.813 524.529 159.299 523.092Q170.755 518.344 182.145 513.438ZM336.253 808.174C338.352 807.806 340.623 807.578 342.647 806.923C345.777 805.787 348.947 804.459 352.149 803.563C345.571 791.116 342.219 777.251 336.255 764.547C334.503 764.561 332.499 764.376 330.78 764.626C328.831 764.988 326.869 765.179 325.169 766.258C323.146 770.186 321.738 793.36 323.265 797.797C324.522 801.45 327.454 804.514 330.947 806.14C332.652 806.934 334.492 807.506 336.253 808.174ZM270.286 751.643C272.535 759.488 275.884 775.12 283.744 779.042C284.829 779.583 285.902 779.885 287.096 780.042C289.906 779.567 292.772 779.189 295.558 778.604C297.373 773.957 299.317 769.315 300.996 764.619C297.708 760.324 288.077 745.899 284.396 743.447C279.748 746.306 275.11 749.087 270.286 751.643ZM282.377 806.552C276.544 808.621 271.95 811.246 269.22 817.135C265.012 826.217 266.943 838.276 270.439 847.275C275.201 859.53 284.415 870.875 296.634 876.25C301.5 878.39 305.885 878.819 311.123 878.126C316.846 875.969 321.136 872.977 323.696 867.173C327.828 857.808 325.539 846.102 321.774 837.008C316.714 824.784 308.048 813.687 295.517 808.582C291.133 806.796 287.078 806.282 282.377 806.552ZM373.027 906.608C361.797 902.8 351.416 896.906 340.233 893.235C337.584 903.408 343.691 912.481 346.976 921.779C352.298 918.941 357.447 915.819 362.688 912.838C366.108 910.75 369.503 908.511 373.027 906.608ZM185.629 533.184C190.307 535.439 195.031 538.008 199.889 539.819C195.548 533.97 187.736 521.659 182.018 517.987C175.172 521.463 167.769 524.105 161.092 527.821C169.429 528.551 178.06 529.275 185.629 533.184ZM384.741 819.909C383.404 816.301 378.193 800.979 375.74 799.588C375.616 799.518 375.46 799.539 375.32 799.514C368.482 802.255 361.29 804.782 354.775 808.238C356.615 815.225 358.534 823.887 362.724 829.818C363.19 829.929 363.597 830.067 364.079 830.039Q374.454 825.065 384.741 819.909ZM309.403 922.463L319.217 917.153C316.355 911.886 313.617 905.724 307.372 903.881C306.234 903.545 305.22 903.433 304.04 903.41C300.473 906.402 299.635 910.328 299.218 914.834C298.812 919.216 298.803 923.689 298.648 928.089L309.403 922.463ZM357.714 895.116L375.969 902.534L377.259 902.634C380.966 898.804 385.007 881.012 386.952 875.055C382.316 873.219 375.635 869.137 370.763 868.892C361.865 876.02 360.228 884.652 357.714 895.116ZM239.448 775.593Q243.272 778.717 247.164 781.756C249.791 783.46 251.816 785.19 255.115 784.83C256.244 784.063 256.792 783.708 257.122 782.33C257.999 778.658 255.835 770.251 254.039 767.067L253.364 766.925C248.849 769.993 244.109 772.753 239.448 775.593ZM372.869 863.383C371.234 858.037 366.271 838.98 363.027 836.019C357.874 838.327 352.158 840.383 347.393 843.404C347.811 849.908 347.862 857.6 353.039 862.356C354.656 863.842 356.501 864.943 358.435 865.958C360.488 867.099 361.771 867.808 364.171 867.199C367.187 866.435 369.938 864.48 372.869 863.383Z"/>
	<path fill="#AAB" transform="scale(0.666667 0.666667)" d="M265.496 754.998C267.448 757.112 270.38 767.792 271.977 771.28C274.327 776.416 277.522 782.742 283.236 784.652C289.043 786.594 294.762 783.988 299.813 781.288C303.056 775.457 304.85 768.646 306.927 762.333Q313.136 764.545 319.578 765.939C319.354 776.431 315.516 788.458 318.631 798.682C320.138 803.629 323.305 808.115 328.002 810.465C335.49 814.211 343.018 812.565 350.508 810.052C352.37 818.174 355.233 825.205 359.18 832.536C353.33 834.897 347.823 837.634 342.342 840.74C342.826 846.327 342.931 852.49 344.589 857.86C346.997 865.657 353.365 868.948 360.124 872.426Q356.262 882.826 353.037 893.44C348.112 891.505 343.362 889.699 339.063 886.561C338.091 888.071 337.078 889.602 336.359 891.253C332.004 901.256 339.069 915.098 342.627 924.538C339.024 926.855 335.554 929.232 332.172 931.864L324.46 917.25C322.166 912.763 319.848 908.084 316.444 904.315C313.782 901.369 310.212 898.91 306.117 898.8C303.392 898.726 299.998 899.754 298.097 901.775C293.541 906.62 294.451 921.538 294.507 927.819C288.938 924.557 283.148 921.61 277.456 918.566C277.177 902.89 279.789 891.867 270.323 877.99C267.224 873.445 262.767 868.605 257.088 867.693C251.148 866.739 245.905 870.912 241.346 874.115C237.107 867.435 233.663 860.205 230.059 853.166C234.915 850.587 240.167 848.029 244.259 844.301C251.971 837.276 251.549 827.344 251.811 817.805C246.328 809.521 237.931 804.438 229.733 799.191C231.872 792.584 234.276 786.043 236.564 779.484C239.227 782.004 242.215 784.409 245.286 786.414C248.688 788.634 253.426 790.978 257.585 789.895C259.091 789.502 260.294 788.555 260.997 787.169C264.768 779.737 258.97 766.751 256.644 759.545C259.518 757.918 262.551 756.498 265.496 754.998ZM311.123 878.126C316.846 875.969 321.136 872.977 323.696 867.173C327.828 857.808 325.539 846.102 321.774 837.008C316.714 824.784 308.048 813.687 295.517 808.582C291.133 806.796 287.078 806.282 282.377 806.552C276.544 808.621 271.95 811.246 269.22 817.135C265.012 826.217 266.943 838.276 270.439 847.275C275.201 859.53 284.415 870.875 296.634 876.25C301.5 878.39 305.885 878.819 311.123 878.126Z"/>
	<path fill="#131228" transform="scale(0.666667 0.666667)" d="M282.334 801.612C289.357 801.337 295.61 802.813 301.724 806.317C315.035 813.946 324.146 827.346 328.141 841.963C330.759 851.543 331.643 863.899 326.33 872.764C322.616 878.96 316.91 881.854 310.115 883.446Q308.986 883.49 307.857 883.462Q306.727 883.435 305.602 883.336Q304.477 883.237 303.36 883.067Q302.243 882.897 301.139 882.657Q300.035 882.418 298.948 882.109Q297.862 881.799 296.797 881.422Q295.732 881.045 294.693 880.602Q293.654 880.158 292.645 879.65C280.017 873.426 270.216 861.146 265.746 847.92C262.231 837.517 260.576 823.974 265.826 813.847C269.479 806.802 275.112 803.858 282.334 801.612ZM311.123 878.126C316.846 875.969 321.136 872.977 323.696 867.173C327.828 857.808 325.539 846.102 321.774 837.008C316.714 824.784 308.048 813.687 295.517 808.582C291.133 806.796 287.078 806.282 282.377 806.552C276.544 808.621 271.95 811.246 269.22 817.135C265.012 826.217 266.943 838.276 270.439 847.275C275.201 859.53 284.415 870.875 296.634 876.25C301.5 878.39 305.885 878.819 311.123 878.126Z"/>
</svg>
