<?xml version="1.0" encoding="utf-8" ?>
<svg xmlns="http://www.w3.org/2000/svg" xmlns:xlink="http://www.w3.org/1999/xlink" width="683" height="683">
	<path fill="#080723" transform="scale(0.666667 0.666667)" d="M413.174 53.1827C418.033 53.0877 424.563 52.9634 428.235 56.6661C431.418 59.8758 431.073 63.5336 430.967 67.6951C441.644 75.4879 455.245 81.0884 467.087 86.986C477.815 81.1115 489.099 71.9457 501.079 68.9571C504.358 68.1391 507.415 68.8214 510.547 69.9448C517.911 72.5863 524.886 77.4234 531.64 81.3636C539.055 85.6893 546.578 89.822 553.977 94.1773C567.895 87.0659 582.486 79.2913 595.465 70.5504C594.807 68.4885 594.222 66.2561 594.605 64.084C595.063 61.4876 596.521 59.3847 598.756 58.0147C603.475 55.1224 610.608 55.5322 615.877 56.675C619.305 57.4185 623.223 58.7701 625.104 61.9741C626.131 63.7237 626.429 65.7401 625.833 67.6912C624.941 70.6073 622.389 72.6301 619.737 73.8989C613.175 77.0379 606.372 75.7983 599.85 73.4479C586.357 81.7969 572.256 89.0652 558.598 97.1341C574.199 104.838 589.111 114.156 604.624 122.117C617.329 113.302 632.152 106.623 645.597 98.8909C644.742 96.3211 644.041 93.922 644.894 91.2454C645.719 88.6585 647.515 86.8298 649.977 85.7399C655.218 83.4195 663.193 84.0453 668.445 86.1107C671.498 87.3111 675.037 89.4533 676.252 92.6868C676.814 94.1811 676.683 95.7535 676.018 97.1841C674.735 99.9451 672.018 101.579 669.225 102.504Q668.634 102.695 668.035 102.858Q667.435 103.021 666.829 103.154Q666.222 103.288 665.61 103.393Q664.998 103.498 664.382 103.573Q663.765 103.648 663.146 103.694Q662.526 103.739 661.906 103.755Q661.285 103.771 660.664 103.757Q660.043 103.744 659.423 103.7Q658.804 103.657 658.187 103.584Q657.57 103.511 656.958 103.408Q656.345 103.306 655.738 103.174Q655.132 103.042 654.532 102.882Q653.932 102.721 653.34 102.532Q652.749 102.343 652.167 102.126Q651.585 101.908 651.014 101.664Q650.443 101.419 649.885 101.147C636.993 110.078 622.25 117.384 608.413 124.785Q629.925 137.195 651.614 149.293Q672.49 138.049 693.147 126.405C692.212 124.527 691.536 122.526 691.543 120.41C691.551 118.108 692.32 115.897 694.065 114.343C697.377 111.391 702.986 111.039 707.222 111.296C712.224 111.601 718.224 113.237 721.54 117.253C722.66 118.609 723.396 120.303 723 122.092C722.373 124.919 719.341 127.595 716.866 128.832C711.149 131.692 703.833 131.35 697.921 129.342C684.516 137.373 670.402 144.239 656.955 152.216Q678.059 164.376 699.329 176.243C712.155 169.245 727.219 161.134 739.232 153.09C739.069 151.132 738.699 148.854 738.984 146.908C739.364 144.31 741.097 141.775 743.267 140.346C747.44 137.599 753.666 138.077 758.377 139.055C762.487 139.908 767.199 141.669 769.476 145.444C770.43 147.026 770.67 148.697 770.127 150.486C769.31 153.179 765.709 155.529 763.286 156.572C756.975 159.29 750.314 158.67 744.137 156.044C731.108 164.133 717.511 171.361 704.398 179.338C719.019 187.899 734.28 195.695 749.081 203.98C761.594 196.355 774.529 189.534 786.84 181.567L786.57 179.9C786.328 178.414 786.03 176.953 786.27 175.446C786.676 172.89 788.069 170.478 790.225 169.019C794.163 166.356 800.136 166.486 804.639 167.293C809.163 168.104 814.43 170.198 817.027 174.227C817.991 175.722 818.453 177.558 817.849 179.294C816.969 181.827 814.151 183.787 811.848 184.898C804.954 188.224 797.519 187.511 790.53 185.111C778.957 193.163 766.609 199.814 754.325 206.686C768.836 215.687 783.954 224.416 799.245 232.024C810.909 226.491 825.454 217.437 836.44 210.362C834.821 207.823 833.979 205.14 834.623 202.111C835.026 200.217 836.323 198.793 837.912 197.771C842.66 194.716 849.69 194.441 855.05 195.638C858.726 196.459 863.11 198.331 865.102 201.735C865.949 203.183 866.126 204.708 865.692 206.308C865.009 208.829 862.719 211.233 860.491 212.494C854.814 215.707 847.672 214.661 841.735 212.874C829.509 220.604 816.91 228.58 803.83 234.787Q816.755 241.395 829.6 248.158C835.392 251.187 842.292 254.065 847.263 258.322C848.445 259.334 849.157 260.726 849.872 262.081C850.068 270.449 851.109 293.359 849.248 300.39C848.6 302.839 847.381 304.844 845.506 306.548C841.722 309.987 836.154 312.444 831.691 314.96Q821.304 320.739 811.095 326.826C817.122 330.844 823.843 334.096 830.291 337.386C843.23 343.989 856.631 350.212 869.128 357.616C872.417 356.473 876.011 356.142 879.484 356.394C883.853 356.71 889.873 358.289 892.788 361.824C893.78 363.025 894.334 364.684 894.076 366.241C893.658 368.764 891.388 370.592 889.304 371.786C883.85 374.911 875.798 375.657 869.766 373.757C867.233 372.96 864.743 371.453 863.572 368.97C862.126 365.902 862.771 363.065 863.835 360.014C858.321 356.472 852.101 353.75 846.24 350.823C832.899 344.159 818.786 337.604 806.247 329.538Q782.775 341.957 759.905 355.452C779.107 366.088 799.195 375.36 818.57 385.73C823.897 384.103 830.312 383.841 835.687 385.543C838.456 386.42 842.075 388.404 843.193 391.268C843.694 392.55 843.585 393.713 843.072 394.964C841.809 398.046 837.893 400.408 834.922 401.5C829.852 403.362 822.322 403.347 817.331 400.983C815.685 400.203 814.145 398.954 813.563 397.16C812.501 393.887 813.241 391.362 814.835 388.483C803.85 383.947 793.311 377.75 782.71 372.368C775.061 368.486 762.013 363.228 755.701 358.079Q733.468 370.485 711.462 383.289C719.104 386.478 726.56 391.417 733.699 395.609L769.021 416.442C774.572 415.202 779.446 414.267 784.99 416.347C787.62 417.333 790.495 419.515 791.586 422.178Q791.717 422.501 791.815 422.837Q791.912 423.172 791.975 423.515Q792.038 423.858 792.066 424.206Q792.094 424.554 792.086 424.903Q792.079 425.252 792.036 425.598Q791.993 425.944 791.915 426.284Q791.837 426.625 791.725 426.955Q791.613 427.286 791.468 427.603C790.026 430.752 786.455 432.65 783.303 433.632C778.027 435.276 770.862 435.314 765.905 432.628C763.87 431.526 762.297 429.852 761.737 427.564C760.969 424.424 762.296 421.638 763.916 419.035Q735.947 401.922 707.261 386.038C691.329 394.675 675.185 403.16 659.636 412.46C677.649 422.869 696.341 432.666 713.746 444.042C715.661 443.18 717.579 442.315 719.602 441.733C725.667 439.988 733.014 440.728 738.542 443.882C740.764 445.149 742.771 446.788 743.297 449.4C743.687 451.339 742.53 453.45 741.332 454.875C737.911 458.947 732.286 460.801 727.126 461.086C722.936 461.317 718.068 460.788 714.888 457.754C712.131 455.123 711.441 452.124 711.477 448.445C693.877 436.029 673.02 426.423 654.647 414.897Q631.975 427.989 609.502 441.42C627.291 452.051 644.977 463.22 663.301 472.901C665.896 472.181 668.517 471.474 671.166 470.973C676.49 469.965 682.965 470.608 687.461 473.858C689.516 475.343 691.136 477.569 691.411 480.144C691.617 482.08 690.925 483.936 689.691 485.411C686.631 489.068 681.135 490.53 676.557 490.832C671.973 491.134 666.673 490.271 663.215 487.001C660.175 484.125 660.083 481.244 659.95 477.334C653.671 472.793 646.737 468.93 640.061 465.003C628.256 458.058 616.306 451.329 604.605 444.213C589.246 452.164 573.411 460.795 558.931 470.27C570.284 476.59 581.399 483.338 592.672 489.798C599.642 493.792 606.938 497.414 613.642 501.836C617.592 499.707 621.768 498.464 626.292 498.582C630.454 498.691 635.987 499.823 638.913 503.059C640.519 504.834 641.283 507.618 641.05 509.974C640.82 512.3 639.512 514.258 637.721 515.705C633.711 518.945 627.724 519.785 622.74 519.2C618.793 518.737 614.887 517.353 612.403 514.1C610.168 511.173 610.546 508.56 611.014 505.141C602.437 501.501 594.042 496.246 586.027 491.501L554.448 472.697C537.253 482.068 520.671 492.887 503.244 501.766C475.059 486.664 447.917 469.672 419.172 455.593C399.138 466.929 378.746 477.851 358.501 488.822C346.799 495.164 334.96 501.328 323.58 508.238C323.125 513.167 323.026 517.955 323.119 522.898C325.518 523.48 327.953 524.161 330.208 525.183C332.859 526.383 335.276 528.766 336.235 531.547Q336.352 531.877 336.436 532.217Q336.519 532.557 336.567 532.904Q336.615 533.25 336.627 533.6Q336.639 533.95 336.616 534.299Q336.592 534.649 336.533 534.994Q336.474 535.339 336.38 535.676Q336.286 536.013 336.158 536.339Q336.03 536.665 335.87 536.976C334.213 540.17 331.188 542.192 327.785 543.138C322.272 544.67 315.53 544.121 310.537 541.267C307.866 539.741 305.305 537.29 304.548 534.207C304.133 532.517 304.461 530.784 305.463 529.352C308.161 525.494 313.647 524.054 318.036 523.294C318.091 517.731 318.169 512.214 318.624 506.665C325.402 499.155 349.319 488.253 359.072 483.05Q374.346 474.51 389.743 466.192C397.992 461.753 406.493 457.565 414.463 452.655C400.074 445.232 386.234 436.793 371.824 429.388C358.397 437.919 343.903 445.227 329.958 452.89Q293.401 473.31 256.616 493.318C236.198 504.252 215.147 514.498 195.402 526.621C196.418 529.125 196.783 531.428 196.099 534.082C195.494 536.435 194.212 538.124 192.102 539.335C187.565 541.939 180.402 541.816 175.52 540.348C171.947 539.273 167.836 536.974 166.07 533.53C165.244 531.92 165.161 530.348 165.852 528.667C166.892 526.136 169.833 524.048 172.246 522.981C178.054 520.413 184.818 521.025 190.558 523.397C202.86 517.463 214.75 510.38 226.806 503.932Q263.418 484.386 299.705 464.245C322.41 451.594 344.952 438.611 368.103 426.789C353.106 419.317 338.693 410.219 323.951 402.193C317.454 407.17 309.106 410.897 301.924 414.839L261.448 437.145L130.591 510.589C132.921 512.866 134.785 515.417 134.827 518.818C134.851 520.733 134.046 522.361 132.62 523.619C129.102 526.721 122.316 527.899 117.857 527.667C113.634 527.447 109.085 526.11 106.275 522.76C104.803 521.006 104.023 518.799 104.341 516.508C104.702 513.908 106.278 511.746 108.418 510.288C113.558 506.789 120.069 507.261 125.859 508.362C145.993 496.208 166.776 485.076 187.305 473.606L319.487 399.709C304.914 392.147 290.464 383.801 276.261 375.556L220.256 406.424C212.191 410.882 203.896 417.119 195.213 420.157C183.833 424.14 168.304 420.136 156.168 421.285C153.452 421.542 150.96 422.576 148.506 423.712C137.576 428.772 126.955 435.535 116.509 441.558C106.188 447.509 95.404 453.156 85.5029 459.773C87.0916 461.969 88.718 464.512 88.5533 467.344C88.4243 469.561 87.0752 471.214 85.4947 472.654C81.8397 475.986 77.273 477.329 72.38 476.957C68.1255 476.633 63.7596 475.224 61.0241 471.763C59.3838 469.688 58.5674 466.966 58.9689 464.331C59.2966 462.181 60.475 460.41 62.2771 459.204C66.7781 456.194 74.6192 456.343 79.7472 457.428C87.2138 454.135 94.3503 449.352 101.411 445.251Q118.614 435.167 136.065 425.518C139.95 423.339 143.52 420.25 147.613 418.503C160.712 412.911 176.366 420.012 190.072 416.921C198.745 414.965 219.873 401.348 229.011 396.224Q250.243 384.176 271.826 372.771C265.456 369.93 259.2 365.691 253.116 362.232Q236.064 352.713 219.112 343.015Q199.909 354.155 180.411 364.771C171.2 369.827 161.623 374.699 152.924 380.599C154.539 382.816 155.669 385.177 155.235 387.979C154.914 390.057 153.741 391.786 152.051 393.011C147.659 396.195 141.568 397.063 136.313 396.187C132.658 395.578 128.832 393.99 126.673 390.827C125.398 388.959 124.828 386.704 125.293 384.467C125.769 382.178 127.229 380.265 129.201 379.04C134.859 375.522 142.581 376.619 148.651 378.224C169.874 364.587 193.128 354.231 214.243 340.485C204.427 334.075 193.76 328.521 183.433 322.973C175.129 318.512 166.011 314.293 159.016 307.905C158.955 296.814 157.444 271.339 160.245 261.52C150.919 254.93 134.067 246.877 123.444 241.08C117.877 242.543 110.583 243.491 105.097 241.416C102.394 240.394 100.027 238.479 98.9997 235.711C98.1864 233.519 98.3364 231.177 99.3028 229.063C100.74 225.918 103.811 223.762 107.037 222.74C112.818 220.908 119.836 222.314 125.027 225.304C126.933 226.402 128.583 228.086 129.084 230.285C129.776 233.322 128.703 235.341 127.216 237.924C140.135 244.262 152.852 251.65 165.458 258.618C180.17 249.607 197.314 239.902 212.813 232.397C201.202 225.002 188.272 219.745 176.669 212.195C174.599 212.866 172.509 213.586 170.364 213.98C164.829 214.996 158.535 214.666 153.864 211.211C151.767 209.661 150.027 207.332 149.697 204.689C149.45 202.708 150.042 200.805 151.334 199.287C154.353 195.74 159.762 194.854 164.161 194.652C168.558 194.451 174.433 194.587 177.742 197.875C181.02 201.131 180.673 204.965 180.748 209.237C191.44 217.259 205.124 223.452 217.277 229.015C224.461 225.89 231.305 221.503 238.1 217.606C246.26 212.927 254.539 208.436 262.611 203.607C250.171 196.928 237.415 190.665 225.193 183.589C222.637 184.36 220.004 185.096 217.333 185.305C211.575 185.755 205.496 185.124 201.026 181.125C199.36 179.635 197.966 177.696 197.92 175.382C197.881 173.353 198.9 171.529 200.29 170.114C203.771 166.572 209.409 165.394 214.201 165.317C218.458 165.249 223.034 166.025 226.108 169.231C229.183 172.439 229.499 176.056 229.492 180.253Q247.803 191.197 266.679 201.134C281.478 192.69 296.227 183.86 311.36 176.043C298.85 169.501 286.515 162.33 273.763 156.292C270.066 157.188 266.411 157.81 262.59 157.692C258.494 157.566 254.05 156.493 251.227 153.308C249.67 151.552 248.837 149.244 249.048 146.895C249.251 144.641 250.483 142.58 252.208 141.148C256.038 137.968 261.712 137.479 266.491 138.04C270.601 138.523 275.444 140.04 278.044 143.502C279.454 145.38 279.389 147.579 279.12 149.798C278.982 150.936 278.852 151.844 279.028 152.99C282.34 155.6 286.638 157.438 290.355 159.468Q302.907 166.325 315.531 173.047C330.988 164.969 346.091 156.144 361.447 147.858C348.708 141.427 336.748 133.584 323.819 127.49C318.574 128.317 313.282 128.615 308.108 127.138C305.257 126.324 302.448 124.893 301.109 122.106C300.202 120.217 300.309 117.874 301.151 115.982C302.562 112.816 305.706 110.794 308.886 109.716C314.237 107.904 320.665 108.129 325.665 110.87C327.927 112.111 330.705 114.047 331.306 116.739C331.974 119.73 330.294 121.924 328.669 124.247L365.832 144.826C381.744 136.272 397.111 126.765 413.034 118.232C400.079 111.504 386.883 104.993 374.663 96.9795C370.804 98.8465 366.989 100.346 362.637 100.347C358.053 100.347 353.318 98.9054 350.108 95.5038C348.531 93.8332 347.297 91.7852 347.516 89.4085C347.733 87.0607 349.336 85.1096 351.138 83.7167C355.752 80.15 362.294 79.4455 367.9 80.3488C371.432 80.9179 374.786 82.2063 376.891 85.2485C378.883 88.1285 378.697 90.331 377.988 93.6058C384.719 98.1375 409.856 112.557 416.63 114.073C421.1 115.074 456.437 93.2191 462.256 89.853C450.302 84.653 437.5 77.0483 425.77 70.9415C418.507 72.5318 410.877 73.5363 404.259 69.2007C402.081 67.7739 399.946 65.6204 399.464 62.9608C399.177 61.3755 399.584 59.8863 400.529 58.6017C403.289 54.8495 408.83 53.7451 413.174 53.1827ZM503.47 72.5064C492.53 77.0539 482.725 83.7841 472.52 89.7244L432.625 112.525L310.399 182.241L213.452 237.398C198.356 245.931 178.2 255.34 164.866 265.606C178.42 273.68 192.326 281.115 205.996 288.989L378.828 386.774Q423.129 412.141 467.802 436.847L490.335 449.409C493.271 451.081 496.046 453.126 499.049 454.654C500.587 455.437 502.035 456.027 503.742 456.31C504.491 456.039 505.226 455.787 505.946 455.443C517.019 448.228 529.021 442.035 540.52 435.507L604.333 399.431L773.015 303.833C782.883 298.292 842.063 266.873 844.952 262.779C841.843 259.205 800.45 238.38 792.664 234.135C717.018 192.887 642.509 149.455 567.288 107.433Q551.99 98.9075 536.858 90.0889C527.771 84.8298 513.131 74.7567 503.47 72.5064ZM163.891 270.628L163.896 306.115C180.119 316.254 197.005 325.279 213.71 334.59L293.69 379.327Q376.768 426.919 461.018 472.405C474.606 479.786 487.752 488.301 501.466 495.386C501.44 484.076 501.065 472.638 501.441 461.342Q452.062 433.057 402.126 405.769L235.78 311.587C211.923 297.832 187.265 285.192 163.891 270.628ZM506.76 494.543Q554.254 466.765 602.236 439.839L765.593 346.457L817.255 317.458C825.658 312.775 837.655 307.415 844.737 301.156C844.893 296.455 845.907 273.058 844.32 270.077C844.305 270.049 844.272 270.035 844.248 270.013Q731.074 332.24 619.101 396.606L545.152 438.521C533.811 444.895 521.732 450.615 510.769 457.593C508.742 458.883 506.917 460.513 506.248 462.897C505.436 465.788 505.385 492.646 506.339 494.713L506.76 494.543ZM730.068 456.12C732.37 455.409 736.561 454.551 737.683 452.192C738.155 451.199 738.083 450.193 737.473 449.28C735.35 446.103 729.517 445.279 726.024 445.111C725.682 445.094 725.339 445.097 724.997 445.107C722.526 445.581 718.943 446.203 717.252 448.297C716.336 449.431 716.421 450.121 716.461 451.473C717.622 453.823 719.44 455.084 721.935 455.855C724.609 456.68 727.337 456.528 730.068 456.12ZM678.996 486.016C681.26 485.314 684.866 484.519 685.924 482.154C686.44 481 686.204 480.098 685.628 479.035C684.469 476.895 680.521 475.565 678.287 475.255C676.377 474.99 674.446 474.912 672.531 475.134C670.23 475.502 666.943 475.883 665.52 478.039C664.838 479.072 664.862 480.021 665.197 481.172C665.784 483.189 668.746 484.884 670.549 485.579C673.363 486.663 676.086 486.606 678.996 486.016ZM322.295 539.238C324.987 538.605 328.942 538.141 330.321 535.364C330.859 534.281 330.883 533.13 330.352 532.039C329.267 529.805 326.247 528.505 323.976 528.001C322.057 527.575 320.176 527.449 318.221 527.552C315.629 528.262 311.555 528.949 310.347 531.732C309.846 532.885 309.955 534.032 310.604 535.097C312.343 537.949 316.759 538.827 319.773 539.127C320.635 539.212 321.43 539.26 322.295 539.238ZM184.565 536.946C186.703 536.403 190.291 535.56 191.397 533.379C192.011 532.167 191.862 531.241 191.317 530.051C190.325 527.882 186.696 526.22 184.511 525.749C182.509 525.317 180.504 525.408 178.478 525.559C176.026 526.255 172.3 526.907 171.224 529.57C170.777 530.676 171.005 531.812 171.614 532.796C173.013 535.059 176.5 536.484 179.004 536.906C180.841 537.215 182.72 537.113 184.565 536.946ZM73.0139 472.241C76.2879 471.974 79.8604 471.749 82.2415 469.167C83.0947 468.242 83.3029 467.42 83.4848 466.212C83.0938 464.571 82.5335 463.556 81.0648 462.635C78.9697 461.321 76.2598 460.798 73.8218 460.7C70.6567 461.08 66.2232 461.386 64.2366 464.281C63.5851 465.23 63.2107 466.262 63.5299 467.4C63.9844 469.02 65.1219 470.048 66.5966 470.763C68.5367 471.704 70.8821 472.053 73.0139 472.241ZM169.558 209.481C172.214 208.804 174.557 208.371 176.15 205.988C176.245 204.6 176.25 203.935 175.342 202.81C173.331 200.319 169.593 199.142 166.517 199.018C165.093 198.96 163.641 198.965 162.221 199.074C159.367 199.824 156.86 200.247 155.081 202.821C154.894 204.041 154.74 204.614 155.494 205.722C157.254 208.312 161.62 209.674 164.584 209.83C166.234 209.917 167.922 209.677 169.558 209.481ZM115.363 237.91C117.856 237.457 121.63 237.056 123.199 234.816C123.862 233.869 124.118 232.773 123.748 231.656C123.113 229.743 120.556 228.202 118.724 227.675C116.462 227.024 113.936 226.94 111.599 227.1C109.246 227.562 105.585 228.045 104.031 230.166C103.157 231.358 103.324 232.04 103.491 233.39C104.909 235.671 106.873 236.892 109.503 237.442C111.45 237.848 113.38 238.044 115.363 237.91ZM805.913 182.236C808.589 181.172 810.685 180.549 812.044 177.892C811.944 176.527 811.871 175.928 810.826 174.97C807.389 171.82 800.766 171.226 796.34 171.7C794.275 172.577 792.025 173.212 791.141 175.476C790.856 176.205 790.893 176.912 791.2 177.646C792.216 180.08 796.142 181.613 798.469 182.21C800.686 182.779 803.679 182.725 805.913 182.236ZM704.843 115.665C701.847 116.294 699.436 116.494 697.424 119.049C697.129 120.435 696.984 120.87 697.692 122.196C698.785 124.242 702.201 125.465 704.322 125.771C705.951 126.006 707.673 126.076 709.308 125.893C712.212 125.329 714.526 125.014 716.699 122.909C717.131 121.724 717.457 121.173 716.782 119.951C715.424 117.491 711.619 116.258 709.037 115.929C707.647 115.752 706.245 115.624 704.843 115.665ZM319.806 123.424C322.427 122.334 325.132 121.612 326.377 118.813C326.206 117.439 326.177 117.104 325.079 116.122C321.782 113.173 316.05 113.314 311.931 113.558C309.263 114.666 306.625 115.342 305.34 118.177C305.495 119.534 305.541 119.863 306.62 120.842C309.817 123.742 315.761 123.678 319.806 123.424ZM845.086 199.514C842.705 200.65 840.401 201.44 839.324 204.065C839.429 205.314 839.552 205.935 840.54 206.795C843.909 209.725 849.96 210.082 854.164 209.49C854.417 209.454 854.67 209.413 854.922 209.374C856.938 208.586 859.765 207.818 860.749 205.727C861.089 205.004 860.808 204.591 860.629 203.863C858.26 201.155 853.676 199.818 850.157 199.533C848.478 199.397 846.768 199.465 845.086 199.514ZM664.585 99.0654C667.282 98.1893 669.426 97.7413 670.99 95.1545C671.017 93.9088 670.965 93.306 670.052 92.3751C666.872 89.1336 661 88.8616 656.746 89.0404C656.536 89.0492 656.327 89.0703 656.117 89.0853C653.501 89.6156 651.34 90.0485 649.565 92.1597C649.334 93.4395 649.235 93.7728 649.978 94.9456C651.65 97.5838 657.024 99.3348 659.972 99.5145C661.504 99.6078 663.074 99.2995 664.585 99.0654ZM779.126 429.931C781.936 429.191 784.038 428.745 786.008 426.526C786.357 425.252 786.61 424.66 785.844 423.424C784.24 420.832 780.356 419.905 777.568 419.674C776.513 419.586 775.47 419.55 774.412 419.591C771.791 420.304 768.459 420.815 767.216 423.594C766.747 424.642 766.934 425.665 767.483 426.632C768.502 428.428 771.097 429.619 773.037 429.972C775.029 430.336 777.133 430.212 779.126 429.931ZM121.67 523.145C124.309 522.476 128.024 521.939 129.32 519.178C129.848 518.052 129.824 516.877 129.235 515.778C128.122 513.701 125.165 512.628 122.993 512.313C121.419 512.084 119.735 511.987 118.15 512.128C115.664 512.515 111.911 513.044 110.232 515.188C109.31 516.365 109.457 517.044 109.564 518.423C110.863 520.728 112.731 522.007 115.287 522.701C117.39 523.272 119.512 523.219 121.67 523.145ZM211.848 170.072C208.816 170.714 206.334 171.112 204.031 173.346C203.583 174.538 203.228 175.138 203.866 176.392C205.16 178.936 209.352 180.321 211.964 180.691C213.68 180.934 215.379 180.686 217.083 180.459C219.585 180.015 221.683 179.691 223.586 177.906C224.04 176.768 224.362 176.19 223.925 174.943C223.229 172.959 220.89 171.324 218.994 170.638C216.647 169.789 214.296 169.929 211.848 170.072ZM413.796 57.6713C411.208 58.1591 407.181 58.4192 405.857 61.1035C405.365 62.1018 405.389 63.2134 405.929 64.1855C407.225 66.5161 410.358 67.2946 412.781 67.5897C413.825 67.7169 415.076 67.8424 416.124 67.7141C418.727 67.5172 422.387 67.4081 424.311 65.3673C425.292 64.3278 425.206 63.6972 425.207 62.3781C424.263 60.5335 422.919 59.3297 420.94 58.6243C418.842 57.8765 416.023 57.6507 413.796 57.6713ZM758.397 153.37C760.88 152.596 763.254 151.998 764.71 149.683C764.758 148.382 764.725 147.794 763.79 146.809C760.69 143.544 754.812 143.006 750.605 143.151C747.916 143.769 745.792 144.167 743.879 146.249C743.55 147.358 743.313 147.901 743.941 149.008C745.402 151.584 749.75 153.197 752.506 153.615C754.481 153.914 756.434 153.625 758.397 153.37ZM612.756 71.0994C615.72 70.2852 618.277 69.8329 620.323 67.3585C620.613 66.1332 620.883 65.5356 620.099 64.3901C618.331 61.8041 613.93 60.7945 611.025 60.6217C609.796 60.5486 608.597 60.5868 607.371 60.6748C604.481 61.1262 602.215 61.4133 600.195 63.6612C599.823 65.0166 599.654 65.4031 600.303 66.7453C601.358 68.929 605.022 70.4938 607.25 70.9271C609.125 71.2918 610.868 71.3154 612.756 71.0994ZM873.933 361.109C871.92 361.521 869.58 361.952 868.225 363.652C867.74 364.26 867.838 364.761 867.772 365.497C868.691 367.603 870.428 368.64 872.49 369.498C875.355 370.691 878.215 370.415 881.206 369.966C883.752 369.182 886.061 368.632 887.524 366.239C887.528 364.945 887.463 364.333 886.456 363.418C883.375 360.618 878.396 360.567 874.542 361.02C874.338 361.044 874.136 361.079 873.933 361.109ZM366.321 95.4073C369.177 94.3428 371.833 93.717 373.303 90.7949C373.231 89.3411 373.245 88.9626 372.2 87.8354C369.26 84.6662 363.184 84.7322 359.287 85.0484C356.57 85.7736 354.511 86.2207 352.757 88.5219C352.518 89.8413 352.41 90.2253 353.114 91.4601C354.455 93.8141 358.73 95.3151 361.258 95.6158C362.997 95.8227 364.603 95.6882 366.321 95.4073ZM825.816 388.587C822.86 389.319 820.376 389.595 818.56 392.3C818.396 393.607 818.305 394.031 819.056 395.209C820.355 397.247 823.802 398.057 826.003 398.245C827.254 398.352 828.609 398.421 829.859 398.279C832.856 397.496 835.575 397.217 837.328 394.369C837.455 393.117 837.543 392.708 836.743 391.621C834.87 389.078 830.162 388.536 827.326 388.554Q826.571 388.56 825.816 388.587ZM627.956 514.603C630.607 514.008 633.916 513.503 635.642 511.172C636.309 510.272 636.543 509.098 636.174 508.027C635.505 506.085 633.459 504.582 631.578 503.949C629.608 503.287 627.233 503.269 625.165 503.183C622.38 503.498 618.726 503.726 616.711 505.946C615.723 507.035 615.682 507.815 615.595 509.231C616.465 511.362 617.788 512.621 619.916 513.543C622.543 514.682 625.167 514.614 627.956 514.603ZM136.277 381.074C133.644 381.996 131.369 382.649 129.801 385.097C129.655 386.501 129.542 386.874 130.4 388.091C132.057 390.442 136.71 391.74 139.439 391.875C141.163 391.96 142.874 391.683 144.573 391.428C146.801 390.877 148.924 390.358 150.388 388.465C150.557 387.212 150.569 386.543 149.805 385.467C147.766 382.599 143.591 381.327 140.264 381.064C138.912 380.957 137.626 380.972 136.277 381.074ZM260.789 142.577C258.574 143.271 255.059 144.056 254.038 146.386C253.571 147.453 253.705 148.478 254.322 149.453C255.819 151.816 259.705 152.987 262.315 153.217C263.979 153.364 265.484 153.242 267.125 152.974C270.001 152.349 272.408 152.073 274.387 149.663C274.652 148.276 274.778 147.922 273.981 146.647C272.421 144.154 267.612 142.616 264.848 142.42C263.493 142.324 262.137 142.445 260.789 142.577Z"/>
	<path fill="#080723" transform="scale(0.666667 0.666667)" d="M501.03 79.6237C507.544 79.2081 512.854 81.5541 518.502 84.4456C524.188 87.3562 529.629 90.7732 535.174 93.9434Q552.781 104.052 570.498 113.968L729.985 203.735C749.268 214.549 768.459 225.611 787.925 236.091Q801.14 243.118 814.274 250.294C819.306 253.04 824.876 255.644 829.365 259.215C830.769 260.332 832.064 261.181 832.269 262.993C831.233 265.268 829.347 266.705 827.296 268.044C820.043 272.781 811.702 276.527 804.096 280.777L748.279 312.109L582.7 405.91C557.158 420.402 530.979 434.147 505.871 449.352C505.314 449.499 504.618 449.721 504.029 449.715C499.325 449.672 486.322 441.491 481.584 438.902Q370.755 377.106 260.558 314.181L206.088 283.693C196.828 278.605 182.292 271.993 174.385 265.397C181.202 258.449 196.847 251.419 205.731 246.394L257.032 217.219L424.901 121.562Q444.143 110.7 463.25 99.6022C471.649 94.6894 479.919 89.4607 488.462 84.8094C492.612 82.5502 496.442 80.794 501.03 79.6237ZM182.847 265.232L400.259 387.131C434.566 406.363 468.457 426.719 503.418 444.727L507.801 442.303C525.448 433.097 542.682 422.785 559.997 412.959L642.543 366.466L762.529 298.87L810.874 271.723C816.144 268.757 821.616 266.081 826.818 263.017L628.589 152.367L539.643 102.349C531.578 97.8941 523.972 92.4315 515.766 88.286C511.105 85.931 506.902 84.1392 501.552 84.5491C491.152 87.581 482.224 94.6488 472.872 99.9636Q442.65 116.972 412.613 134.305L257.686 222.476L208.931 250.296C200.244 255.244 191.366 260.006 182.847 265.232Z"/>
	<path fill="#080723" transform="scale(0.666667 0.666667)" d="M503.467 99.6502C505.083 99.5723 506.813 99.8378 508.413 100.089C513.041 100.815 517.729 103.119 521.85 105.257C541.305 115.35 560.364 126.709 579.45 137.505L656.859 180.853L735.172 225.136C750.738 233.876 766.757 242.159 781.985 251.453C784.507 252.992 787.231 254.716 788.928 257.189C790.002 258.756 790.534 260.559 790.041 262.434C789.23 265.523 786.495 267.613 783.97 269.297C776.985 273.957 769.29 277.826 762.008 282.027L704.243 314.753L504.194 429.171C504.046 429.22 503.902 429.288 503.749 429.317C500.459 429.94 464.916 408.913 459.19 405.754L302.353 317.278L250.008 287.98C240.935 282.864 231.337 278.018 222.745 272.13C220.607 270.665 218.369 268.646 217.722 266.029C217.254 264.136 217.625 262.182 218.706 260.565C221.312 256.668 226.795 253.903 230.742 251.503C249.857 239.882 269.731 229.239 289.197 218.203L386.013 163.198C412.555 148.216 438.896 132.858 465.571 118.119C473.997 113.463 482.162 108.277 490.768 103.959C494.926 101.873 498.873 100.41 503.467 99.6502ZM505.227 422.859Q547.317 398.356 589.735 374.425L721.072 299.299L758.143 278.061C766.659 273.267 779.027 268.084 785.949 261.319C777.792 252.293 743.544 235.468 730.79 228.343L674.993 196.864L577.181 141.853C557.789 130.94 538.518 119.459 518.712 109.333C514.754 107.31 509.994 104.813 505.502 104.455C504.555 104.379 503.593 104.46 502.649 104.543C502.602 104.548 502.555 104.551 502.507 104.554C489.042 109.319 477.153 117.329 464.823 124.392L419.308 149.981L296.99 219.443C275.502 231.664 253.448 243.321 232.308 256.11C229.32 257.917 224.151 260.622 222.528 263.796C222.103 264.626 222.229 264.272 222.427 265.353C229.468 271.967 239.691 276.35 248.093 281.122L303.738 312.296Q372.561 351.675 441.831 390.259C460.185 400.57 478.427 411.239 496.931 421.268C498.887 422.328 500.839 423.372 503.073 423.644L505.227 422.859Z"/>
	<path fill="#080723" transform="scale(0.666667 0.666667)" d="M496.745 184.193C496.199 181.636 495.086 178.384 496.757 176.027C497.076 175.577 497.497 175.285 497.919 174.952C499.135 174.943 499.559 174.931 500.406 175.982C501.822 177.74 501.536 180.438 501.492 182.546L510.61 185.202C511.299 182.968 511.776 180.109 514.009 178.919C514.784 178.506 515.044 178.733 515.848 178.896C517.208 180.283 517.879 181.645 517.807 183.634C517.749 185.222 517.379 186.83 517.069 188.385L526.348 193.344C526.717 190.757 526.769 187.409 528.972 185.665C529.656 185.123 529.872 185.317 530.672 185.377C532.217 186.687 533.296 188.955 533.478 190.98C533.657 192.962 533.436 195.085 533.331 197.073C536.25 198.679 539.161 200.429 542.169 201.856C542.334 199.564 542.127 196.677 543.979 195.029C544.636 194.445 544.954 194.615 545.777 194.593Q546.05 194.786 546.304 195.002Q546.558 195.219 546.792 195.458Q547.025 195.697 547.235 195.956Q547.446 196.216 547.632 196.493Q547.818 196.771 547.977 197.064Q548.137 197.357 548.27 197.664Q548.402 197.97 548.506 198.288Q548.61 198.605 548.684 198.931C549.102 200.832 548.483 203.467 548.227 205.4L557.891 210.723C557.743 208.368 557.241 205.51 558.701 203.469C559.245 202.709 559.797 202.446 560.621 202.093C561.843 202.307 562.447 202.496 563.216 203.536C565.425 206.519 564.228 210.111 563.731 213.429C566.754 215.277 569.803 216.902 572.992 218.445C573.133 215.261 573.309 211.675 575.542 209.188C576.627 209.417 576.723 209.205 577.408 210.18C579.866 213.676 579.035 217.58 579.114 221.524C581.976 223.388 584.841 225.023 587.892 226.558C587.971 223.405 587.647 220.718 589.971 218.276C590.926 218.024 590.755 217.841 591.475 218.315C593.25 219.485 594.355 222.456 594.59 224.487C594.797 226.281 594.387 228.499 594.222 230.306C597.087 231.941 599.944 233.483 602.934 234.877C603.101 232.542 602.998 229.777 604.905 228.109C605.686 227.426 605.811 227.561 606.776 227.467C608.225 228.368 609.285 229.984 609.726 231.639C610.25 233.606 609.584 236.232 609.404 238.253C611.973 239.789 615.818 242.755 618.743 243.137C619.167 241.998 619.073 242.554 619.095 241.484C618.986 240.032 618.661 238.072 619.535 236.801C620.298 235.689 620.718 235.645 621.936 235.531C623.388 236.317 624.136 237.392 624.642 238.948C625.378 241.214 624.678 243.864 624.166 246.115C625.856 248.071 629.341 249.236 631.669 250.308C631.993 249.132 632.317 247.942 632.803 246.821C633.428 245.38 634.266 243.821 635.851 243.298C636.546 243.069 637.289 243.294 637.892 243.695C641.367 246.002 641.874 251.978 642.465 255.743C645.825 257.536 651.36 259.461 652.649 263.354C653.295 265.305 653.218 268.222 652.113 270.015C651.374 271.214 651.12 271.297 649.846 271.614L648.634 270.773C647.379 268.694 647.163 266.754 646.815 264.402C645.235 263.4 643.269 261.915 641.362 261.662C639.96 261.477 639.356 261.824 638.231 262.589C636.449 265.658 637.36 269.486 637.623 272.861C637.81 275.254 638.478 278.429 636.844 280.341C635.694 280.287 634.589 279.934 633.801 279.039C631.49 276.414 631.936 269.733 631.79 266.263L623.227 270.695C623.139 275.777 624.831 282.896 622.37 287.498C621.788 288.585 621.362 288.959 620.188 289.226C620.074 289.149 619.947 289.087 619.844 288.995C617.093 286.536 617.815 277.43 617.784 273.859C614.476 276.001 610.817 277.767 607.353 279.655C608.209 284.065 610.107 292.559 607.534 296.509C606.31 296.98 606.369 296.963 605.141 296.49L605.712 295.82L604.67 296.123C602.193 293.441 603.384 286.002 603.108 282.282L593.662 287.3C593.533 291.509 595.242 301.576 593.771 304.394C592.637 305.256 592.477 305.389 591.071 305.516L590.029 304.639C588.108 300.507 588.906 294.646 588.998 290.153L578.891 296.47C579.432 302.121 580.814 309.652 577.328 314.547L575.831 314.328C573.108 309.931 573.469 304.21 573.43 299.218C570.289 301.043 567.094 302.787 563.927 304.568C564.219 308.777 564.899 313.306 564.619 317.512C564.484 319.538 564.221 321.119 562.648 322.509C561.306 322.673 561.328 322.739 560.223 321.98C558.168 317.96 558.944 311.865 558.963 307.42Q554.131 310.211 549.127 312.679C549.934 317.701 550.995 323.961 549.361 328.888C548.988 330.013 548.707 330.818 547.602 331.34C544.292 328.278 544.648 319.892 544.41 315.551L534.42 321.23C534.781 325.969 536.024 332.97 534.47 337.457C534.033 338.718 533.601 339.027 532.447 339.614C531.59 339.4 531.084 339.45 530.474 338.749C527.921 335.819 528.902 328.18 528.963 324.338C525.805 326.073 522.596 327.727 519.413 329.416C519.389 333.132 521.205 341.84 520.256 344.825C519.813 346.217 519.182 346.678 517.972 347.406C517.243 347.397 516.819 347.592 516.271 347.024C513.67 344.333 514.126 335.981 513.996 332.464C510.62 334.062 508.434 335.133 504.616 334.833C504.364 334.813 504.112 334.788 503.86 334.765C502.513 338.721 505.87 346.587 502.902 349.688C502.066 350.561 501.385 350.531 500.272 350.63C499.902 350.389 499.643 350.258 499.358 349.88C496.758 346.437 498.537 335.115 498.876 330.791Q493.944 327.989 488.957 325.285C488.964 329.248 489.666 335.15 488.334 338.838C487.779 340.376 487.109 340.611 485.698 341.334C484.987 341.247 484.672 341.379 484.17 340.782C481.492 337.6 483.767 326.429 484.174 322.366C481.08 320.936 478.025 319.404 474.955 317.923Q475.012 321.867 474.805 325.806C474.676 328.241 474.278 331.525 472.238 333.148C471.539 333.705 471.408 333.461 470.618 333.305C470.216 332.843 469.813 332.402 469.538 331.848C467.199 327.131 469.816 320.676 471.233 316.088C467.785 313.536 463.79 311.62 459.947 309.749C459.998 313.921 460.454 318.633 459.316 322.688C458.886 324.218 458.416 325.036 457.039 325.825C456.186 325.433 455.912 325.163 455.394 324.341C452.453 319.672 454.171 311.94 455.23 306.897C452.226 304.973 448.933 303.383 445.788 301.694C445.448 305.008 446.195 312.567 444.689 315.167C444.012 316.335 443.487 316.414 442.289 316.735C441.088 316.169 440.501 315.843 439.93 314.593C437.968 310.294 440.034 303.435 441.384 299.146C437.947 297.294 434.45 295.622 430.908 293.978C431.002 298.771 431.788 304.43 429.226 308.707L429.281 308.451L427.367 309.148C427.263 309.037 427.144 308.938 427.054 308.816C423.509 303.97 425.297 296.204 426.169 290.708C423.058 288.905 419.899 287.303 416.656 285.75C416.294 289.629 417.071 297.849 414.656 300.811C413.207 301.008 413.049 301.024 411.737 300.397C408.723 295.972 411.872 288.176 412.223 283.08C408.982 280.989 405.634 279.216 401.949 278.056C401.906 280.979 401.999 284.03 401.675 286.934C401.436 289.076 400.77 291.557 399.013 292.925C397.821 292.659 397.857 292.641 397.249 291.635C394.531 287.139 396.807 279.793 397.903 275.101C394.676 273.11 391.409 271.449 387.939 269.93C388.007 273.623 388.38 277.537 387.382 281.13C386.871 282.966 386.336 284.095 384.638 285.016C383.653 284.575 383.314 284.383 382.701 283.434C379.94 279.156 381.731 271.294 382.677 266.606C379.371 264.872 376.068 263.182 372.952 261.12C372.863 265.011 373.243 269.751 372.477 273.512C372.204 274.853 371.624 275.879 370.319 276.47C369.266 276.948 368.75 276.724 367.837 276.255C364.971 272.791 366.962 256.726 367.439 251.645C367.629 249.614 367.866 246.415 369.521 245.033C370.841 244.622 370.888 244.461 372.128 245.016C374.108 247.911 373.569 251.624 373.541 254.98C377.13 252.913 380.567 250.466 384.033 248.195C383.859 245.713 383.34 242.709 384.114 240.315C384.623 238.74 385.315 237.355 386.807 236.542L387.816 236.845C389.924 239.72 389.61 242.361 389.508 245.755Q395.43 242.358 401.275 238.83C400.639 237.301 399.9 235.712 399.496 234.104C398.962 231.975 399.459 230.506 400.639 228.718C401.925 228.125 401.851 228.155 403.203 228.596C405.564 230.937 405.295 233.231 405.417 236.342C408.625 234.734 414.542 232.925 416.046 229.422C416.637 228.044 415.83 226.149 415.419 224.792C414.803 223.582 414.699 223.025 414.838 221.674C415.584 220.487 416.155 219.603 417.581 219.17C418.696 218.832 419.364 219.008 420.354 219.532C421.188 220.739 421.347 221.549 421.111 223.01C420.977 223.836 420.819 224.646 420.517 225.427L420.459 226.982C421.73 227.44 422.307 227.194 423.503 226.669C426.597 225.311 429.513 223.165 432.321 221.306C431.166 218.754 429.732 216.225 430.915 213.406C431.425 212.19 432.209 211.848 433.355 211.411C434.602 211.677 435.342 211.984 436.11 213.065C437.26 214.683 437.192 217.197 437.331 219.115C440.804 217.081 444.382 215.139 447.774 212.978C447.036 210.049 445.911 206.788 447.638 203.976C448.308 202.886 448.772 202.639 449.983 202.377C451.203 203.078 451.968 203.867 452.323 205.284C452.718 206.86 452.643 208.65 452.665 210.266C456.1 208.266 459.691 206.372 462.986 204.157C462.226 201.605 460.943 197.917 462.323 195.373C462.721 194.64 463.118 194.348 463.91 194.23C464.828 194.094 465.227 194.21 466.07 194.517L465.953 194.788L466.911 194.948C468.913 196.598 467.996 200.412 469.18 200.66C472.806 198.695 476.235 196.392 479.862 194.443C478.68 191.865 477.411 189.549 478.362 186.676C478.754 185.488 479.514 184.752 480.578 184.152C481.832 184.169 482.406 184.174 483.359 185.163C484.918 186.781 484.553 189.969 484.525 192.045L496.745 184.193ZM398.223 256.341C415.494 265.596 432.455 275.368 449.606 284.833C462.182 291.773 474.934 298.388 487.484 305.378C493.718 308.85 499.731 312.778 505.978 316.192C506.688 316.581 506.503 316.447 507.493 316.544L568.014 282.218C583.179 273.527 597.924 264.399 613.779 256.981C588.78 242.419 563.472 228.242 538.176 214.195C528.28 208.7 517.873 201.83 507.741 197.065C506.58 196.519 505.747 196.388 504.474 196.405C486.931 205.368 470.012 215.551 452.886 225.28C434.661 235.633 416.212 245.566 398.223 256.341Z"/>
	<path fill="#020110" transform="scale(0.666667 0.666667)" d="M415.419 224.792C414.803 223.582 414.699 223.025 414.838 221.674C415.584 220.487 416.155 219.603 417.581 219.17C418.696 218.832 419.364 219.008 420.354 219.532C421.188 220.739 421.347 221.549 421.111 223.01C420.977 223.836 420.819 224.646 420.517 225.427C418.019 226.011 417.797 225.831 415.419 224.792Z"/>
	<path fill="#020110" transform="scale(0.666667 0.666667)" d="M619.095 241.484C618.986 240.032 618.661 238.072 619.535 236.801C620.298 235.689 620.718 235.645 621.936 235.531C623.388 236.317 624.136 237.392 624.642 238.948C625.378 241.214 624.678 243.864 624.166 246.115C623.172 245.018 621.898 244.024 621.093 242.787C620.662 242.125 620.827 242.378 621.034 241.391C621.848 241.257 622.411 241.045 623.144 240.667C623.285 240.3 623.495 239.825 623.505 239.43C623.534 238.167 623.077 237.677 622.308 236.813L621.174 236.933C619.651 238.631 620.543 239.69 619.095 241.484Z"/>
	<path fill="#A09EA2" transform="scale(0.666667 0.666667)" d="M504.033 188.043C513.906 190.577 522.847 197.188 531.722 202.006L591.795 235.152C605.215 242.657 618.59 251.23 633.03 256.649C627.972 260.49 622.075 263.336 616.509 266.374Q604.653 272.815 592.887 279.42L508.163 327.546C506.344 327.756 505.078 327.235 503.476 326.424C481.256 315.16 459.903 301.885 438.066 289.864L402.458 270.553C394.76 266.411 386.89 262.472 379.505 257.787L447.595 219.174L475.701 202.993C483.665 198.353 495.356 189.921 504.033 188.043ZM398.223 256.341C415.494 265.596 432.455 275.368 449.606 284.833C462.182 291.773 474.934 298.388 487.484 305.378C493.718 308.85 499.731 312.778 505.978 316.192C506.688 316.581 506.503 316.447 507.493 316.544L568.014 282.218C583.179 273.527 597.924 264.399 613.779 256.981C588.78 242.419 563.472 228.242 538.176 214.195C528.28 208.7 517.873 201.83 507.741 197.065C506.58 196.519 505.747 196.388 504.474 196.405C486.931 205.368 470.012 215.551 452.886 225.28C434.661 235.633 416.212 245.566 398.223 256.341Z"/>
	<path fill="#080723" transform="scale(0.666667 0.666667)" d="M502.832 190.977C503.122 190.993 503.413 191.001 503.703 191.025C506.353 191.242 508.914 192.639 511.239 193.842C517.889 197.285 524.313 201.296 530.83 204.99L569.434 226.65C585.28 235.499 602.297 243.569 617.382 253.626C619.177 254.823 620.495 256.116 621.851 257.788C610.07 265.915 596.39 271.89 583.874 278.863Q545.883 300.177 508.252 322.12L507.014 322.29C502.326 320.644 498.282 317.191 494.036 314.663C487.795 310.948 481.382 307.503 475.024 303.994Q446.594 288.255 417.956 272.899C410.614 268.966 403.044 265.379 395.768 261.346C393.395 260.03 391.395 258.54 389.419 256.684C394.342 250.962 438.153 228.077 447.908 222.568L502.832 190.977ZM398.223 256.341C415.494 265.596 432.455 275.368 449.606 284.833C462.182 291.773 474.934 298.388 487.484 305.378C493.718 308.85 499.731 312.778 505.978 316.192C506.688 316.581 506.503 316.447 507.493 316.544L568.014 282.218C583.179 273.527 597.924 264.399 613.779 256.981C588.78 242.419 563.472 228.242 538.176 214.195C528.28 208.7 517.873 201.83 507.741 197.065C506.58 196.519 505.747 196.388 504.474 196.405C486.931 205.368 470.012 215.551 452.886 225.28C434.661 235.633 416.212 245.566 398.223 256.341Z"/>
	<path fill="#080723" transform="scale(0.666667 0.666667)" d="M692.76 255.732C697.589 255.581 702.617 256.287 706.794 258.88C709.466 260.539 711.716 263.01 712.415 266.147Q712.51 266.571 712.56 267.003Q712.61 267.435 712.616 267.87Q712.622 268.304 712.582 268.737Q712.543 269.17 712.459 269.597Q712.375 270.023 712.248 270.439Q712.12 270.854 711.951 271.255Q711.781 271.655 711.571 272.036Q711.361 272.416 711.113 272.773C707.871 277.488 701.555 278.613 696.312 279.519C690.633 279.558 684.87 279.133 680.15 275.583C677.768 273.791 675.892 271.188 675.561 268.166Q675.51 267.719 675.505 267.27Q675.5 266.821 675.54 266.373Q675.58 265.926 675.666 265.485Q675.751 265.043 675.881 264.613Q676.01 264.183 676.182 263.768Q676.355 263.353 676.568 262.957Q676.782 262.562 677.034 262.19Q677.286 261.818 677.575 261.474C681.192 257.11 687.458 256.221 692.76 255.732ZM694.632 274.866C698.507 274.497 703.528 274.093 706.117 270.793C706.823 269.891 707.199 268.818 707.107 267.666C706.956 265.783 705.651 264.276 704.189 263.211C701.318 261.121 696.505 260.1 692.952 260.157C689.04 260.7 684.198 261.13 681.572 264.464C680.875 265.349 680.48 266.405 680.549 267.542C680.661 269.41 681.945 270.951 683.401 271.997C686.366 274.127 691.04 275.009 694.632 274.866Z"/>
	<path fill="#080723" transform="scale(0.666667 0.666667)" d="M314.224 254.589C319.458 254.297 324.482 254.187 329.376 256.451C332.428 257.863 335.39 260.251 336.512 263.53C337.171 265.455 337.082 267.467 336.122 269.277C333.888 273.484 328.309 275.251 323.997 276.4C318.198 277.35 312.05 277.312 306.708 274.553C303.739 273.019 300.89 270.436 300.044 267.086C299.557 265.157 299.887 263.238 300.936 261.554C303.69 257.13 309.479 255.676 314.224 254.589ZM320.68 272.455C323.869 271.797 328.494 271.16 330.368 268.143C331.088 266.983 331.384 265.939 330.976 264.593C330.333 262.47 328.266 261.035 326.316 260.214C323.487 259.023 319.24 258.705 316.201 259.159C313.118 259.599 308.408 260.137 306.42 262.844C305.656 263.884 305.279 264.967 305.631 266.257C306.284 268.648 308.855 270.348 311.003 271.243C314.203 272.577 317.295 272.541 320.68 272.455Z"/>
	<path fill="#080723" transform="scale(0.666667 0.666667)" d="M499.887 127.724C505.304 127.83 510.556 128.085 515.197 131.288C517.597 132.945 519.628 135.404 520.017 138.377Q520.063 138.743 520.072 139.113Q520.08 139.482 520.051 139.85Q520.022 140.218 519.955 140.582Q519.889 140.945 519.785 141.299Q519.682 141.654 519.543 141.996Q519.403 142.338 519.23 142.664Q519.057 142.991 518.851 143.297Q518.645 143.604 518.409 143.888C515.272 147.731 509.47 148.728 504.81 149.309C498.724 149.521 492.101 148.863 487.263 144.773C485.274 143.091 483.66 140.684 483.497 138.021C483.379 136.112 484.149 134.251 485.436 132.86C489.001 129.002 494.904 128.065 499.887 127.724ZM502.921 144.488C506.219 144.093 511.513 143.992 513.634 140.989C514.27 140.089 514.346 139.492 514.448 138.429C513.911 136.538 513.1 135.405 511.394 134.391C509.026 132.982 504.498 132.075 501.737 132.213C498.165 132.604 492.816 132.84 490.279 135.711C489.497 136.597 488.964 137.628 489.192 138.83C489.483 140.363 490.417 141.344 491.687 142.159C494.822 144.17 499.277 144.561 502.921 144.488Z"/>
	<path fill="#080723" transform="scale(0.666667 0.666667)" d="M500.991 379.631C506.141 379.011 511.402 379.127 516.098 381.612C518.7 382.989 521.28 385.27 522.087 388.206C522.588 390.028 522.356 391.888 521.34 393.486C518.994 397.172 514.216 398.411 510.238 399.398C504.507 400.183 498.704 400.359 493.623 397.078C491.225 395.53 489.062 393.114 488.547 390.223C488.209 388.325 488.695 386.494 489.849 384.955C492.43 381.511 496.985 380.361 500.991 379.631ZM507.394 395.046C510.17 394.496 514.342 394.149 516.152 391.667C516.952 390.571 516.81 389.963 516.673 388.716C515.219 386.335 512.959 385.052 510.259 384.439C508.365 384.009 506.393 383.794 504.454 383.71C501.467 384.092 496.979 384.379 495.111 387.101C494.504 387.985 494.417 388.497 494.344 389.535C494.885 391.479 495.801 392.504 497.533 393.501C500.499 395.209 504.069 395.24 507.394 395.046Z"/>
	<path fill="#020110" transform="scale(0.666667 0.666667)" d="M360.478 257.718C361.453 257.828 362.426 257.885 363.31 258.362C364.318 258.906 365.076 259.906 365.276 261.041C365.653 263.189 364.573 264.911 363.443 266.619C362.172 266.538 360.694 266.536 359.68 265.627C358.943 264.967 358.598 264.333 358.451 263.384C358.089 261.053 359.212 259.533 360.478 257.718Z"/>
	<path fill="#080723" transform="scale(0.666667 0.666667)" d="M277.256 597.093C286.798 596.714 316.646 616.138 325.553 621.934C334.917 616.353 344.665 611.289 354.15 605.898C361.142 609.393 367.899 613.771 374.677 617.682L411.364 638.624L542.761 713.617L605.481 749.107C615.198 754.583 629.136 760.884 637.296 768.06C639.197 774.226 638.015 801.011 637.973 809.305C644.981 813.481 681.706 831.257 683.542 837.297C683.916 838.525 683.654 839.462 682.993 840.519C681.933 842.213 678.976 843.42 677.146 843.913C673.661 844.851 669.401 844.59 665.992 843.428C660.697 841.623 655.388 838.041 650.466 835.335Q635.985 827.5 621.699 819.316C612.596 825.816 601.911 829.537 592.614 835.63C599.572 839.185 638 858.064 639.558 863.612C639.878 864.753 639.559 866.448 639.012 867.476C637.979 869.417 635.674 870.527 633.615 870.969C630.125 871.717 626.538 871.065 623.196 869.971C614.906 867.255 607.226 862.128 599.565 858.005C591.985 853.925 583.872 850.162 576.706 845.405C567.257 851.229 557.153 856.174 547.483 861.643C556.256 868.114 569.421 873.705 579.319 878.849C583.359 880.949 587.839 883.006 591.291 886.013C592.31 886.9 592.894 887.943 593.298 889.226C593.779 890.754 593.88 892.422 592.968 893.829C591.967 895.372 590.099 896.197 588.387 896.654C584.813 897.609 580.757 897.348 577.252 896.217C570.382 894.001 563.533 889.288 557.213 885.746C548.303 880.752 539.292 875.934 530.46 870.803C521.019 877.182 510.503 881.811 500.785 887.722Q517.729 895.923 534.203 905.03C537.466 906.875 541.461 908.743 544.343 911.123C545.668 912.218 546.96 913.682 547.605 915.295C548.193 916.765 548.071 918.08 547.34 919.462C546.397 921.245 544.133 922.561 542.283 923.164C539.654 924.02 536.764 923.873 534.131 923.117C525.908 920.755 518.074 915.471 510.653 911.322Q497.384 903.849 483.837 896.892C475.479 903.359 465.217 907.653 456.143 913.073C464.857 917.073 473.322 921.928 481.782 926.444C487.703 929.604 494.083 932.506 499.582 936.336C501.249 937.497 502.973 938.69 503.718 940.653C504.288 942.154 503.926 943.844 503.146 945.193C501.968 947.227 499.907 948.574 497.661 949.155C495.148 949.805 492.333 949.67 489.846 948.964C478.853 945.846 449.576 928.514 439.052 922.11C429.094 928.776 418.323 933.753 407.851 939.514C416.961 943.779 450.961 958.864 455.254 966.534C456.056 967.965 456.211 969.354 455.608 970.915C454.845 972.892 452.219 974.465 450.29 975.037C448.275 975.635 445.959 975.758 443.909 975.271C436.307 973.464 428.818 968.496 421.946 964.84L395.326 950.622C387.534 955.242 344.986 979.285 339.098 979.279C336.47 979.276 333.365 977.548 331.662 975.597C330.615 974.397 329.889 972.866 330.124 971.236C330.466 968.863 332.765 967.012 334.555 965.668C339.323 962.087 344.974 959.509 350.225 956.719C359.97 951.542 369.971 946.479 379.331 940.638C369.471 935.169 359.46 929.883 349.864 923.959Q334.974 932.631 319.834 940.858C313.376 944.421 306.673 948.692 299.711 951.149C297.036 952.093 294.022 952.738 291.18 952.335C288.772 951.993 286.724 950.948 285.348 948.913C284.295 947.355 283.859 945.897 284.379 944.039C285.79 938.992 296.375 934.746 300.76 932.443C304.497 930.725 308.166 928.363 311.779 926.367Q322.139 920.651 332.595 915.113C323.304 909.485 313.323 904.581 303.764 899.391C295.018 904.705 285.728 909.363 276.738 914.277C269.788 918.077 262.622 922.717 255.251 925.535C253.252 926.299 251.457 926.647 249.318 926.479C246.646 926.27 243.254 925.306 241.628 922.982C240.872 921.902 240.808 920.71 241.068 919.458C241.62 916.809 244.434 914.284 246.452 912.714C251.869 908.5 258.352 905.501 264.399 902.288L287.319 890.003C277.75 885.036 268.11 879.559 258.993 873.806C250.627 878.87 241.896 883.347 233.39 888.173C226.913 891.848 220.483 896.141 213.672 899.125C211.574 900.044 209.566 900.623 207.264 900.626C203.936 900.63 200.332 899.688 198.037 897.13C197.048 896.028 196.56 894.82 196.847 893.321C197.303 890.951 199.542 888.763 201.347 887.338C206.453 883.306 212.988 880.517 218.727 877.415Q230.075 871.176 241.315 864.746C232.032 859.522 222.681 854.103 213.74 848.317C204.863 853.842 195.552 858.682 186.439 863.806C180.177 867.327 173.439 871.85 166.724 874.391C164.433 875.258 161.997 875.675 159.549 875.447C156.989 875.209 153.768 874.504 152.075 872.393C150.987 871.036 150.464 869.264 150.904 867.544C151.439 865.454 153.307 864.018 154.948 862.787C160.384 858.714 166.841 855.726 172.789 852.44Q185.208 845.558 197.428 838.327Q184.334 831.093 171.632 823.192C162.628 828.16 153.433 832.814 144.459 837.827C137.948 841.464 131.247 846.066 124.261 848.655C121.277 849.76 117.623 850.582 114.454 849.828C112.253 849.305 109.814 847.924 108.671 845.904C107.895 844.533 107.769 843.078 108.195 841.577C108.809 839.418 110.814 837.721 112.554 836.467C117.122 833.173 122.819 830.817 127.797 828.142C136.094 823.684 144.254 818.939 152.54 814.446C144.482 807.854 134.222 804.212 125.667 798.343C117.94 802.85 109.956 806.995 102.139 811.352C95.3429 815.14 88.2371 819.836 80.9128 822.43C77.6351 823.591 73.9643 824.274 70.5089 823.563C68.5578 823.161 66.8763 822.272 65.8019 820.548Q65.6112 820.246 65.4538 819.924Q65.2963 819.604 65.1739 819.267Q65.0516 818.932 64.9656 818.584Q64.8797 818.237 64.8312 817.883Q64.7827 817.529 64.7721 817.171Q64.7616 816.814 64.7891 816.457Q64.8167 816.101 64.882 815.749Q64.9473 815.398 65.0497 815.055C65.5069 813.496 66.3469 812.651 67.5916 811.67C72.6977 807.648 79.2276 804.922 84.9848 801.954Q95.6475 796.564 105.925 790.471C106.089 784.509 105.951 778.539 105.886 772.576Q105.397 772.372 104.913 772.155C96.2467 768.304 87.8417 763.206 79.422 758.806C70.0911 753.93 59.8271 749.43 51.0875 743.582C49.0523 742.22 46.0234 740.22 45.2283 737.826C44.7558 736.402 44.8091 734.862 45.6249 733.564C47.6606 730.326 52.5637 729.46 56.0204 728.676C63.4006 730.918 70.4403 735.33 77.1213 739.129C86.6378 744.541 96.0043 750.138 105.994 754.652L106.057 745.742C111.941 740.625 118.766 737.009 125.525 733.205C117.554 728.068 90.4006 717.821 87.7265 708.972C87.3462 707.714 87.4359 706.44 88.146 705.304C90.0909 702.193 94.5409 701.61 97.8251 700.945C97.8753 700.96 97.9252 700.975 97.9757 700.989C109.616 704.105 130.036 717.541 141.547 724.017C151.492 719.531 161.514 714.449 170.638 708.454C163.165 704.035 136.177 692.872 133.715 685.639C133.086 683.792 133.817 681.688 134.749 680.058C135.742 678.319 137.216 677.008 139.198 676.546C149.546 674.134 177.581 693.088 186.873 699.368C197.162 694.16 207.368 688.474 217.299 682.612C209.303 678.66 182.08 665.8 178.595 658.656C177.938 657.309 177.716 655.755 178.36 654.352C179.305 652.295 181.697 650.961 183.749 650.266C186.728 649.256 189.858 649.552 192.804 650.525C199.041 652.583 205.11 657.13 210.818 660.375Q222.556 666.939 234.54 673.042Q248.899 665.293 263.049 657.167C255.307 653.27 226.808 640.51 223.502 632.675C222.871 631.18 222.919 629.771 223.611 628.314C225.268 624.822 230.628 623.967 233.948 623.109C249.581 629.262 264.637 639.922 279.952 647.343C290.091 642.725 300.161 636.942 309.846 631.413C301.239 626.685 273.504 614.902 269.396 606.767C268.702 605.393 268.433 603.727 269.083 602.273C270.432 599.254 274.401 598.021 277.256 597.093ZM113.694 745.888C124.658 750.686 135.13 757.093 145.569 762.936L203.638 795.957L317.36 859.41C342.535 873.632 367.365 888.754 392.863 902.358C395.21 902.77 397.266 901.317 399.299 900.197C416.17 890.909 432.757 881.043 449.485 871.495Q494.59 845.677 539.966 820.342Q573.784 801.554 607.354 782.328C615.123 777.91 623.617 774.16 631.117 769.378L424.241 651.817Q401.379 638.933 378.722 625.693C370.91 621.162 362.268 614.983 353.812 611.961L191.112 702.974Q175.686 711.622 160.113 720.002C144.446 728.272 128.611 736.286 113.694 745.888ZM110.122 788.442C113.816 786.571 117.485 784.621 121.35 783.121C124.26 784.384 127.788 785.511 128.982 788.773C129.732 790.821 129.349 793 128.904 795.068C138.507 800.362 148.566 805.415 157.49 811.803C161.007 809.864 166.865 807.125 170.879 808.591C172.433 809.158 173.4 810.411 173.986 811.903C174.764 813.881 174.463 818.012 175.535 819.472C177.424 822.048 198.064 833.179 202.169 835.695C205.766 834.049 210.184 832.425 214.11 833.959C215.929 834.67 217.256 836.268 217.925 838.074C218.815 840.474 218.329 842.861 217.924 845.311C226.971 850.712 237.313 855.448 245.516 862.032C249.163 860.434 253.813 858.526 257.739 860.255C259.683 861.112 261.215 863.039 261.804 865.063C262.294 866.744 262.255 868.755 262.334 870.504C272.349 875.741 281.909 881.855 291.888 887.165C295.427 885.557 299.807 883.407 303.734 884.954C305.573 885.678 306.806 887.207 307.479 889.031C308.301 891.259 308.094 893.842 307.93 896.174C317.678 901.813 327.503 907.443 337.511 912.61C340.624 910.632 344.443 908.422 348.281 909.448C350.184 909.956 351.615 911.365 352.471 913.104C353.563 915.325 353.593 917.975 353.618 920.402C361.415 925.563 369.752 930.54 378.294 934.358Q384.93 938.061 391.77 941.371C392.09 930.157 392.282 918.543 391.666 907.349L204.57 801.778L149.246 770.737C136.562 763.514 123.911 755.394 110.531 749.55L110.122 788.442ZM396.173 907.649C396.224 918.372 396.527 929.18 396.262 939.895L407.265 934.016C416.608 929.257 427.222 924.719 435.379 918.128C435.479 915.234 435.416 911.967 437.644 909.763C439.028 908.393 440.643 907.863 442.562 907.917C445.58 908.003 448.275 909.396 450.926 910.692C460.55 904.804 470.703 899.767 480.179 893.657C479.258 891.007 478.421 888.434 479.729 885.747C480.498 884.168 481.834 883.15 483.497 882.645C487.835 881.326 491.436 882.917 495.254 884.784C506.104 880.188 516.655 874.053 526.741 867.954C526.198 864.903 525.619 861.723 527.526 858.989C528.513 857.576 529.948 856.793 531.634 856.528C535.488 855.924 539.08 857.613 542.456 859.239Q557.4 850.472 572.884 842.699C572.094 839.493 571.066 835.791 572.888 832.727C573.731 831.311 575.175 830.367 576.778 830.037C580.853 829.198 584.645 830.93 588.249 832.589C597.956 827.235 608.116 822.14 617.377 816.053C617.04 812.975 616.795 809.983 618.941 807.464C620.499 805.634 622.603 805.152 624.921 805.112C627.881 805.06 630.89 806.325 633.595 807.417C633.864 800.318 634.723 780.25 633.028 774.644L632.477 774.415C615.884 783.055 599.786 792.558 583.461 801.685Q531.811 830.04 480.777 859.49L424.643 891.104C415.199 896.442 405.019 901.38 396.173 907.649ZM206.871 895.888C211.32 895.19 254.643 871.84 257.375 868.646C258.139 867.753 257.97 867.369 257.842 866.295C256.775 865.004 255.942 864.191 254.174 863.964C253.969 863.938 253.762 863.936 253.555 863.922C247.4 866.954 203.144 890.131 201.919 893.329L201.673 893.337C202.485 894.622 203.54 895.154 205.013 895.517C205.625 895.667 206.251 895.777 206.871 895.888ZM316.329 627.995L321.094 624.539C312.681 620.298 283.408 601.421 276.694 601.376C275.412 602.292 274.054 603.018 273.454 604.542C273.672 606.021 273.817 606.043 275.043 606.922C279.536 610.145 312.806 628.602 315.981 628.074C316.098 628.054 316.213 628.021 316.329 627.995ZM676.296 839.982C677.286 838.972 677.719 839.01 677.726 837.534C673.268 832.685 630.262 810.868 623.365 809.234C622.528 810.556 621.735 811.291 621.797 812.879C626.679 818.186 666.325 839.801 673.636 840.053C674.525 840.084 675.409 840.039 676.296 839.982ZM121.912 788.432C113.015 791.983 75.4107 810.625 70.4075 816.306C70.252 817.284 70.0403 817.162 70.5987 817.824C71.4177 818.795 72.5627 819.17 73.7 819.652C75.6811 819.15 77.6553 818.617 79.5315 817.796C86.3075 814.828 121.413 797.038 124.135 792.626C124.856 791.457 124.697 791.143 124.432 789.88C123.567 789.074 123.057 788.741 121.912 788.432ZM341.781 973.893C358.374 965.339 375.479 956.862 391.536 947.361C389.212 945.966 386.908 944.419 384.392 943.4C377.821 947.026 336.825 967.855 335.599 971.744C336.026 972.832 336.313 973.444 337.494 973.958C338.797 974.524 340.454 974.162 341.781 973.893ZM447.333 971.128C448.919 970.503 450.083 970.122 451.166 968.719C450.677 966.929 446.824 965.118 445.194 964.192C431.439 956.376 417.147 948.868 402.941 941.908C401.202 943.189 399.468 944.432 397.888 945.911C404.301 950.745 440.447 970.903 447.333 971.128ZM586.857 892.348L587.946 891.189C587.908 890.128 588.134 890.325 587.493 889.715C582.079 884.559 541.081 863.512 532.488 860.22C531.845 861.798 531.168 863.131 531.338 864.88C532.781 867.926 575.065 890.301 580.079 892.145C582.476 893.027 584.362 892.701 586.857 892.348ZM185.669 653.93C184.55 654.836 183.194 655.517 182.781 656.914C186.246 660.524 219.203 679.18 222.784 679.298L224.177 678.694L229.312 675.956C220.917 671.734 212.683 667.104 204.53 662.432C199.685 659.656 194.698 656.234 189.454 654.284C188.105 653.782 187.085 653.779 185.669 653.93ZM95.2081 705.376C93.9391 706.175 92.3691 706.857 91.7842 708.308C95.0349 711.737 127.13 729.852 130.505 730.178L132.834 729.214L136.693 726.621C127.602 722.218 103.39 706.069 95.2081 705.376ZM230.681 628.41C229.507 629.245 228.152 629.87 227.527 631.182C230.054 634.571 264.182 653.652 268.19 653.803C268.888 653.829 269.566 653.514 270.188 653.244L274.838 650.471C266.785 646.256 237.516 627.854 230.681 628.41ZM118.101 845.552C125.504 843.326 166.626 822.15 169.89 816.63C170.49 815.615 170.35 815.375 170.091 814.296C168.742 813.21 167.527 813.01 165.846 812.928L137.08 828.26C128.738 832.76 119.511 837.197 112.307 843.408C114.274 844.427 115.877 845.236 118.101 845.552ZM141.695 680.337C140.345 681.375 139.121 682.152 138.443 683.781C139.789 687.667 167.893 701.735 173.092 704.259C174.221 704.807 175.71 705.61 176.987 705.139C177.259 705.038 177.51 704.889 177.772 704.764L182.367 701.693C174.258 696.982 148.993 681.109 141.695 680.337ZM53.9279 732.946C52.3345 734.081 50.8573 735.2 49.4332 736.543C57.5212 742.717 67.0644 746.869 76.0527 751.575C85.3598 756.447 94.5365 761.574 103.804 766.522L105.277 767.011C106.591 765.549 106.049 762.487 105.968 760.607C97.6259 755.892 60.3272 733.515 53.9279 732.946ZM632.215 867.19C632.983 866.229 633.732 865.743 633.701 864.476C628.257 858.858 586.306 837.19 577.964 833.716C577.022 835.237 576.371 836.25 576.278 838.061C577.774 842.651 611.053 859.097 617.326 862.295C621.651 864.5 627.244 867.832 632.215 867.19ZM299.89 888.94C290.987 892.819 251.42 913.528 246.213 919.144C246.32 919.935 246.173 920.204 246.849 920.752C247.835 921.551 248.934 921.749 250.134 922.045C260.448 919.371 272.866 910.783 282.51 905.525C287.702 902.695 293.315 900.196 298.27 897.006C299.885 895.967 301.931 894.583 302.976 892.941C303.659 891.869 303.545 891.537 303.387 890.341C302.24 889.331 301.432 889.088 299.89 888.94ZM441.197 912.091C440.301 913.215 439.86 913.775 439.609 915.239C440.147 916.744 440.741 917.264 442.012 918.223C448.497 923.116 456.998 926.725 464.186 930.552C470.897 934.124 477.483 938.137 484.347 941.389C488.2 943.214 492.239 945.254 496.595 944.759C497.663 943.776 498.195 943.587 498.427 942.121C495.237 937.914 447.561 913.229 441.197 912.091ZM485.443 886.382C484.731 887.496 483.989 888.393 484.047 889.777C486.16 893.765 528.729 916.378 536.026 918.517C537.964 919.085 539.675 919.028 541.666 918.83C542.515 917.685 542.914 917.546 542.782 916.145C538.314 911.802 496.089 889.531 489.112 886.915C487.861 886.446 486.769 886.377 485.443 886.382ZM208.835 838.048C201.848 841.181 159.506 864.06 155.834 868.121L155.774 869.198C156.985 870.479 158.224 870.775 159.974 870.993C168.915 868.971 208.59 847.774 213.533 841.076C213.777 839.79 213.89 839.786 213.216 838.686C211.791 837.843 210.427 838.014 208.835 838.048ZM345.488 913.946C337.196 916.792 294.948 939.969 289.295 945.227C289.167 946.466 289.271 946.4 290.047 947.398C291.152 947.854 292.11 948.247 293.295 948.454C299.737 946.707 344.797 923.272 348.978 918.019C349.236 916.8 349.476 916.259 348.531 915.222C347.721 914.334 346.613 914.1 345.488 913.946Z"/>
	<path fill="#080723" transform="scale(0.666667 0.666667)" d="M353.724 635.716C362.697 635.093 374.483 637.791 381.623 643.448C385.295 646.357 388.066 650.569 388.386 655.329C388.683 659.73 386.984 663.909 384.061 667.163C377.435 674.539 365.099 677.123 355.625 677.46C346.398 677.675 334.967 675.717 327.324 670.174C323.377 667.311 320.059 663.453 319.414 658.46C318.868 654.23 320.435 650.142 323.161 646.941C330.4 638.441 343.289 636.584 353.724 635.716Z"/>
	<path fill="#A09EA2" transform="scale(0.666667 0.666667)" d="M347.731 640.655C357.1 639.474 369.209 640.687 377.11 646.232C380.311 648.48 382.967 651.65 383.5 655.631C383.914 658.725 383.007 661.772 381.053 664.2C376.691 669.62 368.221 671.643 361.624 672.441C351.642 673.272 340.882 672.81 332.116 667.389C328.523 665.167 325.176 661.897 324.37 657.584C323.881 654.967 324.585 652.443 326.151 650.317C330.819 643.978 340.414 641.855 347.731 640.655Z"/>
	<path fill="#080723" transform="scale(0.666667 0.666667)" d="M192.3 724.199C202.474 723.344 214.906 725.776 223.252 731.921C227.124 734.771 230.551 738.9 231.223 743.802C231.714 747.379 230.598 750.802 228.392 753.621C222.202 761.53 210.508 763.869 201.125 764.876C190.172 765.334 178.457 764.673 169.314 757.847C165.369 754.902 162.379 750.837 161.835 745.846C161.407 741.926 162.682 738.18 165.178 735.16C171.517 727.491 182.903 725.04 192.3 724.199Z"/>
	<path fill="#A09EA2" transform="scale(0.666667 0.666667)" d="M190.679 729.189C199.665 728.185 210.487 729.393 218.385 734.094C221.903 736.188 225.378 739.423 226.225 743.597C226.74 746.138 226.142 748.66 224.679 750.78C220.079 757.449 210.05 759.234 202.616 760.38C192.703 761.229 181.11 760.392 172.752 754.383C169.82 752.276 167.247 749.305 166.708 745.622C166.324 743.003 167.041 740.488 168.63 738.386C173.381 732.103 183.292 730.034 190.679 729.189Z"/>
	<path fill="#080723" transform="scale(0.666667 0.666667)" d="M386.808 832.676C397.818 831.728 410.445 833.296 419.5 840.176C423.376 843.121 426.449 847.237 426.964 852.194Q427.032 852.89 427.031 853.588Q427.029 854.287 426.958 854.983Q426.888 855.678 426.748 856.363Q426.609 857.048 426.403 857.716Q426.196 858.383 425.924 859.027Q425.652 859.671 425.318 860.285Q424.984 860.899 424.59 861.477Q424.197 862.054 423.748 862.59C418.246 869.235 408.171 871.539 400.009 872.513C388.794 873.662 377.016 872.637 367.378 866.258C363.154 863.463 359.433 859.48 358.578 854.32C357.942 850.475 359.122 846.652 361.487 843.606C367.257 836.173 378.004 833.827 386.808 832.676Z"/>
	<path fill="#A09EA2" transform="scale(0.666667 0.666667)" d="M386.753 837.182C396.301 836.01 407.685 837.301 415.769 842.905C418.848 845.039 421.744 848.139 422.371 851.967C422.815 854.673 421.991 857.275 420.317 859.41C415.542 865.502 406.33 867.319 399.116 868.393C389.531 869.221 378.764 867.849 370.469 862.663C367.181 860.608 364.178 857.659 363.367 853.728C362.818 851.067 363.479 848.483 365.091 846.314C369.7 840.114 379.546 838.069 386.753 837.182Z"/>
	<path fill="#080723" transform="scale(0.666667 0.666667)" d="M542.858 748.185C553.091 747.334 563.95 748.419 572.74 754.192C577.069 757.035 580.759 761.346 581.672 766.57C582.4 770.729 581.284 774.823 578.714 778.148C573.316 785.133 563.44 787.65 555.128 788.825C544.687 789.818 532.253 788.045 523.686 781.553C519.893 778.679 516.867 774.633 516.261 769.812C515.758 765.819 517.007 761.893 519.49 758.757C524.865 751.967 534.639 749.274 542.858 748.185Z"/>
	<path fill="#A09EA2" transform="scale(0.666667 0.666667)" d="M544.304 752.652C553.055 752.113 562.08 752.855 569.711 757.593C573.065 759.675 576.164 762.78 576.989 766.775C577.549 769.488 576.905 772.206 575.396 774.503C571.101 781.042 562.088 783.024 554.94 784.488C546.232 784.694 536.88 784.342 529.153 779.834C524.192 776.939 521.767 773.364 520.248 767.989C520.778 766.097 521.356 764.288 522.494 762.659C527.35 755.707 536.507 753.976 544.304 752.652Z"/>
	<path fill="#080723" transform="scale(0.666667 0.666667)" d="M792.269 493.87C804.156 498.092 817.181 507.019 828.161 513.502C837.608 519.08 847.319 524.103 856.873 529.468C860.361 531.426 863.654 533.728 867.14 535.686L942.93 578.291C954.351 584.742 968.544 591.423 978.941 599.108C979.265 613.64 978.237 628.388 979.467 642.874C971.943 650.221 947.736 661.872 937.563 667.737L856.533 713.447C835.506 725.364 814.862 737.806 793.219 748.6C778.292 740.72 763.684 732.176 748.987 723.878L671.098 680.028L630.558 657.291C623.583 653.407 612.5 648.495 606.817 643.335C604.739 637.407 606.038 608.934 606.072 600.603C612.147 596.069 619.189 592.59 625.803 588.902L657.369 571.248L743.566 521.888C759.758 512.611 776.517 503.857 792.269 493.87ZM613.96 601.734C636.212 615.092 659.633 626.747 682.296 639.403L752.278 678.358C764.882 685.45 777.315 693.02 790.052 699.843C791.192 700.454 792.11 701.079 793.458 700.829C793.521 700.818 793.58 700.79 793.641 700.771C828.4 682.385 862.275 662.059 896.64 642.921L949.226 613.278C956.907 608.993 965.314 605.306 972.702 600.623C927.531 575.971 883.054 549.982 838.046 525.01C822.898 516.605 808.526 506.912 792.874 499.413L673.891 567.564C653.89 578.916 633.495 589.574 613.96 601.734ZM795.746 741.792C825.119 726.765 853.501 709.587 882.262 693.416L945.097 657.943C954.753 652.463 964.638 647.272 974.116 641.496C974.25 634.87 975.447 610.767 974.124 606.076L973.643 605.909Q913.867 638.415 854.849 672.279L818.122 692.792C810.361 697.125 802.139 701.314 794.868 706.432C795.145 718.118 794.612 729.812 795.003 741.491C795.625 741.83 795.358 741.816 795.746 741.792ZM790.534 741.386Q791.077 723.807 790.919 706.22Q701.367 655.236 611.022 605.671C610.682 617.283 610.346 628.88 610.495 640.499Q657.188 667.022 704.293 692.808C733.078 708.903 761.619 725.544 790.534 741.386Z"/>
	<path fill="#080723" transform="scale(0.666667 0.666667)" d="M792.971 692.615C773.391 682.745 754.425 671.141 735.189 660.546Q705.233 644.111 675.505 627.266C663.668 620.69 651.599 614.502 639.903 607.673C637.65 606.358 633.611 604.421 632.063 602.291C631.361 601.326 631.605 600.802 631.738 599.687C633.831 596.496 659.194 584.054 664.563 580.988L750.157 532.238C764.408 524.05 778.444 515.061 792.962 507.387C805.547 514.056 817.743 521.484 830.153 528.48L914.045 575.717C924.075 581.349 933.904 587.402 944.096 592.734C948.198 595.125 952.536 597.381 956.363 600.195C952.206 602.656 948.083 605.237 943.723 607.324C921.674 621.062 898.13 632.95 875.488 645.734C847.982 661.264 820.856 677.79 792.971 692.615ZM877.075 600.724C888.429 607.234 899.812 614.407 911.794 619.701C917.775 616.573 929.096 609.12 934.559 607.311C938.348 604.713 942.695 602.618 946.709 600.365C945.35 599.423 943.904 598.573 942.508 597.685C932.413 592.3 922.859 585.998 912.613 580.861C900.892 587.7 888.739 593.805 877.075 600.724ZM677.907 578.835L746.97 617.536L768.82 629.897C776.79 634.486 784.985 639.596 793.546 642.967Q822.959 627.596 851.669 610.95C860.792 605.572 869.559 599.592 878.703 594.271C888.371 588.644 898.574 583.984 908.256 578.342C898.021 572.946 888.119 566.729 878.02 561.059C876.227 560.068 874.397 559.115 872.643 558.057C861.951 563.897 850.786 569.104 840.3 575.287C851.272 581.073 864.944 587.009 874.14 595.375C861.554 603.661 847.833 610.424 834.76 617.921C821.378 625.596 808.025 634.35 794.156 641.081C778.691 633.704 763.723 624.6 748.698 616.337L726.908 604.362C723.571 602.533 719.953 600.875 716.779 598.792C715.624 598.034 714.781 597.516 714.265 596.177C714.406 594.376 714.935 593.685 716.296 592.503C723.867 585.929 736.829 579.978 745.781 574.779Q730.314 566.154 714.62 557.949C702.785 565.209 690.392 572.795 677.907 578.835ZM637.781 600.824C645.083 604.941 668.381 619.151 674.586 620.876C686.269 614.458 697.919 608.046 709.978 602.351Q691.973 591.589 673.579 581.507C661.895 588.285 650.041 595.138 637.781 600.824ZM792.181 686.544C796.456 686.763 822.55 670.116 828.129 666.86C816.89 661.165 805.604 652.387 793.93 648.057Q775.24 657.65 756.445 667.037C768.422 673.417 780.165 680.254 792.181 686.544ZM759.88 532.154C765.907 535.1 789.996 550.046 794.263 549.978C805.421 544.606 816.85 539.057 827.424 532.594Q817.167 527.157 807.148 521.294C802.499 518.611 797.729 515.504 792.808 513.386Q776.451 522.957 759.88 532.154ZM713.186 641.803C724.183 635.144 736.023 629.882 747.175 623.458C741.686 620.104 718.234 605.883 713.418 605.343C702.27 611.858 690.343 617.192 679.314 623.849C683.567 626.343 709.633 642.459 713.186 641.803ZM834.864 572.064C846.189 567.117 856.666 559.787 868.136 555.334C856.543 548.428 844.485 541.462 832.457 535.359C821.838 541.95 810.165 546.758 799.625 553.459C803.8 555.559 834.294 572.008 834.864 572.064ZM798.954 645.393C809.138 649.948 824.385 661.185 833.552 663.906C844.888 657.373 856.539 651.248 867.725 644.477C863.016 641.918 836.847 626.726 833.477 626.971C821.908 632.955 810.31 639.014 798.954 645.393ZM787.665 645.443C781.116 641.554 758.212 628.073 752.36 626.408C740.701 632.481 728.907 638.362 717.387 644.69C722.903 648.229 747.8 663.546 752.704 663.608Q770.018 654.204 787.665 645.443ZM872.375 604.423C861.269 610.901 850.26 617.903 838.762 623.661C845.188 627.167 851.737 630.438 858.173 633.926C862.809 636.439 867.487 639.442 872.305 641.527C883.542 635.364 894.991 629.407 905.864 622.619C900.288 619.335 877.403 604.426 872.375 604.423ZM750.504 572.106Q768.346 562.131 785.963 551.764C780.826 548.905 759.032 535.478 754.848 535.44Q737.063 545.251 719.389 555.26C729.828 560.392 740.699 565.843 750.504 572.106Z"/>
	<path fill="#020110" transform="scale(0.666667 0.666667)" d="M944.096 592.734C948.198 595.125 952.536 597.381 956.363 600.195C952.206 602.656 948.083 605.237 943.723 607.324C943.742 607.17 943.73 607.01 943.781 606.863C943.854 606.65 944.281 606.03 944.33 605.809C944.497 605.056 944 604.759 943.582 604.233C940.454 603.915 938.156 607.512 934.559 607.311C938.348 604.713 942.695 602.618 946.709 600.365C945.35 599.423 943.904 598.573 942.508 597.685C942.567 597.652 942.622 597.61 942.685 597.585C943.751 597.164 944.546 596.855 945.488 596.18C945.498 594.742 944.792 593.96 944.096 592.734Z"/>
	<path fill="#A09EA2" transform="scale(0.666667 0.666667)" d="M792.356 554.41C800.85 559.595 810.046 563.941 818.792 568.717Q842.217 581.35 864.874 595.314C857.705 598.709 850.711 603.3 843.77 607.206Q818.685 621.258 793.761 635.595C769.298 622.384 745.292 608.034 720.393 595.687C744.897 583.041 768.223 567.802 792.356 554.41Z"/>
	<path fill="#080723" transform="scale(0.666667 0.666667)" d="M244.738 466.636C248.09 466.409 252.011 466.912 255.064 468.333C257.691 469.555 260.111 471.607 261.059 474.423Q261.177 474.766 261.259 475.12Q261.342 475.473 261.389 475.833Q261.435 476.193 261.445 476.556Q261.456 476.919 261.429 477.281Q261.403 477.643 261.34 478.001Q261.277 478.358 261.178 478.708Q261.08 479.057 260.947 479.395Q260.814 479.732 260.647 480.055C258.523 484.124 253.701 485.58 249.581 486.711C245.255 486.696 241.398 486.584 237.483 484.442C234.853 483.002 232.426 480.746 231.721 477.725Q231.635 477.367 231.586 477.003Q231.538 476.638 231.529 476.27Q231.519 475.903 231.549 475.536Q231.578 475.169 231.646 474.808Q231.714 474.446 231.82 474.094Q231.925 473.742 232.068 473.402Q232.21 473.063 232.387 472.741Q232.565 472.419 232.775 472.117C235.403 468.315 240.481 467.326 244.738 466.636ZM248.292 482.372C250.713 481.783 254.465 481.238 255.742 478.812C256.342 477.672 256.299 476.689 255.848 475.517C255.096 473.564 252.192 472.192 250.323 471.727C248.757 471.337 246.756 471.072 245.144 471.09C242.767 471.541 239.123 472.113 237.588 474.257C236.913 475.199 236.654 476.294 237.011 477.418C237.663 479.472 240.236 480.916 242.138 481.536C244.11 482.178 246.227 482.418 248.292 482.372Z"/>
</svg>
